<svg xmlns="http://www.w3.org/2000/svg" width="25.449" height="46.522" viewBox="0 0 25.449 46.522"><defs><style>.a{fill:#fff;}</style></defs><path class="a" d="M535.748,567.286a30.124,30.124,0,0,1,3.171.725,12.71,12.71,0,0,1,5.212,20.573,1.033,1.033,0,0,0-.286.616c-.018,3.254-.012,6.509-.012,9.763,0,.074.009.149.019.289.377,0,.749,0,1.121,0a2.4,2.4,0,0,1,2.318,1.509,2.368,2.368,0,0,1-.642,2.691q-5.077,4.809-10.168,9.6a2.365,2.365,0,0,1-3.456,0q-5.126-4.823-10.237-9.662a2.4,2.4,0,0,1,1.63-4.142c.392-.007.784,0,1.247,0v-.5c0-3.149.006-6.3-.012-9.445a1.2,1.2,0,0,0-.275-.711,12.558,12.558,0,0,1-2.266-13.7c.263-.656.749-.888,1.277-.66.509.22.65.735.38,1.387a10.9,10.9,0,1,0,11.581-6.4,10.7,10.7,0,0,0-5.783.716c-.154.063-.3.136-.462.187a.9.9,0,0,1-1.13-.489.851.851,0,0,1,.469-1.17c1.051-.37,2.122-.684,3.193-.993a9.232,9.232,0,0,1,1.114-.185Zm-8.266,23.153v.527q0,4.519,0,9.038a.937.937,0,0,1-1.06,1.064c-.59.006-1.181.007-1.771,0-.319,0-.611.019-.751.369s.058.566.29.784q5.005,4.72,10.006,9.445c.451.426.66.428,1.117,0q1.621-1.524,3.236-3.055,3.367-3.181,6.735-6.361c.238-.225.471-.45.313-.82-.146-.341-.442-.365-.76-.36-.545.008-1.09,0-1.635,0-.875,0-1.184-.306-1.184-1.169q0-4.451,0-8.9v-.557a12.735,12.735,0,0,1-14.534,0Z" transform="translate(-522.021 -567.286)"/><path class="a" d="M589.52,614.32c-.322.495-.625.963-.934,1.426a.2.2,0,0,1-.147.06c-.554.013-1.108.02-1.662.029h-.1a4.017,4.017,0,0,1-.495,1.479,4.395,4.395,0,0,1-2.148,1.874,7.006,7.006,0,0,1-2.285.54c-.081.006-.161.017-.242.026-.007,0-.013.008-.031.021l.589.734q2.473,3.078,4.949,6.154a.441.441,0,0,1,.1.393c-.032,0-.066.011-.1.011-.666.011-1.333.018-2,.036a.3.3,0,0,1-.261-.124q-1.534-1.824-3.071-3.644-1.34-1.589-2.68-3.179a.238.238,0,0,1-.065-.126c-.014-.441-.022-.882-.03-1.323a.209.209,0,0,1,.013-.052,9.571,9.571,0,0,0,2.04-.014,5.061,5.061,0,0,0,2.393-.795,2.441,2.441,0,0,0,1.072-1.906c0-.039,0-.079,0-.13h-6.043c.066-.1.119-.181.173-.261.254-.377.51-.752.759-1.132a.2.2,0,0,1,.2-.1q2.277,0,4.555,0h.173a1.868,1.868,0,0,0-.442-.638,3.511,3.511,0,0,0-1.9-.9,12.856,12.856,0,0,0-2.076-.093c-.449-.011-.9,0-1.388,0,.128-.2.233-.36.341-.522.19-.285.383-.566.569-.853a.192.192,0,0,1,.186-.1c.847,0,1.694,0,2.541-.007l7.257-.025h.183l-.512.788c-.128.2-.263.387-.382.589a.226.226,0,0,1-.229.118c-.8,0-1.595,0-2.392,0h-.161c.108.172.209.325.3.482a3.3,3.3,0,0,1,.444,1.078c.018.1.081.088.15.087h2.781Z" transform="translate(-571.545 -605.853)"/></svg>