<svg xmlns="http://www.w3.org/2000/svg" width="45.873" height="49.843" viewBox="0 0 45.873 49.843"><defs><style>.a{fill:#fff;}</style></defs><path class="a" d="M341.685-542.7a1.283,1.283,0,0,1,.693,1.319c-.039.839,0,1.682-.012,2.523a1,1,0,0,1-.974,1.1,1,1,0,0,1-.973-1.1c-.007-.841.027-1.684-.012-2.523a1.28,1.28,0,0,1,.693-1.319Z" transform="translate(-318.456 542.7)"/><path class="a" d="M241.078-463.118a9.5,9.5,0,0,1,3.183-2.869c.453-.312.858-.694,1.289-1.038a.983.983,0,0,1,1.4.044.957.957,0,0,1-.132,1.424c-.78.633-1.57,1.262-2.407,1.816a5.2,5.2,0,0,0-2.49,4.572c0,1.136,0,2.271,0,3.407-.005.837-.349,1.165-1.2,1.169-.372,0-.743,0-1.179,0,0,.737,0,1.445,0,2.152,0,.925-.335,1.254-1.269,1.255q-2.755,0-5.511,0c-.864,0-1.2-.346-1.208-1.217,0-.711,0-1.421,0-2.189-.454,0-.871,0-1.288,0a.967.967,0,0,1-1.087-1.08c-.012-1.071-.024-2.142,0-3.212a5.369,5.369,0,0,0-2.71-4.992,16.194,16.194,0,0,1-5.653-6.06,16.789,16.789,0,0,1,12.346-24.682,16.786,16.786,0,0,1,18.983,13.977,17.708,17.708,0,0,1,.082,4.7c-.081.727-.508,1.157-1.1,1.092s-.925-.526-.843-1.248a15.343,15.343,0,0,0-.477-6.067,14.92,14.92,0,0,0-12.831-10.609,14.782,14.782,0,0,0-16.1,12.614c-.8,6.145,1.5,11.047,6.6,14.6a11.436,11.436,0,0,1,2.668,2.4v-.543c0-4.089.014-8.177-.008-12.266a5.554,5.554,0,0,1,.964-3.248c1.188-1.762,2.325-3.558,3.486-5.338.6-.919,1.343-.925,1.935-.017,1.205,1.848,2.4,3.7,3.615,5.544a5.062,5.062,0,0,1,.84,2.893c-.01,4.137,0,8.275,0,12.412v.551Zm-6.506,2.78v-12.944c0-.767-.144-1-.878-1.219a3.687,3.687,0,0,0-1.006-.115c-.45,0-.619.207-.617.7.022,4.346.013,8.693.014,13.039,0,.173.016.345.025.541Zm4.438,0v-9.98c0-1.249-.009-2.5.006-3.746,0-.319-.094-.526-.419-.509a6.537,6.537,0,0,0-1.42.171.91.91,0,0,0-.672,1.023c.031,4.151.017,8.3.017,12.455v.586Zm-7.858,3.773h8.788v-1.769h-8.788Zm7.829-19.935a4.4,4.4,0,0,0-1.124-2.372c-.04-.061-.209-.051-.319-.052-1.331,0-2.662-.007-3.993.005a.562.562,0,0,0-.405.169,10.117,10.117,0,0,0-.8,1.274,5.386,5.386,0,0,0-.279.987,4.369,4.369,0,0,1,3.485.779A4.35,4.35,0,0,1,238.981-476.5Zm-5.44,21.92v1.418h4.014v-1.418Zm3.025-26.319-1.018-1.568L234.53-480.9Z" transform="translate(-212.61 501.029)"/><path class="a" d="M174.066-379.981c-.453,0-.907.009-1.36,0a.977.977,0,0,1-1.073-.994.95.95,0,0,1,1.059-.947q1.409-.015,2.817,0a.954.954,0,0,1,1.051.957.965.965,0,0,1-1.036.982C175.038-379.968,174.552-379.981,174.066-379.981Z" transform="translate(-171.632 402.839)"/><path class="a" d="M488.955-381.911c.486,0,.972-.011,1.457,0a.938.938,0,0,1,.988.918.937.937,0,0,1-.948,1.012c-1,.028-2.008.027-3.011,0a.943.943,0,0,1-.967-1,.952.952,0,0,1,1.024-.935C487.983-381.92,488.469-381.911,488.955-381.911Z" transform="translate(-445.528 402.825)"/><path class="a" d="M438.757-491.527a4.111,4.111,0,0,1-.751-.654.763.763,0,0,1,.1-.99c.749-.783,1.511-1.556,2.3-2.3a.908.908,0,0,1,1.275.084.9.9,0,0,1,.056,1.274c-.732.777-1.5,1.525-2.269,2.263A2.706,2.706,0,0,1,438.757-491.527Z" transform="translate(-403.242 501.805)"/><path class="a" d="M227.695-495.662a2.719,2.719,0,0,1,.616.365c.683.644,1.343,1.313,2,1.985a.959.959,0,0,1,.063,1.425.955.955,0,0,1-1.426-.043c-.7-.677-1.381-1.366-2.062-2.06a.906.906,0,0,1-.215-1.069A1.04,1.04,0,0,1,227.695-495.662Z" transform="translate(-219.434 501.779)"/><path class="a" d="M200.767-292.83a4.119,4.119,0,0,1-.44.766c-.671.7-1.361,1.385-2.058,2.061a.977.977,0,0,1-1.394.054.952.952,0,0,1,.026-1.424c.677-.7,1.371-1.376,2.061-2.058a.861.861,0,0,1,1.106-.193A3.753,3.753,0,0,1,200.767-292.83Z" transform="translate(-193.324 326.126)"/><path class="a" d="M469.168-293.619a2.506,2.506,0,0,1,.608.35c.683.643,1.343,1.313,2,1.984a.961.961,0,0,1,.076,1.426,1,1,0,0,1-1.465-.07q-1.022-1-2.026-2.026a.908.908,0,0,1-.222-1.067A1.008,1.008,0,0,1,469.168-293.619Z" transform="translate(-429.501 326.012)"/><path class="a" d="M450.656-319.11a.934.934,0,0,1,.941.965.957.957,0,0,1-.955.963.963.963,0,0,1-.969-1A.942.942,0,0,1,450.656-319.11Z" transform="translate(-413.514 348.188)"/></svg>