<svg id="Component_21_1" data-name="Component 21 – 1" xmlns="http://www.w3.org/2000/svg" width="20.686" height="20.71" viewBox="0 0 20.686 20.71">
  <path id="Path_78" data-name="Path 78" d="M328.313-23.651c.437-.442.856-.87,1.28-1.294a2.092,2.092,0,0,1,1.127-.621,1.913,1.913,0,0,1,1.754.594c.591.586,1.175,1.178,1.762,1.767.192.193.386.385.576.579a1.99,1.99,0,0,1,.056,2.877c-.2.219-.42.42-.628.632-.242.248-.484.5-.72.749a3.2,3.2,0,0,1-2.568,1.045,8.714,8.714,0,0,1-3.19-.8,19.533,19.533,0,0,1-7.645-5.99,17.3,17.3,0,0,1-2.829-5.054,7.064,7.064,0,0,1-.432-2.635,3.06,3.06,0,0,1,.844-2.039c.5-.526,1.013-1.046,1.537-1.551a1.963,1.963,0,0,1,2.849,0q1.21,1.174,2.383,2.385a1.911,1.911,0,0,1,.525,2.029,2.161,2.161,0,0,1-.543.858q-.607.612-1.221,1.215a.145.145,0,0,0-.034.2,8.262,8.262,0,0,0,.928,1.447,14.1,14.1,0,0,0,3.347,3.131C327.735-23.96,328.019-23.818,328.313-23.651Zm-10.2-7.855c.022.231.033.464.069.694a8.576,8.576,0,0,0,.778,2.392,18.577,18.577,0,0,0,8.643,8.827,8.969,8.969,0,0,0,3.137,1,2.093,2.093,0,0,0,1.952-.736c.2-.243.44-.456.661-.683s.442-.428.641-.66a.686.686,0,0,0-.01-.98c-.045-.053-.094-.1-.143-.151q-1.129-1.13-2.259-2.259a1.263,1.263,0,0,0-.169-.144.581.581,0,0,0-.682-.026,1.965,1.965,0,0,0-.331.272c-.455.449-.9.9-1.357,1.353a.889.889,0,0,1-1.062.206,12.51,12.51,0,0,1-1.119-.613,14.621,14.621,0,0,1-3.24-2.859,10.111,10.111,0,0,1-1.694-2.568.975.975,0,0,1,.269-1.243q.694-.66,1.366-1.344a.694.694,0,0,0,0-1.105l-.052-.053q-.947-.955-1.894-1.909c-.157-.158-.315-.317-.485-.459a.655.655,0,0,0-.861-.037,1.524,1.524,0,0,0-.215.182c-.415.412-.817.837-1.243,1.236A2.088,2.088,0,0,0,318.109-31.505Z" transform="translate(-316.849 38.029)" fill="#fff"/>
  <path id="Path_79" data-name="Path 79" d="M703.552-95.181a.625.625,0,0,1-.541.649.634.634,0,0,1-.712-.488,13.815,13.815,0,0,0-.466-1.715,9.3,9.3,0,0,0-7.2-6,.642.642,0,0,1-.559-.674.616.616,0,0,1,.6-.586,2.7,2.7,0,0,1,.541.082,10.715,10.715,0,0,1,8.322,8.624C703.546-95.245,703.549-95.2,703.552-95.181Z" transform="translate(-682.866 103.994)" fill="#fff"/>
  <path id="Path_80" data-name="Path 80" d="M694.817,21.462a.641.641,0,0,1-.565.672.62.62,0,0,1-.691-.514,5.244,5.244,0,0,0-1.792-3.129,5.123,5.123,0,0,0-2.465-1.166.633.633,0,1,1,.2-1.25,6.35,6.35,0,0,1,3.412,1.735,6.418,6.418,0,0,1,1.886,3.51C694.809,21.378,694.814,21.437,694.817,21.462Z" transform="translate(-677.693 -12.497)" fill="#fff"/>
</svg>
