<svg id="Component_19_1" data-name="Component 19 – 1" xmlns="http://www.w3.org/2000/svg" width="23.597" height="18.145" viewBox="0 0 23.597 18.145">
  <g id="Component_31_1" data-name="Component 31 – 1">
    <path id="Path_73" data-name="Path 73" d="M104.093,295.708h9.7a2.214,2.214,0,0,1,2.091,2.444q0,6.633,0,13.266a2.211,2.211,0,0,1-2.083,2.434H94.371a2.208,2.208,0,0,1-2.083-2.434q0-6.651,0-13.3a2.211,2.211,0,0,1,2.061-2.409Zm10.139,1.153-.006-.056a3.843,3.843,0,0,0-.441-.049q-9.618,0-19.236,0a2.477,2.477,0,0,0-.283,0c-.109.013-.216.041-.362.071l10.18,9.882Zm.085,15.869-6.817-7.965c-.033.031-.076.07-.118.111l-2.952,2.862a.423.423,0,0,1-.693,0l-1.86-1.805-1.2-1.164-6.812,7.959a3.711,3.711,0,0,0,.522.076q3.059.008,6.118,0,6.633,0,13.266,0A4.249,4.249,0,0,0,114.317,312.73Zm-21.088-.845,6.706-7.839-6.686-6.489c-.023.212-.056.378-.056.543q0,6.676,0,13.352C93.192,311.6,93.216,311.746,93.229,311.885Zm21.691-14.326-6.682,6.486,6.7,7.837c.012-.122.036-.252.036-.382q0-6.719,0-13.438A4.884,4.884,0,0,0,114.92,297.559Z" transform="translate(-92.287 -295.708)" fill="#fff"/>
  </g>
</svg>
