<svg id="Component_33_1" data-name="Component 33 – 1" xmlns="http://www.w3.org/2000/svg" width="29.227" height="20.898" viewBox="0 0 29.227 20.898">
  <path id="Union_3" data-name="Union 3" d="M2143.484-1321.1c-.55-.011-1.115-.019-1.662-.027h-.029c-2.468-.036-5.02-.074-7.569-.319a9.269,9.269,0,0,1-1.681-.284,4.032,4.032,0,0,1-2.976-3.1,21.317,21.317,0,0,1-.486-3.928,43.852,43.852,0,0,1,.282-8.49,4.984,4.984,0,0,1,1.183-2.91,4.159,4.159,0,0,1,2.287-1.287,31.3,31.3,0,0,1,4.749-.428c2.158-.08,4.255-.121,6.233-.121,2.742,0,5.3.075,7.822.227l.209.013a12,12,0,0,1,3.083.459,3.961,3.961,0,0,1,2.6,2.6,13.551,13.551,0,0,1,.554,3.434,44.762,44.762,0,0,1-.227,9.427,4.973,4.973,0,0,1-1.169,2.877,4.173,4.173,0,0,1-2.276,1.3,26.862,26.862,0,0,1-4.093.406l-.223.011c-1.937.093-3.85.114-5.875.138l-.726.008Zm-5.848-19.337a30.207,30.207,0,0,0-4.531.4,2.77,2.77,0,0,0-1.513.864,3.693,3.693,0,0,0-.8,2.119,42.439,42.439,0,0,0-.271,8.213,19.774,19.774,0,0,0,.447,3.662,2.614,2.614,0,0,0,1.972,2.061,8.151,8.151,0,0,0,1.422.235c2.489.238,5.012.275,7.452.311h.022l1.665.027.7-.008c2.012-.023,3.913-.045,5.823-.136l.223-.011a25.709,25.709,0,0,0,3.875-.379,2.777,2.777,0,0,0,1.51-.871,3.607,3.607,0,0,0,.795-2.093,43.355,43.355,0,0,0,.216-9.124,12.381,12.381,0,0,0-.483-3.077,2.535,2.535,0,0,0-1.685-1.688,10.942,10.942,0,0,0-2.719-.39l-.21-.013c-2.491-.15-5.022-.224-7.736-.224C2141.855-1340.558,2139.776-1340.518,2137.636-1340.438Zm3,13.418a1,1,0,0,1-.507-.878v-7.312a1,1,0,0,1,.507-.878,1.019,1.019,0,0,1,.507-.137,1.019,1.019,0,0,1,.507.137l6.333,3.655a1.006,1.006,0,0,1,.507.878,1.006,1.006,0,0,1-.507.878l-6.332,3.657a1.02,1.02,0,0,1-.508.137A1.019,1.019,0,0,1,2140.631-1327.02Zm.935-1.619,5.048-2.916-5.048-2.914Z" transform="translate(-2129 1342)" fill="#fff"/>
</svg>
