<svg id="Component_32_1" data-name="Component 32 – 1" xmlns="http://www.w3.org/2000/svg" width="19.986" height="19.977" viewBox="0 0 19.986 19.977">
  <path id="Path_50" data-name="Path 50" d="M-346.985,181.052q0-2.066,0-4.132a5.638,5.638,0,0,1,4.6-5.7,7.673,7.673,0,0,1,1.557-.163c2.566-.015,5.133-.008,7.7,0a6.141,6.141,0,0,1,4.685,1.963,5.024,5.024,0,0,1,1.427,3.475q.035,4.464,0,8.929a5.494,5.494,0,0,1-3.585,5.124,6.291,6.291,0,0,1-2.534.479q-3.87,0-7.74,0a6.133,6.133,0,0,1-4.653-1.942,5.139,5.139,0,0,1-1.454-3.586c-.013-1.478,0-2.956,0-4.434Zm18.507-.04h0c0-1.518,0-3.037,0-4.555a3.2,3.2,0,0,0-.482-1.7,4.43,4.43,0,0,0-3.892-2.227c-2.734-.035-5.468-.013-8.2-.012a4.586,4.586,0,0,0-2.529.754,3.929,3.929,0,0,0-1.93,3.517c.011,2.9,0,5.8,0,8.707a3.392,3.392,0,0,0,.482,1.8,4.411,4.411,0,0,0,3.885,2.237c2.72.038,5.442.012,8.163.011a4.668,4.668,0,0,0,2.554-.741,3.886,3.886,0,0,0,1.953-3.461Q-328.48,183.178-328.478,181.012Z" transform="translate(346.988 -171.042)" fill="#fff"/>
  <path id="Path_51" data-name="Path 51" d="M-297.839,222.056a4.665,4.665,0,0,1-4.673-4.678,4.675,4.675,0,0,1,4.7-4.572,4.669,4.669,0,0,1,4.674,4.637A4.675,4.675,0,0,1-297.839,222.056Zm0-1.47a3.188,3.188,0,0,0,3.232-3.123,3.183,3.183,0,0,0-3.188-3.187,3.186,3.186,0,0,0-3.242,3.133A3.182,3.182,0,0,0-297.844,220.586Z" transform="translate(307.838 -207.805)" fill="#fff"/>
  <path id="Path_52" data-name="Path 52" d="M-225.822,202.039a1.02,1.02,0,0,1-.961,1.021,1.015,1.015,0,0,1-.992-1.01,1.02,1.02,0,0,1,.96-1.022A1.02,1.02,0,0,1-225.822,202.039Z" transform="translate(242.049 -197.438)" fill="#fff"/>
</svg>
