<svg xmlns="http://www.w3.org/2000/svg" width="49.941" height="52.986" viewBox="0 0 49.941 52.986"><defs><style>.a{fill:#040404;}.b{fill:#70cf81;}.c{fill:#6150ff;}.d{fill:#f46a25;}.e{fill:#3a2bc2;}.f{fill:#f36924;}.g{fill:#fbccb1;}.h{fill:#fb8872;}.i{fill:#f26924;}.j{fill:#b3b3b3;}.k{fill:#494843;}</style></defs><g transform="translate(533.11 -897.237)"><path class="a" d="M-530.486,950.224a1.375,1.375,0,0,1-.459-1.294,35.829,35.829,0,0,1,4.7-14.316c-.838-.074-1.646-.142-2.454-.217a9.891,9.891,0,0,1-1.881-.323,3.085,3.085,0,0,1-2.408-2.824,12.971,12.971,0,0,1,0-3.554c.3-1.829,1.042-2.545,2.889-2.713,2.8-.254,5.608-.361,8.417-.408a.74.74,0,0,0,.765-.5c1.356-2.733,3.067-5.258,4.646-7.86.366-.6.742-1.2,1.154-1.774a.523.523,0,0,0-.065-.776,36.25,36.25,0,0,1-4.115-5.619,10.17,10.17,0,0,1-1.581-5.481,5.579,5.579,0,0,1,.26-1.522,3.256,3.256,0,0,1,3.938-2.419,7.778,7.778,0,0,1,4.8,2.5,23.179,23.179,0,0,1,3.054,3.734,14.834,14.834,0,0,1,1.782-2.247,2.724,2.724,0,0,0,.329-.636,11.177,11.177,0,0,1,4.036-4.127,3.7,3.7,0,0,1,2.521-.569c1.782.272,2.677,1.671,2.323,3.591a9.032,9.032,0,0,1-1.054,2.841,79.187,79.187,0,0,1-4.762,8.079c-.23.311-.176.477.075.754a29.556,29.556,0,0,1,2.769,3.728,2.005,2.005,0,0,1,.361,1.27.376.376,0,0,0,.109.32c.618.671,1.188,1.39,1.84,2.026,1.25,1.219,2.178,2.714,3.429,3.932a.815.815,0,0,0,.608.289c2.621.03,5.239.113,7.851.354a12.8,12.8,0,0,1,1.8.194,1.846,1.846,0,0,1,1.6,1.826,15.75,15.75,0,0,1-.579,5.573,3.138,3.138,0,0,1-3.085,2.444c-.39.031-.779.069-1.252.111.64.888,1.236,1.723,1.839,2.552a7.223,7.223,0,0,1,.919,1.549,1.6,1.6,0,0,1-.11,1.577c-.122.181-.175.324.013.485a.437.437,0,0,1,.116.169c.9,2.3,1.976,4.549,2.034,7.09a2.2,2.2,0,0,1-.016.361.631.631,0,0,1-.412.547.529.529,0,0,1-.6-.2c-.555-.566-1.107-1.137-1.66-1.7a20.179,20.179,0,0,0-4.032-3.374c-.088-.053-.169-.153-.259-.161-1.22-.094-1.906-1.008-2.6-1.807-1.718-1.983-3.5-3.9-5.407-5.7a3.79,3.79,0,0,1-.763-.973.724.724,0,0,0-.75-.4q-7.863.008-15.725-.017a.755.755,0,0,0-.71.371c-1.636,2.322-3.12,4.749-4.83,7.021a40.644,40.644,0,0,1-6.739,6.685,8.244,8.244,0,0,1-2.154,1.535Zm28.041-25.036v.132c-2.5,0-5-.085-7.5.018-4.994.206-9.988.43-14.984.581-1.7.052-3.413.088-5.107.308a1.7,1.7,0,0,0-1.681,1.712,23.926,23.926,0,0,0-.072,2.738,2.05,2.05,0,0,0,1.787,2.3c.249.065.507.1.758.155.3.071.39-.053.387-.346-.007-.637-.011-1.277.037-1.912.021-.278,0-.718.425-.7.371.014.365.425.379.7.036.671.032,1.344.017,2.016-.005.259.049.379.332.375a11.286,11.286,0,0,1,1.136.041c.327.027.451-.054.425-.422-.047-.67-.027-1.344-.034-2.016a2.543,2.543,0,0,1,.164-.91.378.378,0,0,1,.423-.3c.218.031.255.205.254.388a20.387,20.387,0,0,1,.017,2.994c-.035.234.035.312.263.311.465,0,.932,0,1.4.024.287.017.384-.06.38-.366a9.2,9.2,0,0,1,.05-1.908c.047-.245.112-.589.417-.579.349.012.368.366.372.64a9.056,9.056,0,0,1-.109,1.8c-.055.3.006.45.355.429a9.656,9.656,0,0,1,1.189.008c.334.021.385-.087.352-.413a6.424,6.424,0,0,1,0-1.905c.039-.195.1-.436.355-.45s.321.228.38.42a3.008,3.008,0,0,1,.057.976c-.035,1.427-.037,1.421,1.378,1.358.259-.012.332-.048.3-.349a17.67,17.67,0,0,1-.042-1.859.439.439,0,0,1,.427-.492c.3-.011.269.25.3.449a9.85,9.85,0,0,1,.088,1.805c-.012.327.066.465.42.438a9.874,9.874,0,0,1,1.241-.005c.323.016.441-.055.417-.422a4.943,4.943,0,0,1,.164-1.894c.056-.17.1-.4.352-.377.24.022.269.243.312.421a1.556,1.556,0,0,1,.044.462c-.031.464-.071.927-.125,1.389-.035.3.033.446.378.421a8.781,8.781,0,0,1,1.189,0c.313.019.352-.1.337-.387a10.58,10.58,0,0,1,.011-2.372c.037-.216.062-.478.375-.466s.341.285.357.491c.037.48.036.964.03,1.446-.018,1.358-.022,1.351,1.352,1.292.265-.011.359-.073.336-.355-.045-.566-.062-1.136-.067-1.7,0-.261.04-.568.371-.591s.341.283.4.513a5.55,5.55,0,0,1,.042,1.75c-.022.289.019.4.33.39.482-.02.966-.02,1.448,0,.286.013.343-.1.333-.359-.02-.533-.014-1.069.005-1.6.011-.312-.068-.773.356-.8s.417.466.435.755a12.253,12.253,0,0,1-.054,1.649c-.019.269.055.366.335.356.568-.019,1.138-.018,1.707,0,.275.008.354-.082.34-.356-.03-.585-.042-1.172-.03-1.757.007-.319.02-.767.428-.758.35.008.392.449.4.748.014.584-.013,1.172-.054,1.755-.018.263.029.376.318.367q.853-.026,1.707,0c.29.009.381-.071.357-.379a9.027,9.027,0,0,1,.054-1.961c.052-.374.117-.914.555-.837s.3.618.251.985c-.082.631-.178,1.261-.283,1.889-.039.233.039.3.265.3.552-.009,1.1-.019,1.655,0,.313.013.373-.118.365-.394a8.181,8.181,0,0,1,.245-1.892c.049-.239.063-.57.44-.516.35.05.327.366.33.613a7.819,7.819,0,0,1-.247,1.787c-.078.353.034.413.348.4.5-.02,1-.026,1.5,0,.333.019.41-.1.387-.413a5.834,5.834,0,0,1,.153-2c.068-.244.116-.553.472-.5.33.047.3.353.291.577-.032.636-.074,1.273-.162,1.9-.05.357.052.449.392.43a12.3,12.3,0,0,1,1.4-.006c.345.019.4-.126.378-.426-.035-.568-.049-1.138-.036-1.706.007-.33-.034-.832.384-.841.471-.01.424.522.434.853a15.748,15.748,0,0,1-.079,1.755c-.022.274.056.364.333.354.672-.022,1.345-.03,2.017-.018.326.006.454-.089.446-.439-.013-.55.026-1.1.064-1.651a.375.375,0,0,1,.45-.384c.262.027.335.214.333.441,0,.345,0,.69-.028,1.033-.075,1.029-.08,1.027.975.926A2.063,2.063,0,0,0-485,931.8a15.633,15.633,0,0,0,.631-4.433,1.419,1.419,0,0,0-1.389-1.567c-1.647-.15-3.295-.343-4.946-.392C-494.62,925.3-498.533,925.258-502.446,925.187Zm-11.871-11.992c.375-.559.721-1.072,1.064-1.587q1.8-2.708,3.6-5.417c.113-.169.236-.3.046-.536-.893-1.094-1.74-2.225-2.645-3.308a7.169,7.169,0,0,0-3.956-2.563c-2.084-.473-3.171.238-3.474,2.357a8,8,0,0,0,1.23,5.072C-517.281,909.33-515.627,911.108-514.316,913.195Zm-5.955,11.264c.912,0,1.755-.032,2.595.01a1.639,1.639,0,0,0,1.638-.825c1.817-2.577,3.564-5.2,5.309-7.824,2.624-3.948,4.986-8.05,7.352-12.152.07-.12.213-.222-.009-.372a2.565,2.565,0,0,0-2.868.1,5.629,5.629,0,0,0-1.409,1.638c-1.712,2.935-3.694,5.692-5.58,8.511-2.059,3.078-3.885,6.305-5.965,9.371C-519.553,923.426-519.906,923.93-520.271,924.459Zm22.238,10.181a.984.984,0,0,0,.386.5A42.614,42.614,0,0,1-492.934,940a15.208,15.208,0,0,0,1.838,1.887,1.244,1.244,0,0,0,1.433.189,9.2,9.2,0,0,0,2.379-1.531,1.476,1.476,0,0,0,.3-2.2c-.755-1.153-1.519-2.3-2.381-3.38a.739.739,0,0,0-.655-.3c-1.224,0-2.448-.015-3.671-.019C-495.12,934.637-496.547,934.64-498.033,934.64Zm-17.7-10.325c.764,0,1.45-.031,2.133.009a1.266,1.266,0,0,0,1.265-.812,126.1,126.1,0,0,1,6.738-10.83,57.566,57.566,0,0,0,3.442-5.4,6.653,6.653,0,0,0,.706-1.6,1.387,1.387,0,0,0-.571-1.629c-.525-.365-.521-.385-.812.16a186.1,186.1,0,0,1-11.916,18.8C-515.058,923.439-515.389,923.852-515.738,924.315Zm11.273-11.188c-.037.028-.074.042-.091.069-1.312,2.042-2.617,4.089-3.94,6.124-.167.256-.047.365.12.5a8.071,8.071,0,0,1,1.537,1.593c.441.628.546.632,1.135.146a40.471,40.471,0,0,0,3.643-3.29,1.068,1.068,0,0,0,.129-1.635c-.487-.71-.965-1.426-1.452-2.135A8.562,8.562,0,0,0-504.465,913.126Zm-22.752,26.858c-.236.2-.745-.137-.9.463-.4,1.55-.668,3.127-1.026,4.685-.052.226,0,.33.233.405a3.127,3.127,0,0,1,1.425.9c.227.259.333.24.586.049a38.572,38.572,0,0,0,3.553-3.38.421.421,0,0,0,.147-.259,1.278,1.278,0,0,0-1.194-1.4,1.433,1.433,0,0,1-1.492-.772A1.525,1.525,0,0,0-527.217,939.985Zm26.242-21.111a44.056,44.056,0,0,1-3.643,3.284c-.236.186-.251.3-.032.51a10.754,10.754,0,0,1,1.011,1.1.617.617,0,0,0,.555.27c1.324,0,2.649.01,3.973.014.8,0,1.6,0,2.4,0C-497.84,922.044-499.6,920.636-500.974,918.873Zm.648-14.6.72-1.549a8.739,8.739,0,0,0,.751-2.134,1.807,1.807,0,0,0-2.4-2.21,2.5,2.5,0,0,0-.486.166,10.166,10.166,0,0,0-3.516,3.121A7.8,7.8,0,0,1-500.326,904.272Zm-21.944,37.494c1.726-2.325,3.275-4.7,4.869-7.148-1.223,0-2.356,0-3.49,0a.308.308,0,0,0-.307.2c-1,1.786-2.139,3.49-3.029,5.364A2.44,2.44,0,0,1-522.27,941.766Zm.467-7.153c-1.187,0-2.218,0-3.248,0a.336.336,0,0,0-.39.3,11.329,11.329,0,0,1-1.094,2.49c-.237.471-.495.932-.769,1.445a3.474,3.474,0,0,1,1.368.266,5.45,5.45,0,0,1,1.1.813A56.6,56.6,0,0,1-521.8,934.612Zm16.825-10.594c-.276-.341-.5-.616-.723-.9a.2.2,0,0,0-.263-.07,1.1,1.1,0,0,1-1.395-.564c-.523-.747-1.176-1.38-1.746-2.109l-2.322,3.812Zm15.853,19.083a15.815,15.815,0,0,1,4.571,3.774,15.33,15.33,0,0,0-1.812-5.334c-.117-.163-.192-.149-.321-.047A14.247,14.247,0,0,1-489.125,943.1Zm-40.715,5.769a3.567,3.567,0,0,0,1.148-.835c1.008-.845.972-1.079-.2-1.715-.045-.025-.092-.045-.138-.069-.166-.086-.289-.087-.339.136A17.469,17.469,0,0,0-529.84,948.871Z"/><path class="b" d="M-494.278,1099.361c3.912.071,7.826.111,11.737.226,1.651.048,3.3.241,4.946.392a1.419,1.419,0,0,1,1.389,1.567,15.648,15.648,0,0,1-.631,4.433,2.063,2.063,0,0,1-1.989,1.456c-1.056.1-1.051.1-.976-.926.025-.343.024-.689.028-1.033,0-.228-.071-.414-.333-.442a.375.375,0,0,0-.45.384c-.038.55-.076,1.1-.064,1.652.008.351-.12.445-.446.439-.672-.012-1.345,0-2.017.018-.277.009-.355-.08-.333-.355a15.808,15.808,0,0,0,.079-1.755c-.01-.331.037-.864-.434-.853-.418.01-.377.511-.384.841-.013.568,0,1.138.036,1.706.018.3-.032.445-.377.426a12.212,12.212,0,0,0-1.4.006c-.341.019-.442-.073-.392-.43.088-.63.13-1.267.162-1.9.011-.225.039-.531-.291-.577-.357-.051-.4.259-.472.5a5.832,5.832,0,0,0-.153,2c.022.312-.054.432-.387.412-.5-.028-1-.021-1.5,0-.314.012-.426-.048-.348-.4a7.823,7.823,0,0,0,.247-1.787c0-.246.019-.563-.33-.613-.377-.053-.391.278-.44.516a8.208,8.208,0,0,0-.245,1.893c.008.276-.052.407-.365.394-.551-.023-1.1-.013-1.655,0-.226,0-.3-.068-.264-.3.1-.628.2-1.258.282-1.889.047-.367.175-.91-.251-.985s-.5.463-.555.837a9.014,9.014,0,0,0-.054,1.961c.024.308-.066.388-.357.379q-.853-.026-1.707,0c-.289.009-.336-.1-.318-.368.041-.584.068-1.171.054-1.755-.008-.3-.049-.74-.4-.747-.408-.009-.421.438-.428.757-.012.586,0,1.173.03,1.758.014.273-.065.364-.34.356-.569-.018-1.138-.019-1.707,0-.28.009-.354-.087-.335-.356a12.27,12.27,0,0,0,.054-1.649c-.018-.29,0-.782-.435-.755s-.345.487-.356.8c-.019.533-.025,1.069-.005,1.6.01.264-.048.372-.333.359-.482-.022-.966-.022-1.448,0-.312.013-.352-.1-.33-.39a5.56,5.56,0,0,0-.042-1.75c-.056-.23-.08-.534-.4-.513s-.374.33-.371.591c0,.568.022,1.137.067,1.7.022.282-.072.343-.336.355-1.374.058-1.369.065-1.352-1.293.006-.482.007-.966-.03-1.446-.016-.206-.05-.479-.357-.491s-.338.249-.375.466a10.583,10.583,0,0,0-.011,2.372c.015.289-.024.406-.337.387a8.859,8.859,0,0,0-1.189,0c-.345.026-.413-.122-.378-.42.054-.462.094-.926.125-1.39a1.562,1.562,0,0,0-.044-.461c-.043-.178-.072-.4-.312-.421-.255-.023-.3.207-.352.377a4.95,4.95,0,0,0-.164,1.895c.024.367-.094.439-.417.422a9.759,9.759,0,0,0-1.241.006c-.354.027-.432-.111-.42-.438a9.865,9.865,0,0,0-.088-1.806c-.029-.2,0-.459-.3-.449a.44.44,0,0,0-.427.492,17.7,17.7,0,0,0,.042,1.859c.029.3-.044.338-.3.349-1.415.063-1.414.068-1.378-1.358a3.016,3.016,0,0,0-.057-.976c-.059-.193-.112-.435-.381-.42s-.316.255-.355.45a6.417,6.417,0,0,0,0,1.905c.032.326-.019.434-.352.413a9.656,9.656,0,0,0-1.189-.008c-.348.021-.41-.132-.355-.429a9.05,9.05,0,0,0,.109-1.8c0-.274-.024-.628-.372-.64-.3-.01-.37.334-.417.579a9.2,9.2,0,0,0-.05,1.908c0,.307-.092.383-.38.367-.464-.027-.931-.026-1.4-.024-.227,0-.3-.077-.262-.311a20.4,20.4,0,0,0-.017-2.995c0-.183-.036-.357-.254-.388a.379.379,0,0,0-.423.3,2.535,2.535,0,0,0-.164.91c.007.672-.013,1.346.034,2.016.026.368-.1.449-.425.422-.378-.032-.758-.047-1.137-.041-.283,0-.337-.116-.332-.374.015-.672.019-1.345-.017-2.016-.015-.271-.008-.682-.379-.7-.424-.016-.4.424-.425.7-.048.635-.044,1.275-.037,1.912,0,.293-.084.417-.387.346-.251-.059-.509-.09-.759-.155a2.05,2.05,0,0,1-1.787-2.3,23.928,23.928,0,0,1,.072-2.738,1.7,1.7,0,0,1,1.681-1.711c1.694-.219,3.4-.256,5.106-.308,5-.151,9.99-.375,14.984-.581,2.495-.1,5-.018,7.5-.018Z" transform="translate(-8.167 -174.174)"/><path class="c" d="M-431,928.185c-1.31-2.087-2.964-3.865-4.132-5.983a8,8,0,0,1-1.23-5.072c.3-2.119,1.39-2.83,3.474-2.357a7.169,7.169,0,0,1,3.956,2.563c.9,1.084,1.752,2.214,2.644,3.308.19.233.067.367-.046.536q-1.8,2.709-3.6,5.417C-430.278,927.113-430.625,927.627-431,928.185Z" transform="translate(-83.317 -14.99)"/><path class="d" d="M-440.262,959.781c.365-.529.718-1.033,1.063-1.542,2.08-3.066,3.905-6.293,5.965-9.371,1.886-2.82,3.869-5.576,5.58-8.511a5.634,5.634,0,0,1,1.409-1.638,2.565,2.565,0,0,1,2.868-.1c.222.15.079.251.009.372-2.366,4.1-4.728,8.2-7.352,12.152-1.745,2.626-3.491,5.247-5.309,7.824a1.639,1.639,0,0,1-1.638.825C-438.507,959.748-439.35,959.781-440.262,959.781Z" transform="translate(-80.009 -35.322)"/><path class="e" d="M-279.447,1167.712c1.487,0,2.913,0,4.34,0,1.224,0,2.448.024,3.672.019a.739.739,0,0,1,.655.3c.862,1.08,1.626,2.227,2.381,3.38a1.476,1.476,0,0,1-.3,2.2,9.207,9.207,0,0,1-2.379,1.532,1.246,1.246,0,0,1-1.433-.189,15.218,15.218,0,0,1-1.838-1.887,42.562,42.562,0,0,0-4.714-4.856A.988.988,0,0,1-279.447,1167.712Z" transform="translate(-218.586 -233.072)"/><path class="f" d="M-407.482,965.126c.349-.463.681-.876.984-1.31a186.081,186.081,0,0,0,11.915-18.8c.292-.545.287-.525.812-.16a1.387,1.387,0,0,1,.571,1.629,6.659,6.659,0,0,1-.706,1.6,57.57,57.57,0,0,1-3.442,5.4,126.113,126.113,0,0,0-6.738,10.83,1.265,1.265,0,0,1-1.265.812C-406.032,965.1-406.719,965.126-407.482,965.126Z" transform="translate(-108.256 -40.812)"/><path class="c" d="M-351.578,1012.143a8.551,8.551,0,0,1,1.08,1.373c.487.71.966,1.425,1.453,2.135a1.068,1.068,0,0,1-.129,1.635,40.51,40.51,0,0,1-3.643,3.29c-.589.486-.694.482-1.135-.146a8.072,8.072,0,0,0-1.537-1.593c-.166-.136-.287-.246-.12-.5,1.323-2.035,2.628-4.082,3.94-6.124C-351.652,1012.185-351.615,1012.171-351.578,1012.143Z" transform="translate(-152.887 -99.016)"/><path class="g" d="M-502.6,1206.372a1.526,1.526,0,0,1,1.334.685,1.433,1.433,0,0,0,1.492.772,1.278,1.278,0,0,1,1.195,1.4.422.422,0,0,1-.147.259,38.581,38.581,0,0,1-3.553,3.38c-.254.191-.36.21-.587-.049a3.126,3.126,0,0,0-1.425-.9c-.236-.075-.285-.179-.233-.406.358-1.558.629-3.135,1.026-4.685C-503.344,1206.235-502.835,1206.568-502.6,1206.372Z" transform="translate(-24.618 -266.387)"/><path class="e" d="M-324.583,1053.7c1.373,1.762,3.134,3.17,4.267,5.179-.8,0-1.6,0-2.4,0-1.325,0-2.649-.018-3.974-.014a.617.617,0,0,1-.555-.27,10.755,10.755,0,0,0-1.011-1.1c-.219-.212-.2-.324.032-.51A44.029,44.029,0,0,0-324.583,1053.7Z" transform="translate(-176.391 -134.829)"/><path class="h" d="M-326.739,910.824a7.807,7.807,0,0,0-4.929-2.6,10.166,10.166,0,0,1,3.516-3.121,2.521,2.521,0,0,1,.486-.166,1.807,1.807,0,0,1,2.4,2.21,8.734,8.734,0,0,1-.751,2.134Z" transform="translate(-173.586 -6.552)"/><path class="i" d="M-466.909,1174.7a2.44,2.44,0,0,0-1.957-1.585c.889-1.873,2.03-3.578,3.028-5.364a.307.307,0,0,1,.307-.2c1.134,0,2.268,0,3.49,0C-463.634,1169.994-465.183,1172.374-466.909,1174.7Z" transform="translate(-55.361 -232.933)"/><path class="i" d="M-485.623,1167.5a56.581,56.581,0,0,0-3.031,5.316,5.447,5.447,0,0,0-1.1-.814,3.481,3.481,0,0,0-1.368-.266c.274-.513.532-.974.769-1.445a11.32,11.32,0,0,0,1.094-2.49.336.336,0,0,1,.39-.3C-487.841,1167.5-486.81,1167.5-485.623,1167.5Z" transform="translate(-36.179 -232.886)"/><path class="j" d="M-215.023,1218.422a14.213,14.213,0,0,0,2.438-1.607c.129-.1.2-.115.321.048a15.323,15.323,0,0,1,1.811,5.334A15.818,15.818,0,0,0-215.023,1218.422Z" transform="translate(-274.102 -275.321)"/><path class="k" d="M-509.459,1253.979a17.5,17.5,0,0,1,.472-2.482c.05-.223.173-.223.339-.136.046.024.093.045.138.069,1.17.636,1.206.87.2,1.715A3.562,3.562,0,0,1-509.459,1253.979Z" transform="translate(-20.381 -305.108)"/></g></svg>