<svg xmlns="http://www.w3.org/2000/svg" width="15.964" height="22.553" viewBox="0 0 15.964 22.553">
  <g id="Component_20_4" data-name="Component 20 – 4" transform="translate(0 0)">
    <path id="Path_81" data-name="Path 81" d="M2424.984,581.522c-3.127-3.781-5.994-7.515-7.581-12.046a7.964,7.964,0,1,1,15.506-2.254,10.987,10.987,0,0,1-.921,3.539,41.079,41.079,0,0,1-6.659,10.278C2425.227,581.162,2425.142,581.3,2424.984,581.522Zm-.082-2.01a38.884,38.884,0,0,0,6.263-9.883,7.1,7.1,0,0,0,.5-3.61,6.785,6.785,0,0,0-8.327-5.644,6.686,6.686,0,0,0-4.78,8.7C2419.872,573.014,2422.393,576.226,2424.9,579.512Z" transform="translate(-2416.957 -558.969)"/>
    <path id="Path_82" data-name="Path 82" d="M2459.028,598.076a3.078,3.078,0,1,1-3.052-3.117A3.067,3.067,0,0,1,2459.028,598.076Zm-1.236,0a1.843,1.843,0,1,0-1.9,1.8A1.81,1.81,0,0,0,2457.792,598.071Z" transform="translate(-2447.961 -590.038)"/>
  </g>
</svg>
