<svg xmlns="http://www.w3.org/2000/svg" width="57.32" height="58.644" viewBox="0 0 57.32 58.644"><defs><style>.a{fill:#040403;}.b{fill:#f36924;}.c{fill:#fcda0f;}.d{fill:#f1f1f1;}.e{fill:#fd3535;}.f{fill:#fd8973;}.g{fill:#9fb6ff;}.h{fill:#f0f0f0;}.i{fill:#fa3434;}.j{fill:#845a45;}.k{fill:#f0ad6c;}.l{fill:#040602;}.m{fill:#6150ff;}.n{fill:#fff;font-size:11px;font-family:SFProDisplay-Regular, SF Pro Display;}</style></defs><g transform="translate(-352.84 -489.566)"><path class="a" d="M359.227,548.21h-1.148a6.845,6.845,0,0,0-1.772-.222c-2.253-.283-3.327-1.315-3.355-3.37-.057-4.18-.139-8.36-.1-12.539.035-4.1.419-8.2.477-12.3a26.848,26.848,0,0,1,.511-4.832c.71-3.593,2.245-6.617,5.837-8.13a2.693,2.693,0,0,0,1.849-3.179,25.725,25.725,0,0,1-.157-5.6,1.385,1.385,0,0,0-.563-1.244,1.32,1.32,0,0,1,.174-2.314,3.52,3.52,0,0,1,.721-.34,7.771,7.771,0,0,1,3.791-.274,4.9,4.9,0,0,1,2.219.86,1.661,1.661,0,0,1,.164,2.664c-.22.21-.472.388-.71.578-.12.1-.247.181-.217.368.243,1.53.144,3.087.347,4.62a2.516,2.516,0,0,0,1.278,2.1,8.049,8.049,0,0,1,3.054,2.3c0-.269,0-.358,0-.447-.051-2.767.147-5.532.076-8.3-.027-1.066-.06-2.134-.062-3.2,0-.683.161-1.426.881-1.578,1.393-.295,1.575-1.125,1.418-2.334-.1-.8.3-1.193,1.115-1.3.966-.125,1.936-.218,2.907-.307,1.8-.164,3.594.036,5.39-.019,3.173-.1,6.345-.275,9.518-.3,4.226-.039,8.453.032,12.679.057a5.573,5.573,0,0,1,1.749.253,1.143,1.143,0,0,1,.854,1.083,15.026,15.026,0,0,1-.025,1.773c-.02.881-.026.881.789,1.157,1.1.373,1.363.793,1.207,1.923-.06.434-.13.869-.161,1.305-.174,2.422-.1,4.845-.051,7.269.145,6.547.18,13.091-.238,19.633a46.211,46.211,0,0,0-.074,6.979,21.86,21.86,0,0,1,.108,3.431c-.077,1.1-.47,1.551-1.558,1.693a7.967,7.967,0,0,1-1.431.019c-.32-.016-.448.053-.4.4a3.181,3.181,0,0,1-1.56,3.2c-1.791,1.236-3.591,2.463-5.325,3.775a4.008,4.008,0,0,1-4.206.466c-.871-.343-1.705-.761-2.539-1.181-.272-.137-.38-.151-.414.213a7.727,7.727,0,0,1-.453,2.117,2.858,2.858,0,0,1-2.461,1.94,40.864,40.864,0,0,1-8.36.067,3.241,3.241,0,0,1-3.261-3.083,15.611,15.611,0,0,1-.135-1.826c-.018-1.507,0-3.016,0-4.523,0-.227.063-.446-.332-.39a14.132,14.132,0,0,1-2.974-.078c-.427-.03-.494.074-.525.454-.2,2.49-.4,4.981-.752,7.457a2.88,2.88,0,0,1-2.719,2.887c-.244.048-.536-.089-.737.158H359.8A.348.348,0,0,0,359.227,548.21ZM386.544,507.6a4.9,4.9,0,0,1-3.137-3.266,13.655,13.655,0,0,1-.494-5.827,2.951,2.951,0,0,1,.454-1.4,1.375,1.375,0,0,1,1.361-.677c.58.079.808.52.934,1.028a5.364,5.364,0,0,1,.024,1.935,9.278,9.278,0,0,0-.053,1.6,4.465,4.465,0,0,0,3.033,4.233.905.905,0,0,0,1.292-.6,1.865,1.865,0,0,0,.11-.9c-.036-.4-.067-.8-.078-1.2-.034-1.275.283-1.626,1.57-1.726.381-.03.765-.02,1.147-.018.937.005,1.875,0,2.812.033.331.011.481-.05.482-.42,0-.686.057-1.372.078-2.059a2.345,2.345,0,0,1,.431-1.4,1.277,1.277,0,0,1,1.272-.609,1.177,1.177,0,0,1,.93,1.04,7.536,7.536,0,0,1,.057,2.451c-.088.975-.1.974.852.963.9-.01,1.254.3,1.3,1.212a14.038,14.038,0,0,1-.1,2.286.644.644,0,0,0,.191.664,40.53,40.53,0,0,1,3.918,3.931,3.643,3.643,0,0,1,.923,2.172c.124,1.542.167,3.087.215,4.632.183,5.974-.006,11.948.024,17.923.008,1.554-.124,1.19,1.262,1.212,1.017.016,1.046-.025.956-1.034a72.3,72.3,0,0,1,.082-10.926c.307-4.936.468-9.874.387-14.823-.062-3.777-.345-7.555-.054-11.334.1-1.312.1-1.278-1.205-1.325-6.119-.219-12.239.051-18.36-.057-4.987-.087-9.983-.166-14.971.184-1.267.089-1.309.017-1.28,1.293a112.792,112.792,0,0,1-.143,11.733,1,1,0,0,0,.129.6,13.277,13.277,0,0,1,1.579,6.316c.116,3.782-.108,7.557-.267,11.333-.123,2.918-.194,5.837-.3,8.756-.01.283.04.409.368.394.955-.044,1.91.053,2.868,0,.409-.021.506-.137.5-.522-.026-3.109.412-6.208.161-9.325-.092-1.138.389-1.651,1.518-1.949a7.675,7.675,0,0,1,2.051-.172c.314,0,.481,0,.395-.426a12.329,12.329,0,0,1-.2-2.45c0-1.717.338-2.052,2.058-1.955.4.023.527-.042.5-.47-.167-2.268.069-4.541-.061-6.811a4.05,4.05,0,0,1,1.636-3.545C385.971,508.094,386.229,507.869,386.544,507.6Zm-23.222,39.143c.459,0,.918.01,1.377,0,1.643-.044,3.291.091,4.928-.1,1.386-.164,1.782-.6,2-1.979a72.2,72.2,0,0,0,.772-7.85c.2-4.1.345-8.195.507-12.292.056-1.411.093-2.822.139-4.233a35.3,35.3,0,0,0-.169-6.967c-.521-3.139-1.949-5.682-4.961-7.1a3.067,3.067,0,0,1-1.814-2.341c-.339-1.787-.213-3.612-.436-5.409a1.326,1.326,0,0,1,.924-1.527.736.736,0,0,0,.234-1.263,2.04,2.04,0,0,0-1.125-.643,8.041,8.041,0,0,0-3.464.14c-.357.083-.75.217-.781.648s.318.623.683.732a1.207,1.207,0,0,1,.872,1.262,3.593,3.593,0,0,1-.02.8,19.168,19.168,0,0,0-.155,5.306,3.557,3.557,0,0,1-2.4,4,7.142,7.142,0,0,0-.8.438,8.427,8.427,0,0,0-3.84,4.673,19.474,19.474,0,0,0-.814,3.735c-.234,1.76-.3,3.532-.381,5.3-.189,3.924-.523,7.843-.506,11.773.012,2.784.144,5.568.232,8.352a21.067,21.067,0,0,0,.067,2.572,1.8,1.8,0,0,0,1.34,1.608,5.549,5.549,0,0,0,1.119.232C359,546.8,361.163,546.709,363.322,546.747Zm41.449-29.708h-.042c0-.305.012-.611,0-.916-.072-1.6.022-3.2-.141-4.8-.034-.333-.114-.391-.406-.215a2.24,2.24,0,0,0-1.255,2.029,7.291,7.291,0,0,1-.205,2.044,4.279,4.279,0,0,1-3.3,3.422,5.184,5.184,0,0,1-2.814-.319c-.417-.15-.451-.03-.432.32.03.571.026,1.145.057,1.716.241,4.362.479,8.724.337,13.1a59.329,59.329,0,0,0-.036,6.806q.087,1.054.115,2.114c.02.737.262.927.991.692a2.509,2.509,0,0,0,.712-.36c1.551-1.144,3.089-2.3,4.639-3.45.2-.149.2-.271.094-.473a1.587,1.587,0,0,0-1.467-.831c-.572-.029-1.147,0-1.72-.018a2.8,2.8,0,0,1-2.075-.948,2.323,2.323,0,0,1,.95-3.872c.2-.072.4-.132.595-.2a2.16,2.16,0,0,0,1.253-2.549c-.163-.466-.356-.923-.54-1.382a4.9,4.9,0,0,1,2.361-6.137,2.63,2.63,0,0,1,1.931-.344c.428.1.406-.085.4-.384C404.767,520.4,404.772,518.718,404.772,517.039Zm-9.388,25.629c0-.216-.005-.343,0-.469.093-1.947-.151-3.89-.063-5.837.071-1.563.124-3.128.15-4.692.065-4.011-.3-8.008-.429-12.012-.011-.342-.083-.367-.391-.232a2.744,2.744,0,0,1-3.306-.609,12.081,12.081,0,0,0-1.008-.933,4.111,4.111,0,0,0-4.659-.471.646.646,0,0,0-.389.567c-.067,1.13-.081,1.13,1.042,1.13h.057c1.875.006,2.424.645,2.173,2.52a13.873,13.873,0,0,0-.1,2.112c.008.4.16.5.535.539a11.755,11.755,0,0,1,1.742.319,2.194,2.194,0,0,1,1.9,2.416c-.015,2.386.047,4.77.107,7.155a67.2,67.2,0,0,1-.256,6.747c-.014.181-.1.382.143.494C393.527,541.817,394.422,542.228,395.384,542.667Zm-10.908-3.142c2.083-.032,4.167-.021,6.243-.249.3-.033.531-.04.546-.466.069-1.907.156-3.812.133-5.721,0-.381.123-.865-.062-1.118-.241-.329-.732-.012-1.114-.008-2.064.021-4.129.048-6.191.141a20.323,20.323,0,0,1-4.571-.166c-.513-.093-.606.074-.6.541q.022,3.32-.017,6.64c-.005.431.166.5.534.5C381.075,539.63,382.777,539.64,384.476,539.526Zm21.075-48.536c-2.05-.332-27.221-.016-29.154.234.365.287.727.528,1.036.824a.854.854,0,0,1-.254,1.546,5.747,5.747,0,0,1-.7.25c-.466.152-.935.3-1.4.446,10.02-.442,20.031.169,30.152-.266-.2-.106-.291-.157-.385-.207-1.053-.553-1.15-1.319-.252-2.1C404.886,491.454,405.217,491.239,405.551,490.99ZM385.167,531.22c1.968-.053,3.935-.114,5.9-.15.287-.005.3-.126.3-.343-.014-1.145-.015-2.29-.035-3.435a1.507,1.507,0,0,0-1.174-1.557,9,9,0,0,0-2.414-.437c-2.235-.054-4.473.1-6.706-.116a3.579,3.579,0,0,0-1.363.138c-.28.083-.517.2-.529.575q-.08,2.488-.2,4.975c-.015.3.059.387.368.39C381.268,531.274,383.218,531.31,385.167,531.22Zm-.921,14.7c1.723,0,2.928.033,4.13-.009a2.286,2.286,0,0,0,2.452-1.885,15.627,15.627,0,0,0,.355-3.631c.01-.224-.064-.287-.3-.274-1.754.094-3.509.2-5.265.247a54.284,54.284,0,0,1-6.47-.021c-.307-.029-.306.095-.3.307.043,1.1.055,2.212.131,3.315a1.765,1.765,0,0,0,1.773,1.871A28,28,0,0,0,384.246,545.915Zm20.55-20.009c0-.134,0-.267,0-.4q0-.715,0-1.431c0-.867-.243-1.048-1.108-.876a4,4,0,0,0-2.634,2.119,3.232,3.232,0,0,0-.407,2.414c.191.922.607,1.763.856,2.662a2.429,2.429,0,0,1-1.716,3.313c-.27.094-.539.192-.8.3a1.773,1.773,0,0,0-1.064,1.621c.011.573.417,1.01,1.142,1.272a4.219,4.219,0,0,0,2.092.179,2.34,2.34,0,0,1,2.631,1.142c.126.213.224.2.375.032a2.292,2.292,0,0,0,.652-1.541c0-1.144-.056-2.285-.1-3.427C404.625,530.823,404.732,528.364,404.8,525.906Zm-19.41-9.31c.2.056.3-.055.415-.108a4.151,4.151,0,0,1,2.272-.406,5.972,5.972,0,0,1,3.45,1.763,3.214,3.214,0,0,0,1.648.978c.784.137,1.755-.406,1.764-1.065.024-1.7.106-3.389.236-5.08.024-.316-.1-.4-.4-.471-1.175-.283-2.385-.283-3.567-.482a38.882,38.882,0,0,1-5.079-1.118c-.4-.125-.53.009-.556.358-.042.55-.05,1.1-.1,1.653C385.333,513.948,385.435,515.278,385.385,516.6Zm9.871-5.335c.322.083.668-.275.9-.7a39.8,39.8,0,0,0,2.581-4.51c.174-.441.2-.613-.341-.567-1.734.149-3.474.057-5.209.13a7.479,7.479,0,0,1-1.991,0,.456.456,0,0,0-.405.16q-2.158,1.831-4.322,3.656c-.14.119-.371.23-.329.431s.3.183.482.213c1.09.174,2.177.368,3.271.516C391.593,510.818,393.294,511.016,395.256,511.261Zm.929,3.769c0,.4,0,.669,0,.936,0,1.476,0,1.471,1.437,1.854a2.986,2.986,0,0,0,3.288-.855,4.831,4.831,0,0,0,1.142-2.987,5.155,5.155,0,0,1,.484-2.269c.075-.137.274-.293.128-.449-.127-.136-.321,0-.486.03-1.852.354-3.7.732-5.562,1.032-.455.073-.617.194-.527.617A12.648,12.648,0,0,1,396.185,515.029Zm-.755-10.6c1.3,0,2.6,0,3.893,0,.191,0,.278-.053.293-.249.043-.588.1-1.176.147-1.764.023-.269-.039-.41-.368-.406-2.559.033-5.119.065-7.677-.011-.359-.011-.512.1-.449.491a7.9,7.9,0,0,1,.107,1.994c-.028.3.118.288.338.264C392.949,504.613,394.187,504.516,395.43,504.424Zm1.265,6.989c1.178-.2,2.228-.366,3.273-.555,1.237-.224,2.471-.468,3.707-.7.409-.078.521-.257.216-.6-.268-.3-.5-.63-.792-.9-.878-.822-1.792-1.6-2.657-2.439-.345-.333-.455-.23-.618.137A21.277,21.277,0,0,1,397.676,510C397.369,510.432,397.071,510.871,396.7,511.413Zm-11.579,12.6v.054c.592,0,1.185-.009,1.777,0,.239.005.342-.055.337-.315a18.7,18.7,0,0,1,.1-2.628c.066-.546-.157-.749-.694-.742q-1.547.018-3.094-.027c-.674-.021-.764.022-.732.71.041.876.128,1.749.177,2.624.014.255.127.325.357.323C383.931,524.008,384.524,524.013,385.116,524.013Zm3.218-17.9a5.124,5.124,0,0,1-3.507-4.836,13.927,13.927,0,0,1,.094-2.679c.063-.382.116-.836-.478-.92-.536-.076-.738.11-.764.778a20.011,20.011,0,0,0,.585,5.545,3.543,3.543,0,0,0,2.384,2.637A1.28,1.28,0,0,0,388.334,506.109Zm9.049-5.262c.06-.02.364.161.4-.156.089-.828.167-1.66.186-2.491.007-.315-.028-.812-.447-.81s-.472.488-.519.834c-.1.713-.137,1.434-.23,2.148C396.718,500.78,396.853,500.948,397.383,500.847Zm9.809-9.3-1.655,1.169a6.871,6.871,0,0,0,1.56.6C407.128,492.736,407.156,492.209,407.192,491.549Zm-32.352.12c-.133,1.438-.095,1.472,1.159,1.113.084-.024.2-.006.231-.165A11.339,11.339,0,0,0,374.84,491.669Z" transform="translate(0 0)"/><path class="b" d="M496.748,539.012c-.315.265-.572.49-.839.7a4.05,4.05,0,0,0-1.635,3.545c.13,2.271-.105,4.543.061,6.812.031.429-.1.493-.5.47-1.721-.1-2.057.237-2.058,1.955a12.33,12.33,0,0,0,.2,2.45c.086.426-.08.429-.395.426a7.666,7.666,0,0,0-2.051.171c-1.129.3-1.61.81-1.518,1.949.251,3.117-.187,6.216-.161,9.325,0,.385-.093.5-.5.522-.958.05-1.913-.047-2.868,0-.328.015-.378-.111-.368-.394.1-2.919.174-5.838.3-8.756.159-3.776.383-7.551.267-11.333a13.276,13.276,0,0,0-1.579-6.316,1,1,0,0,1-.129-.6,112.783,112.783,0,0,0,.143-11.733c-.029-1.276.014-1.2,1.28-1.293,4.988-.351,9.983-.272,14.971-.185,6.121.107,12.241-.162,18.36.057,1.308.047,1.306.014,1.205,1.325-.291,3.779-.008,7.557.054,11.334.081,4.948-.08,9.887-.387,14.823a72.3,72.3,0,0,0-.082,10.926c.09,1.009.061,1.05-.956,1.034-1.386-.023-1.254.342-1.262-1.212-.03-5.974.158-11.948-.025-17.923-.047-1.546-.09-3.09-.215-4.632a3.642,3.642,0,0,0-.923-2.172,40.533,40.533,0,0,0-3.918-3.931.644.644,0,0,1-.191-.664,14.034,14.034,0,0,0,.1-2.286c-.046-.909-.4-1.222-1.3-1.212-.95.011-.94.011-.852-.963a7.536,7.536,0,0,0-.057-2.451,1.177,1.177,0,0,0-.93-1.04,1.277,1.277,0,0,0-1.272.609,2.346,2.346,0,0,0-.431,1.4c-.021.687-.077,1.372-.078,2.059,0,.37-.151.431-.482.42-.937-.031-1.874-.028-2.812-.033-.382,0-.766-.012-1.147.018-1.288.1-1.6.451-1.57,1.726.011.4.042.8.078,1.2a1.865,1.865,0,0,1-.11.9.905.905,0,0,1-1.292.6,4.465,4.465,0,0,1-3.033-4.233,9.28,9.28,0,0,1,.053-1.6,5.365,5.365,0,0,0-.024-1.935c-.126-.508-.355-.95-.934-1.028a1.375,1.375,0,0,0-1.361.677,2.951,2.951,0,0,0-.454,1.4,13.656,13.656,0,0,0,.494,5.827A4.9,4.9,0,0,0,496.748,539.012Z" transform="translate(-110.204 -31.408)"/><path class="c" d="M370.214,576.326c-2.159-.038-4.321.056-6.477-.128a5.54,5.54,0,0,1-1.119-.232,1.8,1.8,0,0,1-1.34-1.607,21.056,21.056,0,0,1-.067-2.572c-.088-2.784-.22-5.568-.232-8.352-.017-3.93.318-7.849.507-11.773.085-1.772.148-3.543.381-5.3a19.468,19.468,0,0,1,.814-3.735,8.426,8.426,0,0,1,3.84-4.673,7.153,7.153,0,0,1,.8-.438,3.556,3.556,0,0,0,2.4-4,19.17,19.17,0,0,1,.155-5.306,3.589,3.589,0,0,0,.02-.8,1.207,1.207,0,0,0-.872-1.262c-.365-.109-.715-.3-.683-.732s.424-.565.781-.648a8.042,8.042,0,0,1,3.464-.14,2.04,2.04,0,0,1,1.125.643.736.736,0,0,1-.234,1.263,1.326,1.326,0,0,0-.924,1.527c.223,1.8.1,3.622.436,5.409a3.067,3.067,0,0,0,1.814,2.341c3.013,1.413,4.44,3.957,4.961,7.1a35.31,35.31,0,0,1,.169,6.967c-.046,1.411-.083,2.822-.139,4.232-.162,4.1-.306,8.2-.507,12.293a72.209,72.209,0,0,1-.772,7.849c-.22,1.38-.616,1.815-2,1.979-1.637.194-3.285.059-4.928.1C371.132,576.336,370.673,576.326,370.214,576.326Zm7.273-19.3a30.99,30.99,0,0,0-.137-3.814,9.468,9.468,0,0,0-1.038-3.893,3.55,3.55,0,0,0-2.754-1.918,11.608,11.608,0,0,0-2.907.162,5.734,5.734,0,0,0-5.008,4.183,31.458,31.458,0,0,0-.647,10.8,3.582,3.582,0,0,0,3.175,3.535,18.027,18.027,0,0,0,5.88-.159c2.137-.4,2.97-1.357,3.213-3.5A47.245,47.245,0,0,0,377.487,557.022Z" transform="translate(-6.892 -29.579)"/><path class="d" d="M644.448,635.641c0,1.679,0,3.358,0,5.037,0,.3.023.481-.4.384a2.629,2.629,0,0,0-1.931.344,4.9,4.9,0,0,0-2.361,6.137c.184.459.377.915.54,1.382a2.16,2.16,0,0,1-1.253,2.549c-.2.072-.4.131-.595.2a2.323,2.323,0,0,0-.95,3.873,2.8,2.8,0,0,0,2.075.948c.573.02,1.148-.011,1.72.018a1.587,1.587,0,0,1,1.467.831c.1.2.108.324-.094.473-1.55,1.145-3.088,2.306-4.639,3.45a2.516,2.516,0,0,1-.712.36c-.729.235-.971.044-.991-.692q-.029-1.058-.115-2.113a59.341,59.341,0,0,1,.036-6.806c.142-4.373-.1-8.735-.337-13.1-.032-.571-.027-1.145-.057-1.716-.019-.35.015-.47.432-.32a5.184,5.184,0,0,0,2.814.319,4.279,4.279,0,0,0,3.3-3.422,7.3,7.3,0,0,0,.205-2.044,2.24,2.24,0,0,1,1.255-2.029c.292-.176.372-.118.406.215.163,1.6.069,3.2.141,4.8.014.3,0,.611,0,.916Z" transform="translate(-239.676 -118.602)"/><path class="d" d="M574.731,693.822c-.962-.439-1.857-.85-2.754-1.257-.246-.112-.157-.313-.143-.494a67.2,67.2,0,0,0,.256-6.747c-.06-2.385-.122-4.769-.107-7.155a2.194,2.194,0,0,0-1.9-2.416,11.762,11.762,0,0,0-1.742-.319c-.375-.038-.527-.139-.535-.539a13.857,13.857,0,0,1,.1-2.112c.251-1.875-.3-2.513-2.173-2.52h-.057c-1.123,0-1.108,0-1.042-1.13a.645.645,0,0,1,.388-.567,4.112,4.112,0,0,1,4.659.471,12.058,12.058,0,0,1,1.008.933,2.744,2.744,0,0,0,3.306.609c.308-.135.38-.111.391.232.133,4,.494,8,.429,12.012-.025,1.564-.079,3.129-.15,4.692-.088,1.948.156,3.89.063,5.837C574.725,693.479,574.731,693.606,574.731,693.822Z" transform="translate(-179.347 -151.154)"/><path class="e" d="M528.286,773.259c-1.7.115-3.4.1-5.1.092-.368,0-.539-.068-.534-.5q.041-3.319.017-6.64c0-.467.091-.634.6-.541a20.319,20.319,0,0,0,4.571.166c2.062-.093,4.127-.12,6.191-.141.383,0,.874-.321,1.114.009.185.253.057.737.061,1.118.023,1.909-.064,3.815-.133,5.721-.015.427-.246.433-.546.466C532.453,773.237,530.369,773.226,528.286,773.259Z" transform="translate(-143.81 -233.733)"/><path class="b" d="M528.55,498.071c-.334.249-.665.465-.959.722-.9.786-.8,1.552.252,2.1.094.049.188.1.385.206-10.121.436-20.132-.176-30.152.266.468-.148.936-.295,1.4-.446a5.757,5.757,0,0,0,.7-.25.854.854,0,0,0,.254-1.546c-.309-.3-.672-.537-1.036-.824C501.328,498.054,526.5,497.738,528.55,498.071Z" transform="translate(-122.999 -7.081)"/><path class="f" d="M529.575,728.147c-1.949.09-3.9.054-5.85.041-.309,0-.383-.091-.368-.39q.12-2.487.2-4.975c.012-.374.249-.491.529-.575a3.576,3.576,0,0,1,1.363-.138c2.233.215,4.471.062,6.706.116a9,9,0,0,1,2.414.437,1.507,1.507,0,0,1,1.174,1.557c.02,1.145.02,2.29.035,3.435,0,.216-.015.337-.3.343C533.511,728.033,531.543,728.094,529.575,728.147Z" transform="translate(-144.408 -196.927)"/><path class="f" d="M528.126,825.518a28.025,28.025,0,0,1-3.488-.081,1.765,1.765,0,0,1-1.773-1.871c-.076-1.1-.088-2.21-.131-3.315-.008-.212-.009-.335.3-.307a54.3,54.3,0,0,0,6.47.021c1.756-.045,3.51-.153,5.265-.247.234-.013.308.05.3.274a15.632,15.632,0,0,1-.355,3.631,2.285,2.285,0,0,1-2.452,1.885C531.054,825.551,529.849,825.518,528.126,825.518Z" transform="translate(-143.88 -279.603)"/><path class="g" d="M654.112,711.616c-.064,2.458-.171,4.917-.085,7.375.04,1.142.1,2.284.1,3.427a2.292,2.292,0,0,1-.652,1.541c-.151.172-.25.181-.375-.032a2.34,2.34,0,0,0-2.631-1.142,4.22,4.22,0,0,1-2.092-.179c-.725-.262-1.131-.7-1.142-1.272a1.773,1.773,0,0,1,1.064-1.621c.265-.107.534-.2.8-.3a2.429,2.429,0,0,0,1.716-3.313c-.248-.9-.665-1.739-.856-2.662a3.232,3.232,0,0,1,.407-2.414A4,4,0,0,1,653,708.908c.865-.172,1.1.009,1.108.876q0,.715,0,1.431C654.112,711.349,654.112,711.482,654.112,711.616Z" transform="translate(-249.316 -185.71)"/><path class="g" d="M565.405,632.73c.049-1.318-.053-2.648.078-3.978.054-.549.062-1.1.1-1.652.027-.348.154-.482.556-.358a38.887,38.887,0,0,0,5.079,1.118c1.182.2,2.392.2,3.567.482.3.073.423.155.4.471-.13,1.691-.213,3.383-.236,5.08-.009.659-.98,1.2-1.764,1.065a3.213,3.213,0,0,1-1.648-.978,5.972,5.972,0,0,0-3.45-1.763,4.152,4.152,0,0,0-2.272.406C565.7,632.676,565.6,632.786,565.405,632.73Z" transform="translate(-180.02 -116.135)"/><path class="g" d="M579.435,599.275c-1.962-.244-3.663-.443-5.361-.672-1.094-.148-2.181-.342-3.271-.516-.182-.029-.436,0-.482-.213s.188-.312.328-.431q2.158-1.831,4.322-3.656a.455.455,0,0,1,.405-.16,7.474,7.474,0,0,0,1.991,0c1.735-.072,3.476.02,5.209-.129.54-.047.516.126.341.567a39.8,39.8,0,0,1-2.581,4.51C580.1,599,579.756,599.357,579.435,599.275Z" transform="translate(-184.179 -88.014)"/><path class="g" d="M635.27,634.7a12.657,12.657,0,0,0-.1-2.09c-.09-.424.072-.544.527-.617,1.861-.3,3.71-.678,5.562-1.032.166-.032.36-.166.486-.03.146.157-.053.313-.128.449a5.153,5.153,0,0,0-.484,2.269A4.831,4.831,0,0,1,640,636.632a2.986,2.986,0,0,1-3.288.855c-1.437-.383-1.439-.378-1.437-1.854C635.271,635.366,635.27,635.1,635.27,634.7Z" transform="translate(-239.086 -119.667)"/><path class="h" d="M607.917,573.192c-1.243.092-2.481.189-3.715.323-.22.024-.366.039-.338-.264a7.9,7.9,0,0,0-.107-1.994c-.064-.39.09-.5.449-.491,2.559.076,5.118.043,7.677.011.329,0,.391.137.368.406-.051.588-.1,1.175-.147,1.764-.014.2-.1.25-.293.249C610.513,573.188,609.215,573.192,607.917,573.192Z" transform="translate(-212.487 -68.767)"/><path class="g" d="M639.275,602.406c.375-.543.674-.982.98-1.415a21.281,21.281,0,0,0,2.148-3.644c.162-.367.272-.471.618-.137.865.834,1.78,1.617,2.657,2.439.291.272.525.6.792.9.306.34.193.519-.216.6-1.235.235-2.47.478-3.707.7C641.5,602.04,640.453,602.207,639.275,602.406Z" transform="translate(-242.579 -90.992)"/><path class="i" d="M550.834,694.318c-.592,0-1.185,0-1.777,0-.23,0-.343-.068-.357-.323-.049-.875-.136-1.748-.177-2.624-.032-.688.059-.73.732-.71q1.546.047,3.094.027c.537-.006.76.2.694.743a18.707,18.707,0,0,0-.1,2.628c.006.26-.1.321-.337.315-.592-.014-1.185,0-1.777,0Z" transform="translate(-165.718 -170.306)"/><path class="j" d="M558.835,550.871a1.28,1.28,0,0,1-1.686.525,3.543,3.543,0,0,1-2.384-2.637,20.007,20.007,0,0,1-.585-5.545c.026-.669.228-.854.764-.778.594.084.541.538.478.92a13.921,13.921,0,0,0-.094,2.679A5.124,5.124,0,0,0,558.835,550.871Z" transform="translate(-170.501 -44.762)"/><path class="j" d="M640.32,544.127c-.529.1-.665-.067-.612-.475.092-.714.133-1.434.23-2.148.047-.346.095-.832.519-.834s.454.5.447.81c-.019.831-.1,1.663-.186,2.491C640.683,544.287,640.38,544.107,640.32,544.127Z" transform="translate(-242.937 -43.28)"/><path class="k" d="M698.676,502.521c-.036.66-.064,1.187-.1,1.769a6.869,6.869,0,0,1-1.56-.6Z" transform="translate(-291.484 -10.972)"/><path class="k" d="M496.241,503.3a11.33,11.33,0,0,1,1.39.948c-.033.159-.147.141-.231.165C496.146,504.776,496.108,504.742,496.241,503.3Z" transform="translate(-121.401 -11.635)"/><g transform="matrix(0.999, 0.035, -0.035, 0.999, 355.927, 507.287)"><path class="l" d="M402.051,693.192c0,3.86-.036,7.341-.284,10.8-.308,4.3-1.364,6.218-4.074,7.023a14.633,14.633,0,0,1-7.457.32c-2.322-.522-3.758-2.976-4.027-7.086a98.934,98.934,0,0,1,.821-21.647c.7-4.493,3.209-7.755,6.351-8.387a9.438,9.438,0,0,1,3.687-.325c1.6.313,2.715,1.69,3.493,3.846a28.046,28.046,0,0,1,1.316,7.8C402.037,688.213,402.1,690.89,402.051,693.192Zm-1.233-2.055c0-1.415.03-2.832-.009-4.244-.04-1.449-.074-2.9-.208-4.344-.389-4.192-1.557-6.312-3.916-6.894a6.024,6.024,0,0,0-3.112.166c-3.708,1.048-5.454,3.885-5.964,9.768-.312,3.6-.414,7.235-.541,10.861a47.233,47.233,0,0,0,.415,8.32q.6,4.188,3.257,4.818a14.206,14.206,0,0,0,6.73-.4c2.02-.5,2.907-2.178,3.1-5.449C400.809,699.55,400.984,695.351,400.818,691.137Z" transform="translate(-385.965 -673.808)"/><path class="m" d="M405.738,695.81c.172,4.432-.009,8.848-.26,13.256-.2,3.441-1.114,5.207-3.2,5.732a14.46,14.46,0,0,1-6.962.42q-2.753-.661-3.369-5.068a50.5,50.5,0,0,1-.43-8.75c.131-3.814.237-7.635.56-11.423.527-6.188,2.334-9.171,6.169-10.274a6.127,6.127,0,0,1,3.219-.175c2.44.612,3.648,2.842,4.051,7.251.139,1.519.174,3.044.215,4.568C405.77,692.832,405.738,694.322,405.738,695.81Z" transform="translate(-390.637 -678.53)"/></g><text class="n" transform="translate(366.874 542.552) rotate(-90)"><tspan x="0" y="0">Design</tspan></text></g></svg>