<svg xmlns="http://www.w3.org/2000/svg" width="47.126" height="45.198" viewBox="0 0 47.126 45.198"><defs><style>.a{fill:#fff;}</style></defs><path class="a" d="M150.272,362.368a1.231,1.231,0,0,1-1.29.744q-22.274-.015-44.547-.011a2.079,2.079,0,0,1-.675-.087.959.959,0,0,1,.26-1.849c.333-.025.67,0,1.055,0,.011-.221.027-.4.027-.574q0-4.465,0-8.929a2.011,2.011,0,0,1,2.28-2.291q3.659,0,7.317,0a1.963,1.963,0,0,1,2.183,2.19q0,4.488,0,8.975v.58h3.935v-.539c0-6.9.019-13.808-.018-20.711a2.137,2.137,0,0,1,2.3-2.3c2.407.062,4.816.016,7.225.017a2,2,0,0,1,2.27,2.3q0,10.333,0,20.665v.575h3.935v-.6c0-5.569.027-11.138-.017-16.707a2.14,2.14,0,0,1,2.323-2.327c2.407.048,4.817.012,7.225.014a2.017,2.017,0,0,1,2.251,2.244q0,8.377,0,16.753v.64c.736.045,1.546-.16,1.956.684Zm-27.471-1.29h7.813V339.56H122.8ZM138.515,343.5v17.573h7.8V343.5ZM114.9,351.348h-7.78v9.746h7.78Z" transform="translate(-103.146 -317.914)"/><path class="a" d="M170.871,179.732c-1.821,0-3.522,0-5.223,0-.735,0-1.165-.343-1.194-.929a.978.978,0,0,1,1.075-1.045c.782-.015,1.564,0,2.346,0l5.29-.014a1.024,1.024,0,0,1,1.1,1.082q-.008,3.749-.019,7.5c0,.107,0,.215-.007.322a.97.97,0,0,1-1.94-.011c-.023-.72-.008-1.441-.008-2.162,0-1.073,0-2.146,0-3.33-.175.164-.291.266-.4.375q-4.734,4.733-9.46,9.474a1.419,1.419,0,0,1-1.526.409c-4.791-1.218-9.589-2.406-14.383-3.614a.693.693,0,0,0-.759.214q-4.442,4.472-8.916,8.912a1.392,1.392,0,0,1-.85.453,1.346,1.346,0,0,1-.862-.476.82.82,0,0,1,.035-1.028,2.892,2.892,0,0,1,.341-.372q4.683-4.686,9.362-9.377a1.352,1.352,0,0,1,1.444-.4c4.78,1.21,9.566,2.393,14.346,3.6a.826.826,0,0,0,.916-.253q4.422-4.459,8.873-8.89C170.568,180.059,170.678,179.937,170.871,179.732Z" transform="translate(-131.057 -177.739)"/></svg>