<svg xmlns="http://www.w3.org/2000/svg" width="49.585" height="52.92" viewBox="0 0 49.585 52.92"><defs><style>.a{fill:#050505;}.b{fill:#f2f2f2;}.c{fill:#efefef;}.d{fill:#ededed;}.e{fill:#060604;}.f{fill:#070707;}.g{fill:#060606;}.h{fill:#080808;}.i{fill:#6150ff;}.j{fill:#fcda0f;}.k{fill:#f36924;}.l{fill:#f93434;}.m{fill:#ec409a;}.n{fill:#6dca7e;}.o{fill:#008be1;}</style></defs><g transform="translate(0)"><path class="a" d="M-388.789,389.823a5.2,5.2,0,0,1,1.7-.18c5.323-.376,10.66-.43,15.99-.651a35.353,35.353,0,0,0,6.75-.816c1.719-.409,2.344-1.149,2.3-2.911-.135-5.282-.025-10.568-.346-15.847-.213-3.5-.385-7.011-.681-10.509-.226-2.674-.519-5.342-.752-8.016-.151-1.731-.236-3.468-.374-5.2a21.129,21.129,0,0,0-.558-3.405,6.066,6.066,0,0,0-5.31-4.842,36.169,36.169,0,0,0-8.641-.458,176.705,176.705,0,0,1-20.173.243,20.97,20.97,0,0,0-7.405.747,5.868,5.868,0,0,0-3.51,2.191,10.712,10.712,0,0,0-1.143,9.763,4.8,4.8,0,0,0,4.431,3.231,26.229,26.229,0,0,0,3.97-.011c.319-.014.438.042.437.4-.008,5.9.066,11.81-.232,17.71-.209,4.126-.466,8.249-.387,12.384.02,1.068.088,2.132.21,3.193.223,1.939.981,2.652,2.989,2.767,1.117.064,2.236.075,3.354.122.155.006.344-.093.468.094h5.371a.39.39,0,0,1,.516,0Zm-15.47-51.106a5.52,5.52,0,0,1,1.553-.218c3.579.114,7.156.064,10.736-.013,4.163-.09,8.328,0,12.491-.183a46.255,46.255,0,0,1,9.521.488,4.525,4.525,0,0,1,3.881,3.309,11.641,11.641,0,0,1,.428,1.8c.279,1.909.355,3.836.531,5.755.527,5.739,1.114,11.471,1.377,17.234.276,6.036.386,12.075.442,18.116.013,1.425-.487,1.978-1.9,2.12-2.756.277-5.516.511-8.284.636-2.7.121-5.4.251-8.1.363-3.661.152-7.316.516-10.985.438-2.27-.049-4.544,0-6.808-.187a1.916,1.916,0,0,1-2.01-2.139c-.053-1.444-.1-2.89-.107-4.335-.021-3.651.209-7.294.41-10.937.288-5.229.168-10.462.2-15.694.023-3.46-.009-6.92-.215-10.375C-401.237,342.429-401.852,340.162-404.259,338.717Zm2.083,5.636c-.108-.15-.213-.3-.324-.449a5.021,5.021,0,0,0-2.784-1.928,3.092,3.092,0,0,0-4.131,3.294,7.7,7.7,0,0,0,.853,3.211,3.4,3.4,0,0,0,3.188,1.979c1.074.018,2.148.04,3.255-.026,0,.451-.009.863,0,1.274.007.212-.048.3-.282.309a26.962,26.962,0,0,1-4.021,0,3.933,3.933,0,0,1-3.653-2.985,9.108,9.108,0,0,1-.355-1.817,8.979,8.979,0,0,1,1.709-6.472,3.351,3.351,0,0,1,5.6.424A8.946,8.946,0,0,1-402.176,344.353Zm-1.16.549-.921-.068a15.427,15.427,0,0,0-1.542-.108,1.485,1.485,0,0,0-1.46,2.172c.185.539.645.722,1.094.938.207.1.4.228.349.507a.655.655,0,0,1-.462.508.52.52,0,0,1-.65-.285,6.9,6.9,0,0,1-1.223-3.4,1.765,1.765,0,0,1,.9-1.787A3.022,3.022,0,0,1-403.337,344.9Zm-1.36.992a4.949,4.949,0,0,0,1.7.04c.213-.041.255.089.3.249a12.836,12.836,0,0,1,.5,3.148c.006.123.024.232-.171.23-.836-.009-1.673,0-2.548,0A5.46,5.46,0,0,0-404.7,345.893Zm-.945,1.224a1.191,1.191,0,0,1-.737-.471c-.092-.157-.2-.372-.012-.5a.4.4,0,0,1,.514.1A1,1,0,0,1-405.642,347.118Z" transform="translate(411.636 -336.903)"/><path class="b" d="M-402.611,347.114c2.407,1.446,3.023,3.712,3.17,6.178.206,3.455.237,6.915.215,10.375-.034,5.232.086,10.465-.2,15.694-.2,3.643-.431,7.286-.41,10.937.008,1.445.054,2.891.107,4.335a1.916,1.916,0,0,0,2.01,2.139c2.264.189,4.538.138,6.808.187,3.669.079,7.323-.286,10.985-.438,2.7-.112,5.4-.241,8.1-.363,2.768-.125,5.528-.359,8.284-.636,1.411-.142,1.911-.695,1.9-2.12-.056-6.041-.166-12.079-.442-18.116-.263-5.762-.85-11.495-1.377-17.234-.176-1.918-.252-3.846-.531-5.755a11.644,11.644,0,0,0-.429-1.8,4.525,4.525,0,0,0-3.881-3.309,46.262,46.262,0,0,0-9.52-.488c-4.164.178-8.329.093-12.491.183-3.58.077-7.157.127-10.736.013A5.52,5.52,0,0,0-402.611,347.114Zm21.52,36.757a61.653,61.653,0,0,0-7.581-.126,3.926,3.926,0,0,1-.872-.064,1.636,1.636,0,0,1-1.624-1.622c-.125-.85-.221-1.706-.3-2.561a101.972,101.972,0,0,1-.185-13.255,4.845,4.845,0,0,1,.125-.97,1.094,1.094,0,0,1,1.224-.94c.412.006.823.072,1.235.082,3.2.081,6.4.167,9.6.227,2.738.052,5.467-.155,8.2-.317.849-.05,1.146.224,1.151,1.064,0,.707.087,1.408.109,2.112.139,4.541.238,9.082.221,13.625a8.343,8.343,0,0,1-.145,1.435,1.208,1.208,0,0,1-1.259,1.188c-.939.111-1.882.186-2.828.235A67.253,67.253,0,0,1-381.09,383.871Zm-16.269-17.362c0-.533-.005-1.066,0-1.6a2.093,2.093,0,0,1,2.4-2.348,1.262,1.262,0,0,1,1.37,1,3.315,3.315,0,0,1,.151.807c.036.721.049,1.443.061,2.165.028,1.584.27,3.152.352,4.732.15,2.871-.052,5.745.087,8.616a7.434,7.434,0,0,1-.188,1.9,1.054,1.054,0,0,1-1.25,1.006c-.326,0-.653,0-.979.007-1.155.01-1.6-.433-1.574-1.591.016-.739.084-1.478.075-2.216Q-396.937,372.741-397.36,366.509Zm33.17,9.039c0,1.359,0,2.718,0,4.076a9.224,9.224,0,0,1-.193,2.2,1.032,1.032,0,0,1-1.235.957c-.292,0-.584,0-.876,0-1.275.033-1.688-.367-1.66-1.636.023-1.066.074-2.131.044-3.2-.095-3.473-.193-6.945-.418-10.413a19.525,19.525,0,0,1-.031-3.248,2,2,0,0,1,2.2-1.731c1.043-.018,1.47.389,1.648,1.554.17,1.112.014,2.234.122,3.348A62.257,62.257,0,0,1-364.19,375.548Zm-12.572,14c.27.02.511.033.75.058.186.019.35.114.366.3s-.168.232-.318.278a3.834,3.834,0,0,1-1.067.162c-.225,0-.346.044-.355.3a3.156,3.156,0,0,1-2.9,2.81c-.272.035-.341.136-.33.391a2.892,2.892,0,0,1-.07,1.024c-.051.158-.1.363-.315.356-.183-.006-.218-.191-.275-.334a2.379,2.379,0,0,1-.062-1.072c.016-.246-.04-.349-.306-.407a2.95,2.95,0,0,1-2.244-2c-.231-.672-.458-1.123-1.254-.936a.149.149,0,0,1-.051-.006c-.223-.03-.4-.113-.416-.372s.169-.365.376-.418a1.6,1.6,0,0,1,.558-.07c.32.037.413-.052.446-.391a2.919,2.919,0,0,1,1.816-2.667c.838-.315,1.2-.69.925-1.572-.051-.165-.057-.426.19-.466a.462.462,0,0,1,.445.3,2.04,2.04,0,0,1,.149,1.061.375.375,0,0,0,.37.442,3.34,3.34,0,0,1,2.762,2.655C-377.422,389.5-377.269,389.736-376.762,389.553Zm-.894-33.281c.281.026.538.037.791.076a.335.335,0,0,1,.3.305c0,.15-.147.209-.285.255a4.086,4.086,0,0,1-1.117.17c-.237.011-.326.076-.339.32a3.126,3.126,0,0,1-2.813,2.781c-.374.062-.432.2-.417.52a2.174,2.174,0,0,1-.114,1.015c-.058.13-.118.264-.284.252-.139-.01-.186-.141-.234-.249a2.059,2.059,0,0,1-.094-1.117c.033-.268-.03-.4-.311-.458a2.924,2.924,0,0,1-2.217-1.957c-.238-.658-.438-1.187-1.279-.972a.124.124,0,0,1-.051-.005c-.216-.042-.4-.121-.412-.381a.378.378,0,0,1,.333-.4,1.91,1.91,0,0,1,.659-.093c.3.03.354-.07.381-.346a2.939,2.939,0,0,1,1.836-2.707c.871-.316,1.172-.717.915-1.581-.045-.153-.05-.391.151-.445.222-.06.382.1.486.3a1.981,1.981,0,0,1,.154,1.008c-.007.294.078.444.373.491a3.333,3.333,0,0,1,2.743,2.608C-378.345,356.166-378.213,356.477-377.656,356.272Z" transform="translate(409.988 -345.3)"/><path class="c" d="M-113.138,360.119a8.946,8.946,0,0,0-.94-3.183,3.351,3.351,0,0,0-5.6-.424,8.979,8.979,0,0,0-1.709,6.472,9.109,9.109,0,0,0,.355,1.817,3.933,3.933,0,0,0,3.653,2.985,26.967,26.967,0,0,0,4.021,0c.235-.005.289-.1.282-.309-.013-.411,0-.823,0-1.274-1.106.067-2.181.044-3.255.026a3.4,3.4,0,0,1-3.188-1.979,7.7,7.7,0,0,1-.853-3.211,3.092,3.092,0,0,1,4.131-3.294,5.021,5.021,0,0,1,2.784,1.928C-113.351,359.818-113.246,359.97-113.138,360.119Z" transform="translate(122.598 -352.67)"/><path class="d" d="M-107.762,383.682a3.022,3.022,0,0,0-3.918-1.522,1.765,1.765,0,0,0-.9,1.787,6.9,6.9,0,0,0,1.223,3.4.52.52,0,0,0,.65.285.655.655,0,0,0,.462-.508c.048-.279-.143-.408-.349-.507-.449-.216-.909-.4-1.094-.938a1.485,1.485,0,0,1,1.46-2.172,15.445,15.445,0,0,1,1.542.108Z" transform="translate(116.061 -375.684)"/><path class="d" d="M-120.7,402.027a5.46,5.46,0,0,1-.212,3.663c.875,0,1.712-.005,2.548,0,.2,0,.178-.107.171-.23a12.84,12.84,0,0,0-.5-3.148c-.049-.16-.091-.29-.3-.249A4.946,4.946,0,0,1-120.7,402.027Z" transform="translate(127.642 -393.037)"/><path class="d" d="M-95.156,404.49a1,1,0,0,0-.235-.868.4.4,0,0,0-.514-.1c-.191.127-.08.342.012.5A1.192,1.192,0,0,0-95.156,404.49Z" transform="translate(101.151 -394.275)"/><path class="e" d="M-332.945,494.233a67.253,67.253,0,0,0,7.066.113c.946-.048,1.888-.123,2.828-.235a1.208,1.208,0,0,0,1.259-1.188,8.343,8.343,0,0,0,.145-1.435c.016-4.543-.082-9.084-.221-13.625-.022-.7-.1-1.4-.109-2.112,0-.839-.3-1.114-1.151-1.064-2.73.162-5.46.369-8.2.317-3.2-.061-6.4-.146-9.6-.227-.412-.01-.823-.076-1.235-.082a1.094,1.094,0,0,0-1.224.94,4.843,4.843,0,0,0-.125.97,101.973,101.973,0,0,0,.185,13.255c.079.856.174,1.711.3,2.561a1.636,1.636,0,0,0,1.624,1.622,3.931,3.931,0,0,0,.872.064A61.653,61.653,0,0,1-332.945,494.233Zm-3.165-11.883c.214-.069.36.082.513.176.556.342,1.1.7,1.656,1.048.47.293.946.576,1.445.879a16.382,16.382,0,0,1-3.142,2.17,5.651,5.651,0,0,1-1.25.472c-.116.026-.317.108-.3-.127a2.252,2.252,0,0,1,.624-1.792c.185-.154.375-.3.553-.465a1.193,1.193,0,0,0,.311-1.658c-.121-.243-.263-.475-.4-.712-.031-.011-.106,0-.03-.063Zm-6.574,2.9c-.172-2.75-.154-5.433-.057-8.118.043-1.177.484-1.594,1.68-1.547,5.8.228,11.594.375,17.393.056,1.02-.056,1.209.139,1.207,1.172-.007,2.324-.025,4.648-.043,6.972,0,.107.062.245-.116.33-.125-.093-.259-.2-.4-.294-1.275-.876-2.484-1.846-3.8-2.658a1.709,1.709,0,0,0-1.984.055,5.79,5.79,0,0,0-.765.61c-.737.7-1.439,1.433-2.24,2.062-.183.143-.293.21-.51.02a31.54,31.54,0,0,0-3.455-2.34,1.265,1.265,0,0,0-1.323-.063,9.472,9.472,0,0,0-1.912,1.212C-340.158,483.655-341.429,484.4-342.684,485.254Zm10.368,8.164c-2.517-.064-4.988-.315-7.47-.147a5.352,5.352,0,0,1-1.18-.086,1.508,1.508,0,0,1-1.364-1.273,21.071,21.071,0,0,1-.192-3.446c-.009-.183.061-.245.237-.234a46.367,46.367,0,0,0,4.843-.2,142.9,142.9,0,0,1,14.692.463c.228.014.345.07.35.322a16.237,16.237,0,0,1-.154,3.447,1.305,1.305,0,0,1-.9,1.034,3.262,3.262,0,0,1-1.111.2C-327.164,493.515-329.763,493.62-332.316,493.418Zm5.754-5.851a69.834,69.834,0,0,0-8.649-.3c1.268-.819,2.392-1.79,3.6-2.637,1.007-.7,1.811-1.64,2.784-2.377.842-.638,1.03-.591,1.619.248.05.07.1.139.148.212a1.263,1.263,0,0,1-.241,1.946,1.116,1.116,0,0,0-.192,1.754C-327.237,486.772-326.939,487.1-326.562,487.567Zm-14.146-.155c-.258,0-.515,0-.773,0s-.515.018-.773.017c-.14,0-.3.067-.362-.168a1.442,1.442,0,0,1,.659-1.68c1.553-.888,3.01-1.92,4.483-2.927.113-.077.235-.142.348-.22.233-.162.378-.108.538.133a1.276,1.276,0,0,1-.176,1.883,3.168,3.168,0,0,0-.994,2.138c-.01.119-.046.237-.053.356-.016.274-.155.364-.427.379C-339.061,487.369-339.883,487.435-340.708,487.412Zm14.006-5.233a.309.309,0,0,1,.337.069c1.254.869,2.421,1.862,3.749,2.626.15.086.134.224.136.359.011.721.008,1.443.039,2.163.014.317-.122.375-.395.359-.5-.029-1-.058-1.492-.046a2.1,2.1,0,0,1-2.267-1.148.806.806,0,0,0-.13-.159c-.663-.8-.632-1.038.213-1.644a1.144,1.144,0,0,0,.411-1.611C-326.268,482.815-326.493,482.512-326.7,482.179Z" transform="translate(361.843 -455.662)"/><path class="f" d="M-176.009,465.883q.423,6.233.506,12.476c.01.738-.058,1.477-.075,2.217-.025,1.158.419,1.6,1.574,1.591.327,0,.653-.011.979-.007a1.054,1.054,0,0,0,1.25-1.006,7.435,7.435,0,0,0,.188-1.9c-.139-2.871.063-5.745-.087-8.616-.083-1.58-.324-3.148-.352-4.732-.013-.722-.025-1.444-.061-2.165a3.313,3.313,0,0,0-.151-.807,1.262,1.262,0,0,0-1.37-1,2.093,2.093,0,0,0-2.4,2.348C-176.014,464.816-176.009,465.35-176.009,465.883Zm2.215,2.563v.025c-.308,0-.618-.015-.925,0-.239.015-.341-.06-.351-.308-.031-.753-.075-1.506-.122-2.258-.014-.223.019-.339.294-.341.616,0,1.233-.041,1.847-.09.259-.021.373.028.375.313,0,.479.066.958.064,1.437,0,.407.265.949,0,1.174C-172.847,468.6-173.388,468.445-173.794,468.445Zm1.321,3.71a9.358,9.358,0,0,0-2.033-.15c-.177,0-.387.061-.393-.25-.017-.771-.054-1.541-.082-2.311-.005-.144-.009-.292.206-.251a14.258,14.258,0,0,0,2,.006c.22.011.306.089.3.3C-172.475,470.374-172.473,471.245-172.473,472.155Zm.05,1.839h.037a4.456,4.456,0,0,0,0,.616c.071.506-.064.772-.638.666a3.2,3.2,0,0,0-.667.009c-1.259.04-1.26.04-1.18-1.242.024-.393-.086-.9.119-1.148.24-.284.772-.064,1.176-.1.381-.03.766-.025,1.149-.035Zm.048,3.217c.02,1.212.02,1.212-1.153,1.206-1.135-.006-1.135-.006-1.164-1.155,0-.051,0-.1-.006-.155-.044-1.062-.044-1.062,1.041-1.1C-172.4,475.967-172.4,475.967-172.375,477.211Zm-2.411,2.883c.023-.872.023-.872.889-.9.154,0,.308-.011.462-.021,1.176-.075,1.176-.075,1.047,1.085a1.131,1.131,0,0,1-1.34,1.142A1.115,1.115,0,0,1-174.786,480.094Zm-.4-15.8c0-.093-.006-.179,0-.264a1.151,1.151,0,0,1,1.309-1.243c.807-.017.947.133,1.068,1.143.02.17.038.341.072.508.051.248-.033.327-.29.322a9.423,9.423,0,0,0-1.64.039C-175.162,464.88-175.29,464.737-175.19,464.3Z" transform="translate(188.637 -444.674)"/><path class="g" d="M-379.929,474.924a62.246,62.246,0,0,0-.4-8.085c-.108-1.114.048-2.236-.122-3.348-.179-1.165-.605-1.571-1.648-1.554a2,2,0,0,0-2.2,1.731,19.518,19.518,0,0,0,.031,3.248c.225,3.468.323,6.94.418,10.413.029,1.068-.021,2.132-.044,3.2-.028,1.269.385,1.669,1.66,1.636.292-.008.584-.007.876,0a1.032,1.032,0,0,0,1.235-.957,9.223,9.223,0,0,0,.193-2.2C-379.931,477.642-379.929,476.283-379.929,474.924Zm-2.19-6.459v0c-.292,0-.585-.022-.874.006s-.383-.073-.4-.36c-.032-.736-.09-1.472-.149-2.206-.019-.232.026-.336.295-.339.617-.007,1.234-.04,1.849-.089.276-.022.4.022.407.338.014.737.048,1.474.112,2.208.035.4-.08.517-.474.445A4.339,4.339,0,0,0-382.119,468.465Zm1.338,2.267h.033c0,.379,0,.757,0,1.136,0,.148.044.315-.232.259a8.133,8.133,0,0,0-1.9-.114c-.255.009-.367-.062-.369-.343-.006-.74-.036-1.479-.07-2.218-.01-.207.052-.3.257-.255a5.766,5.766,0,0,0,1.646-.009c.541-.049.7.164.645.668A7.828,7.828,0,0,0-380.782,470.732Zm.051,3.249c-.022.421.227.965-.063,1.23-.22.2-.749.062-1.141.074-.1,0-.206.006-.308.01-.96.044-1.058-.062-.969-1.052.008-.085.019-.17.032-.255.062-.385-.137-.937.12-1.121.275-.2.79-.1,1.194-.06.381.033.888-.269,1.094.022C-380.584,473.091-380.731,473.588-380.731,473.981Zm.044,3.2c0,.034,0,.069,0,.1.014,1.141.014,1.141-1.143,1.138-1.19,0-1.19,0-1.212-1.217-.021-1.167-.021-1.167,1.136-1.194C-380.7,475.982-380.7,475.982-380.686,477.178Zm-1.272,2.017c.417-.039.726-.062,1.033-.1.164-.019.259.01.256.206a4.524,4.524,0,0,1-.136,1.379,1.168,1.168,0,0,1-1.435.7,1.183,1.183,0,0,1-.885-1.419c.07-.741.07-.742.916-.767C-382.091,479.193-381.97,479.2-381.959,479.2Zm-1.607-14.794c.024-.186.042-.374.075-.558.141-.787.5-1.057,1.371-1.052.7,0,.808.122.953,1.035.029.186.048.373.081.558.049.274-.017.394-.337.383a12.574,12.574,0,0,0-1.692.045C-383.476,464.85-383.642,464.795-383.566,464.4Z" transform="translate(425.727 -444.676)"/><path class="h" d="M-292.384,626.041c-.507.182-.66-.057-.807-.572a3.34,3.34,0,0,0-2.762-2.655.375.375,0,0,1-.37-.442,2.04,2.04,0,0,0-.149-1.061.462.462,0,0,0-.445-.3c-.247.04-.242.3-.19.466.275.882-.088,1.256-.925,1.572a2.919,2.919,0,0,0-1.816,2.667c-.032.34-.126.428-.446.391a1.6,1.6,0,0,0-.558.07c-.207.053-.392.154-.375.418s.193.342.416.372a.151.151,0,0,0,.051.006c.8-.187,1.023.265,1.254.936a2.95,2.95,0,0,0,2.244,2c.266.059.322.161.306.407a2.379,2.379,0,0,0,.062,1.072c.057.143.092.328.275.334.215.007.264-.2.315-.356a2.893,2.893,0,0,0,.07-1.024c-.011-.255.058-.356.33-.391a3.155,3.155,0,0,0,2.9-2.81c.01-.259.131-.3.355-.3a3.833,3.833,0,0,0,1.067-.161c.151-.046.334-.089.318-.278s-.18-.285-.366-.3C-291.874,626.073-292.114,626.061-292.384,626.041Zm-3.911-1.092c0-.377.023-.688-.006-.994-.037-.391.113-.493.466-.373a3.123,3.123,0,0,1,1.98,2.191c.107.329-.014.374-.3.357s-.583.01-.874,0c-.408-.012-.937.177-1.19-.068S-296.261,625.286-296.3,624.949Zm1.264,1.924c.309,0,.62.022.927-.006.335-.031.381.123.313.39a2.529,2.529,0,0,1-1.707,1.84c-.728.258-.747.237-.759-.541q0-.206-.007-.412C-296.287,626.893-296.287,626.893-295.031,626.872Zm-3.023-.731c-.258,0-.516,0-.774,0-.176,0-.273-.016-.268-.248a2.54,2.54,0,0,1,1.713-2.291c.265-.082.381-.057.367.254-.019.412-.005.825-.005,1.238C-297.022,626.151-297.022,626.151-298.054,626.142Zm1.092,1.92c0,.258-.016.517,0,.773.025.312-.088.35-.355.245a2.613,2.613,0,0,1-1.349-1.212c-.483-.865-.459-.908.51-.926C-297,626.921-297,626.921-296.961,628.062Z" transform="translate(325.611 -581.788)"/><path class="h" d="M-285.725,384.995c-.557.2-.688-.107-.841-.61a3.333,3.333,0,0,0-2.743-2.607c-.295-.047-.38-.2-.373-.491a1.981,1.981,0,0,0-.154-1.008c-.1-.2-.264-.358-.486-.3-.2.054-.2.293-.151.445.257.864-.044,1.265-.915,1.581a2.939,2.939,0,0,0-1.836,2.707c-.028.277-.086.376-.381.346a1.91,1.91,0,0,0-.659.093.378.378,0,0,0-.333.4c.014.26.2.339.412.381a.124.124,0,0,0,.051.005c.841-.215,1.042.314,1.279.972a2.924,2.924,0,0,0,2.217,1.957c.282.061.345.19.311.458a2.059,2.059,0,0,0,.094,1.117c.048.108.1.239.234.249.166.012.226-.122.284-.252a2.174,2.174,0,0,0,.114-1.015c-.016-.322.043-.458.417-.52a3.126,3.126,0,0,0,2.813-2.781c.013-.245.1-.309.34-.32a4.085,4.085,0,0,0,1.117-.17c.138-.046.289-.1.285-.255a.335.335,0,0,0-.3-.305C-285.187,385.032-285.445,385.02-285.725,384.995Zm-3.951-1.206h.018c0-.309.024-.62-.006-.926-.035-.357.114-.421.413-.331a3.057,3.057,0,0,1,2.016,2.152c.1.293.091.448-.286.41-.272-.027-.549.011-.823,0-.425-.014-1,.19-1.231-.072S-289.657,384.213-289.677,383.788Zm1.282,2.046a7.294,7.294,0,0,0,.858-.006c.427-.053.453.156.358.475A2.523,2.523,0,0,1-288.712,388c-.855.35-.9.316-.918-.575,0-.086,0-.172,0-.258,0-.412-.152-.945.049-1.2C-289.345,385.652-288.78,385.9-288.395,385.835Zm-1.989-2.046c0,.342-.011.685,0,1.027.009.221-.065.3-.29.3q-.77-.02-1.54,0c-.208,0-.247-.071-.244-.268a2.509,2.509,0,0,1,1.655-2.261c.3-.1.449-.085.421.285C-290.4,383.172-290.383,383.481-290.384,383.789Zm.06,3.189c0,.291-.013.582,0,.872.016.267-.1.286-.307.209a2.617,2.617,0,0,1-1.419-1.265c-.454-.839-.436-.872.512-.9l.051,0C-290.372,385.863-290.372,385.863-290.324,386.978Z" transform="translate(318.057 -374.023)"/><path class="i" d="M-337.6,490.892c1.255-.854,2.526-1.6,3.673-2.531a9.473,9.473,0,0,1,1.912-1.212,1.265,1.265,0,0,1,1.323.063,31.525,31.525,0,0,1,3.455,2.34c.216.191.327.124.51-.02.8-.629,1.5-1.364,2.24-2.062a5.794,5.794,0,0,1,.765-.61,1.709,1.709,0,0,1,1.984-.055c1.32.812,2.529,1.782,3.8,2.658.14.1.273.2.4.294.178-.085.115-.223.116-.33.018-2.324.037-4.648.043-6.972,0-1.033-.186-1.228-1.207-1.172-5.8.318-11.6.172-17.393-.056-1.2-.047-1.638.37-1.68,1.547C-337.758,485.459-337.777,488.143-337.6,490.892Zm8.019-6.485a1.778,1.778,0,0,1,1.846-1.8,2.453,2.453,0,0,1,2.19,2.158,1.825,1.825,0,0,1-1.944,1.661A2,2,0,0,1-329.585,484.407Z" transform="translate(356.763 -461.3)"/><path class="j" d="M-328.11,576.4c2.553.2,5.152.1,7.75.082a3.258,3.258,0,0,0,1.111-.2,1.305,1.305,0,0,0,.9-1.034,16.234,16.234,0,0,0,.154-3.447c-.005-.252-.122-.308-.35-.322a142.908,142.908,0,0,0-14.692-.463,46.376,46.376,0,0,1-4.843.2c-.176-.011-.246.05-.237.234a21.069,21.069,0,0,0,.192,3.446,1.508,1.508,0,0,0,1.364,1.273,5.352,5.352,0,0,0,1.18.086C-333.1,576.089-330.627,576.341-328.11,576.4Z" transform="translate(357.637 -538.648)"/><path class="k" d="M-299.375,532.109c-.376-.466-.675-.795-.928-1.156a1.116,1.116,0,0,1,.192-1.754,1.263,1.263,0,0,0,.241-1.946c-.046-.072-.1-.141-.148-.211-.588-.838-.776-.886-1.619-.248-.973.737-1.777,1.672-2.785,2.377-1.211.847-2.334,1.818-3.6,2.637A69.833,69.833,0,0,1-299.375,532.109Z" transform="translate(334.656 -500.204)"/><path class="k" d="M-235.845,535.24c.826.023,1.648-.043,2.471-.088.272-.015.411-.1.427-.379.007-.119.042-.237.053-.356a3.168,3.168,0,0,1,.994-2.138,1.276,1.276,0,0,0,.176-1.883c-.16-.241-.3-.3-.538-.133-.113.078-.235.143-.348.22-1.474,1.007-2.931,2.039-4.483,2.927a1.442,1.442,0,0,0-.659,1.68c.062.234.221.167.362.168.258,0,.515-.014.773-.017S-236.1,535.24-235.845,535.24Z" transform="translate(256.98 -503.49)"/><path class="k" d="M-337.388,528.832c.209.334.434.636.6.968a1.144,1.144,0,0,1-.411,1.611c-.845.606-.876.844-.213,1.644a.8.8,0,0,1,.13.159,2.1,2.1,0,0,0,2.267,1.148c.5-.012,1,.017,1.492.046.273.016.408-.042.395-.359-.03-.72-.028-1.442-.039-2.163,0-.136.014-.273-.136-.359-1.327-.764-2.494-1.757-3.748-2.626A.309.309,0,0,0-337.388,528.832Z" transform="translate(372.529 -502.315)"/><path class="k" d="M-263.949,530.1c.133.237.275.469.4.712a1.193,1.193,0,0,1-.311,1.658c-.178.162-.368.311-.553.465a2.252,2.252,0,0,0-.624,1.792c-.013.234.188.153.3.126a5.652,5.652,0,0,0,1.25-.472,16.386,16.386,0,0,0,3.142-2.17c-.5-.3-.975-.586-1.445-.879-.554-.346-1.1-.706-1.656-1.048-.153-.094-.3-.245-.513-.177Z" transform="translate(289.692 -503.425)"/><path class="k" d="M-238.88,529.774l-.02-.071c-.076.062,0,.052.03.063Z" transform="translate(264.613 -503.086)"/><path class="l" d="M-167.991,490.546c.406,0,.947.158,1.183-.042.264-.225,0-.768,0-1.174,0-.479-.06-.958-.064-1.437,0-.286-.116-.334-.375-.313-.614.049-1.231.085-1.847.09-.275,0-.308.117-.294.341.047.752.091,1.5.122,2.258.01.247.112.323.351.308.307-.02.617,0,.925,0Z" transform="translate(182.834 -466.775)"/><path class="m" d="M-167.05,517.427c0-.909,0-1.781,0-2.653,0-.215-.085-.293-.3-.3a14.262,14.262,0,0,1-2-.006c-.215-.041-.211.107-.206.251.029.77.065,1.541.082,2.312.007.31.216.251.393.25A9.357,9.357,0,0,1-167.05,517.427Z" transform="translate(183.214 -489.946)"/><path class="n" d="M-167.867,541.51v-1.229c-.383.01-.767.005-1.149.035-.4.031-.936-.189-1.176.1-.205.243-.095.755-.119,1.148-.079,1.282-.079,1.282,1.18,1.242a3.2,3.2,0,0,1,.667-.009c.575.106.71-.16.638-.666a4.454,4.454,0,0,1,0-.616Z" transform="translate(184.081 -512.19)"/><path class="o" d="M-167.953,565.013c-.02-1.244-.02-1.244-1.282-1.2-1.085.037-1.085.037-1.041,1.1q0,.077.006.155c.03,1.149.03,1.149,1.164,1.155C-167.933,566.225-167.933,566.225-167.953,565.013Z" transform="translate(184.215 -532.476)"/><path class="i" d="M-170.569,587.566a1.115,1.115,0,0,0,1.057,1.307,1.132,1.132,0,0,0,1.34-1.142c.13-1.16.13-1.16-1.047-1.085-.154.01-.308.016-.462.021C-170.546,586.694-170.546,586.693-170.569,587.566Z" transform="translate(184.42 -552.146)"/><path class="i" d="M-167.683,469.636c-.1.44.028.583.519.506a9.423,9.423,0,0,1,1.64-.039c.257.005.341-.074.29-.322-.034-.167-.051-.338-.072-.508-.121-1.009-.261-1.16-1.068-1.143a1.151,1.151,0,0,0-1.309,1.243C-167.689,469.457-167.683,469.543-167.683,469.636Z" transform="translate(181.131 -450.013)"/><path class="l" d="M-375.979,490.567a4.341,4.341,0,0,1,.77.008c.395.072.51-.046.474-.445-.065-.734-.1-1.472-.112-2.208-.006-.316-.132-.36-.407-.338-.615.049-1.233.083-1.849.089-.268,0-.313.107-.295.339.059.735.117,1.47.149,2.206.013.287.1.389.4.36s.583-.006.874-.006Z" transform="translate(419.587 -466.778)"/><path class="m" d="M-375.733,515.957a7.828,7.828,0,0,1,.006-.877c.057-.5-.1-.717-.645-.668a5.766,5.766,0,0,1-1.646.009c-.205-.04-.267.048-.257.255.035.739.064,1.478.07,2.218,0,.281.114.352.369.343a8.13,8.13,0,0,1,1.9.114c.276.056.231-.111.232-.259,0-.379,0-.757,0-1.136Z" transform="translate(420.679 -489.901)"/><path class="n" d="M-376.465,541.192c0-.393.146-.89-.039-1.152-.206-.29-.713.012-1.094-.022-.4-.035-.92-.137-1.194.06-.257.184-.059.736-.12,1.121-.014.085-.025.17-.032.255-.089.99.008,1.1.969,1.052.1,0,.206-.007.308-.01.392-.012.921.126,1.141-.074C-376.237,542.158-376.486,541.613-376.465,541.192Z" transform="translate(421.461 -511.888)"/><path class="o" d="M-376.38,565c-.014-1.2-.014-1.2-1.218-1.169-1.157.027-1.157.027-1.136,1.194.022,1.214.022,1.214,1.212,1.217,1.157,0,1.157,0,1.143-1.138C-376.38,565.067-376.38,565.032-376.38,565Z" transform="translate(421.42 -532.496)"/><path class="i" d="M-377.663,586.319c-.012,0-.132,0-.252,0-.845.025-.845.026-.916.767a1.183,1.183,0,0,0,.885,1.419,1.168,1.168,0,0,0,1.435-.7,4.523,4.523,0,0,0,.136-1.379c0-.2-.092-.225-.256-.206C-376.937,586.257-377.246,586.281-377.663,586.319Z" transform="translate(421.431 -551.799)"/><path class="j" d="M-375.918,469.735c-.076.394.09.449.452.411a12.574,12.574,0,0,1,1.692-.045c.32.01.386-.109.337-.383-.033-.185-.052-.372-.081-.558-.145-.914-.253-1.031-.953-1.035-.876-.005-1.23.265-1.371,1.052C-375.876,469.362-375.893,469.549-375.918,469.735Z" transform="translate(418.079 -450.01)"/><path class="c" d="M-282.728,640.715c.034.337-.174.87.08,1.115s.782.056,1.19.068c.291.008.584-.018.874,0s.4-.028.3-.357a3.123,3.123,0,0,0-1.98-2.191c-.354-.12-.5-.018-.466.373C-282.705,640.027-282.728,640.338-282.728,640.715Z" transform="translate(312.044 -597.555)"/><path class="d" d="M-281.907,663.422c-1.256.021-1.256.021-1.234,1.271q0,.206.007.412c.012.778.03.8.759.541a2.529,2.529,0,0,0,1.707-1.84c.068-.267.022-.421-.313-.39C-281.287,663.444-281.6,663.422-281.907,663.422Z" transform="translate(312.487 -618.337)"/><path class="d" d="M-258.555,642.092c1.032.009,1.032.009,1.032-1.046,0-.413-.013-.826.005-1.238.014-.311-.1-.336-.367-.254a2.54,2.54,0,0,0-1.713,2.291c0,.232.092.252.269.248C-259.071,642.088-258.813,642.092-258.555,642.092Z" transform="translate(286.112 -597.738)"/><path class="c" d="M-258.032,665.075c-.037-1.141-.037-1.141-1.19-1.12-.969.018-.993.061-.51.926a2.613,2.613,0,0,0,1.349,1.212c.267.105.38.067.355-.245C-258.048,665.592-258.032,665.333-258.032,665.075Z" transform="translate(286.681 -618.801)"/><path class="c" d="M-276.1,399.559c.02.424-.117.986.1,1.234s.807.057,1.231.072c.274.009.552-.029.823,0,.376.038.387-.117.286-.41a3.057,3.057,0,0,0-2.016-2.153c-.3-.09-.449-.025-.413.331.03.306.006.617.006.926Z" transform="translate(304.479 -389.793)"/><path class="d" d="M-275.17,422.268c-.385.07-.951-.183-1.19.126-.2.258-.046.792-.049,1.2,0,.086,0,.172,0,.258.014.89.063.925.918.575a2.523,2.523,0,0,0,1.533-1.693c.094-.318.068-.527-.358-.475A7.287,7.287,0,0,1-275.17,422.268Z" transform="translate(304.833 -410.456)"/><path class="d" d="M-250.908,399.763c0-.308-.018-.617.005-.924.027-.37-.121-.388-.421-.285a2.509,2.509,0,0,0-1.655,2.261c0,.2.036.273.244.268q.77-.016,1.54,0c.226.006.3-.077.29-.3C-250.919,400.448-250.909,400.105-250.908,399.763Z" transform="translate(278.582 -389.996)"/><path class="d" d="M-251.376,423.923c-.048-1.116-.048-1.116-1.159-1.085l-.051,0c-.948.026-.965.059-.512.9A2.618,2.618,0,0,0-251.68,425c.206.077.323.058.307-.209C-251.39,424.505-251.376,424.214-251.376,423.923Z" transform="translate(279.109 -410.968)"/><path class="f" d="M-278.568,493.021a2,2,0,0,0,2.093,2.015,1.825,1.825,0,0,0,1.944-1.661,2.453,2.453,0,0,0-2.19-2.158A1.778,1.778,0,0,0-278.568,493.021Zm2.311,1.4a1.5,1.5,0,0,1-1.561-.954,1.285,1.285,0,0,1,.473-1.415,1.366,1.366,0,0,1,1.693.248,1.026,1.026,0,0,1,.076.07c.352.371.677.767.444,1.317A1.242,1.242,0,0,1-276.257,494.424Z" transform="translate(305.745 -469.914)"/><path class="j" d="M-273.168,498.428a1.242,1.242,0,0,0,1.125-.735c.232-.55-.093-.946-.444-1.317a1.024,1.024,0,0,0-.076-.07,1.366,1.366,0,0,0-1.693-.248,1.285,1.285,0,0,0-.473,1.415A1.5,1.5,0,0,0-273.168,498.428Z" transform="translate(302.657 -473.918)"/></g></svg>