<svg xmlns="http://www.w3.org/2000/svg" width="50.307" height="52.921" viewBox="0 0 50.307 52.921"><defs><style>.a{fill:#040404;}.b{fill:#f2f2f2;}.c{fill:#f36924;}.d{fill:#fb7a86;}.e{fill:#f7c8a6;}.f{fill:#f9d70f;}.g{fill:#494843;}.h{fill:#060404;}.i{fill:#060505;}.j{fill:#090909;}.k{fill:#0a0a0a;}.l{fill:#6150ff;}</style></defs><g transform="translate(-314.964 467.269)"><path class="a" d="M336.128-414.348c-.118-.19-.306-.09-.46-.1-5.99-.54-12-.456-18.005-.712a4.98,4.98,0,0,1-.757-.1,2.083,2.083,0,0,1-1.935-2.449c.218-3.874.155-7.754.089-11.625-.195-11.509.156-23.017,0-34.525-.023-1.748.562-2.348,2.527-2.57a17.739,17.739,0,0,1,2.5-.143c2.962.085,5.922-.048,8.884-.071,2.52-.02,5.028-.294,7.543-.433,4.286-.238,8.575-.187,12.864-.171a15.17,15.17,0,0,1,2.345.065,1.556,1.556,0,0,1,1.552,1.794c-.01,1.137-.059,2.273-.1,3.409a30.012,30.012,0,0,0,.253,3.915,14.138,14.138,0,0,1,0,2.939,8.592,8.592,0,0,0,0,1.758c.177-.037.214-.183.281-.287.937-1.454,1.846-2.921,2.64-4.466a10.274,10.274,0,0,1,3.6-4.33,4.136,4.136,0,0,1,2.958-.7,2.725,2.725,0,0,1,2.287,3.442,23.753,23.753,0,0,1-2.472,5.913,97.473,97.473,0,0,1-6.207,9.386q-.695.989-1.406,1.965a2.662,2.662,0,0,0-.527,1.927,44.635,44.635,0,0,1,.1,6.4c-.146,2.967.189,5.922.193,8.884a35.379,35.379,0,0,1-.126,3.87,2.083,2.083,0,0,1-.641,1.314,42.723,42.723,0,0,0-3.678,4.153,3.2,3.2,0,0,1-2.653,1.259c-2.263.02-4.525.122-6.787.193-.092,0-.211-.044-.254.1Zm17.34-25.178-.161-.064a.567.567,0,0,1-.045.146c-2,3.1-5.021,5.04-7.927,7.106-.466.331-1.034.671-1.6.261-.541-.39-.488-1.029-.406-1.614.149-1.073.328-2.141.5-3.211a10.961,10.961,0,0,1,1.5-4.231c2.257-3.562,4.68-7.01,7-10.527a.652.652,0,0,0,.127-.526,13.478,13.478,0,0,1-.169-3.344,13.55,13.55,0,0,0-.042-2.271,35.817,35.817,0,0,1-.2-6.545c.1-1.716-.256-1.524-1.476-1.554-6.232-.153-12.454.149-18.678.346-4.1.13-8.194.378-12.3.278a9,9,0,0,0-2.225.254,1.091,1.091,0,0,0-1.029,1.194c-.014.189-.008.379-.009.568-.033,8.13.085,16.261-.111,24.39-.092,3.826.2,7.644.193,11.468,0,2.549-.107,5.1-.021,7.647a7.861,7.861,0,0,1-.1,1.6c-.2,1.138-.172,1.544,1.386,1.724.067.008.136.009.2.012,2.635.12,5.272.186,7.909.22,2.841.036,5.686.021,8.52.252a58.521,58.521,0,0,0,8.565.107,45.279,45.279,0,0,1,5-.189,1.838,1.838,0,0,0,1.5-.625c1.275-1.363,2.329-2.924,3.69-4.21a1.286,1.286,0,0,0,.335-.739,15.68,15.68,0,0,0,.149-3.5,98.692,98.692,0,0,1-.084-11.876C353.521-437.826,353.469-438.679,353.469-439.527Zm-3.4,2.316c.2-.23.332-.36.441-.507.621-.841,1.285-1.654,1.846-2.534,2.739-4.293,5.613-8.494,8.449-12.721a.5.5,0,0,0,.019-.648,5.674,5.674,0,0,0-1.139-1.173c-.277-.228-.409-.228-.6.119a19.754,19.754,0,0,1-1.269,2.115c-2.822,3.964-5.711,7.88-8.266,12.031-.233.379-.463.761-.684,1.148-.057.1-.205.242.031.319C349.723-438.792,349.964-438.12,350.067-437.21Zm-2.042-2.21c.156-.246.267-.418.375-.591,1.913-3.051,3.789-6.125,5.943-9.013a56.14,56.14,0,0,0,4.279-5.97c.183-.326.169-.455-.139-.621q-.674-.363-1.322-.775c-.271-.173-.4-.09-.551.169-.344.593-.711,1.174-1.088,1.746-2.426,3.677-4.784,7.4-7.29,11.023-.617.892-1.139,1.851-1.726,2.815A1.578,1.578,0,0,1,348.026-439.42Zm14.63-17.009A10.553,10.553,0,0,0,364.073-460a1.619,1.619,0,0,0-1.312-1.905,3.89,3.89,0,0,0-3.733,1.62c-.211.284-.22.389.138.553A6.814,6.814,0,0,1,362.656-456.43Zm-17.778,20.173c-.067.126.055.22.252.266a2.453,2.453,0,0,1,1.468,1.037c.124.175.219.163.369.05.639-.482,1.284-.956,1.926-1.435a.373.373,0,0,0,.19-.289,1.232,1.232,0,0,0-1.284-.967.588.588,0,0,1-.847-.516,6.539,6.539,0,0,0-.151-.911.568.568,0,0,0-.966-.3,1.587,1.587,0,0,0-.61.982C345.094-437.684,345-437.021,344.878-436.257ZM361.53-454.2c.107-.266.193-.508.3-.741a1.234,1.234,0,0,0-.3-1.494,9.656,9.656,0,0,0-2.206-1.737c-1.218-.658-1.324-.622-1.962.631-.058.114-.112.23-.151.311A14.917,14.917,0,0,1,361.53-454.2Zm-17.007,20.87,1.338-.824c.147-.09.255-.2.109-.367a2.336,2.336,0,0,0-.946-.763c-.146-.052-.292-.071-.3.132A12.1,12.1,0,0,0,344.523-433.326Z" transform="translate(0 0)"/><path class="b" d="M361.279-431.244c0,.848.052,1.7-.009,2.544a98.68,98.68,0,0,0,.084,11.876,15.681,15.681,0,0,1-.149,3.5,1.286,1.286,0,0,1-.335.739c-1.362,1.286-2.415,2.847-3.69,4.21a1.838,1.838,0,0,1-1.5.625,45.286,45.286,0,0,0-5,.189,58.521,58.521,0,0,1-8.565-.107c-2.834-.231-5.679-.216-8.52-.252-2.638-.033-5.274-.1-7.909-.22-.068,0-.136,0-.2-.012-1.558-.181-1.584-.586-1.386-1.724a7.858,7.858,0,0,0,.1-1.6c-.086-2.55.017-5.1.021-7.647.006-3.823-.285-7.641-.193-11.468.2-8.129.078-16.26.111-24.39,0-.189,0-.38.009-.568a1.091,1.091,0,0,1,1.029-1.194,9,9,0,0,1,2.225-.254c4.1.1,8.2-.148,12.3-.278,6.224-.2,12.447-.5,18.678-.346,1.219.03,1.572-.163,1.476,1.554a35.814,35.814,0,0,0,.2,6.545,13.551,13.551,0,0,1,.042,2.271,13.481,13.481,0,0,0,.169,3.344.651.651,0,0,1-.127.526c-2.322,3.517-4.745,6.965-7,10.527a10.962,10.962,0,0,0-1.5,4.231c-.172,1.069-.352,2.138-.5,3.211-.081.585-.134,1.224.406,1.614.569.41,1.137.07,1.6-.261,2.906-2.065,5.922-4.01,7.927-7.106a.567.567,0,0,0,.045-.146Zm-28.065-6.232c-.074-.788-.141-1.455-.2-2.123-.061-.7-.3-.991-.982-1.106a8.317,8.317,0,0,0-3.142.09c-1.576.335-2.111.965-2.119,2.587-.006,1.239.039,2.478.075,3.718.028.987.445,1.489,1.553,1.682a6.805,6.805,0,0,0,2.778-.2c1.562-.375,2.03-.919,2.172-2.539a.917.917,0,0,1,.238-.6c.712-.764,1.416-1.535,2.178-2.25a7.251,7.251,0,0,0,1.6-1.991c.093-.184.206-.37.022-.567s-.377-.093-.559,0a6.816,6.816,0,0,0-1.532,1.1C334.585-439.016,333.962-438.267,333.214-437.477Zm-.018-9.833c-.07-.748-.131-1.346-.18-1.945-.059-.718-.322-1.042-1.011-1.144a8.776,8.776,0,0,0-3.642.226,1.965,1.965,0,0,0-1.526,1.677,6.143,6.143,0,0,0-.07,1.183c.023,1.136.009,2.273.1,3.408a1.444,1.444,0,0,0,1.319,1.554,7.259,7.259,0,0,0,3.471-.283,1.956,1.956,0,0,0,1.616-1.883,3.31,3.31,0,0,1,1.1-2.268c.416-.456.842-.9,1.255-1.359a4.56,4.56,0,0,0,.895-1.37.463.463,0,0,0-.07-.567c-.165-.157-.341-.1-.52-.027a3.679,3.679,0,0,0-1.342,1.086C334.155-448.5,333.729-447.965,333.2-447.309Zm-6.429,30.226c.026.568.062,1.375.1,2.182a1.467,1.467,0,0,0,1.383,1.6,6.948,6.948,0,0,0,3.27-.264,2.181,2.181,0,0,0,1.812-2.238,31.747,31.747,0,0,0-.361-4.722.9.9,0,0,0-.856-.823,8.342,8.342,0,0,0-3.926.271,1.877,1.877,0,0,0-1.324,1.489A14.452,14.452,0,0,0,326.767-417.083Zm.012-9.164c.02.373.056,1.042.09,1.711a1.385,1.385,0,0,0,1.224,1.517,6.325,6.325,0,0,0,2.925-.095c1.8-.409,2.38-1.156,2.353-3.024,0-.155-.011-.31-.026-.463-.108-1.077-.23-2.152-.324-3.231-.072-.822-.326-1.137-1.148-1.232a9.119,9.119,0,0,0-3.389.208,2.06,2.06,0,0,0-1.7,2.144C326.752-427.991,326.779-427.267,326.779-426.247Zm19.8-19.333c-1.386,0-2.713.008-4.04,0a38.88,38.88,0,0,0-4.029.091c-.189.018-.475-.026-.457.272.016.268.289.249.485.264q.967.074,1.935.13c3.879.227,7.756-.136,11.635-.031a11.716,11.716,0,0,0,2.786-.3c.147-.032.35-.046.33-.246-.016-.158-.2-.146-.338-.156-.407-.031-.814-.088-1.221-.089C351.28-445.652,348.9-445.726,346.576-445.581Zm.363-3.685c-.885,0-1.77,0-2.654,0-1.939.007-3.879-.109-5.816.079-.188.018-.423,0-.423.256s.226.256.419.271c1.442.116,2.885.211,4.332.212,2.944,0,5.885-.178,8.83-.1a13.8,13.8,0,0,0,2.995-.253c.2-.04.6.042.575-.267-.018-.28-.387-.194-.606-.207A70.672,70.672,0,0,0,346.939-449.265Zm-.393,2.584c1.536-.073,3.425.01,5.314-.014A15.836,15.836,0,0,0,354.9-447c.134-.028.312-.036.315-.2,0-.215-.2-.193-.343-.2-.7-.041-1.392-.085-2.089-.1-2.876-.08-5.75.1-8.626.1-1.871,0-3.743-.11-5.612.074-.2.02-.516-.054-.5.28.016.258.292.238.493.254A56.672,56.672,0,0,0,346.546-446.681Zm-.653,11.029c-.34,0-.68,0-1.02,0-2.023.007-4.047-.152-6.069.022-.152.013-.307.014-.458.036s-.318.074-.305.275c.01.164.141.215.29.229.186.018.371.052.557.066,4.47.347,8.939,0,13.409-.008a9.455,9.455,0,0,0,1.557-.252c.118-.02.249-.052.228-.215-.017-.13-.133-.133-.236-.145-.236-.027-.472-.08-.708-.084C350.722-435.763,348.307-435.8,345.893-435.652Zm.046-1.884c-1.224,0-2.449.019-3.673-.005-1.276-.025-2.55-.009-3.823.093-.181.014-.416.02-.4.286.013.223.228.23.393.244.678.056,1.356.108,2.035.151,3.4.215,6.8-.165,10.2-.028a12.783,12.783,0,0,0,1.782-.094c.472-.047.939-.15,1.406-.238.115-.021.249-.067.222-.226-.02-.122-.135-.133-.24-.144-.287-.028-.574-.087-.862-.089C350.632-437.6,348.285-437.66,345.939-437.536Zm.2-1.852c-1.507,0-2.918,0-4.33,0a30.9,30.9,0,0,0-3.363.1c-.184.019-.418.013-.4.28.015.212.223.235.394.249.61.048,1.22.1,1.831.133,3.638.227,7.274-.13,10.912-.029a10.356,10.356,0,0,0,2.629-.3c.131-.031.3-.063.267-.245-.023-.142-.172-.141-.291-.151-.372-.031-.745-.088-1.117-.09C350.458-439.452,348.248-439.519,346.135-439.387Zm-2.551,23.557a21.735,21.735,0,0,1-2.652,0,18.1,18.1,0,0,0-2.446.071c-.194.017-.453,0-.447.3.005.26.244.254.422.276.439.053.88.088,1.32.131,2.193.216,4.384-.159,6.578-.027a7.218,7.218,0,0,0,2.178-.2c.24-.06.676-.021.646-.347-.026-.291-.451-.235-.7-.241C346.849-415.907,345.216-415.947,343.585-415.83Zm-.273-1.074c1.207-.1,2.415,0,3.622-.029a7.143,7.143,0,0,0,2.011-.3c.136-.043.284-.09.261-.26-.019-.139-.164-.152-.285-.163-.355-.031-.71-.083-1.065-.092-2.738-.068-5.474.173-8.213.069a7.46,7.46,0,0,0-1.12.065c-.185.021-.467-.023-.481.266-.016.327.274.292.483.317A22.651,22.651,0,0,0,343.311-416.9Zm.348-11.79h-2.134a21.033,21.033,0,0,0-3.109.08c-.173.026-.364.019-.378.249-.016.267.191.27.384.3a13.67,13.67,0,0,0,2.083.184c2.33-.023,4.66-.062,6.991-.1a4.911,4.911,0,0,0,1.4-.252c.133-.042.344-.047.306-.268-.028-.163-.2-.161-.332-.184a3.3,3.3,0,0,0-.406-.038A37.05,37.05,0,0,0,343.659-428.694Zm-2.225,1.85a21.279,21.279,0,0,0-3.025.081c-.171.027-.366.018-.372.254-.007.263.2.268.391.294a19.572,19.572,0,0,0,2.7.2c2.059-.013,4.114-.151,6.175-.112a4.984,4.984,0,0,0,1.653-.28c.118-.039.25-.069.254-.209,0-.184-.16-.205-.292-.215-.509-.039-1.018-.074-1.527-.1C345.446-427.016,343.51-426.773,341.434-426.844Zm2.329,2.582c1.1,0,2.159,0,3.214,0a6.528,6.528,0,0,0,1.814-.25c.16-.047.437-.028.409-.292-.023-.215-.262-.175-.421-.192a9.012,9.012,0,0,0-1.016-.08q-4.312.036-8.624.092a4.785,4.785,0,0,0-.659.062c-.189.028-.464-.014-.44.3.022.283.279.242.477.269A22.978,22.978,0,0,0,343.763-424.262Zm-.025,5.479c1.124,0,2.162.006,3.2,0a6.749,6.749,0,0,0,2.011-.3c.138-.044.283-.089.256-.259-.021-.133-.163-.155-.286-.166-.373-.031-.745-.093-1.117-.091q-4.337.033-8.674.09a3.2,3.2,0,0,0-.609.053c-.181.037-.468-.038-.477.264-.01.331.276.281.486.31A22.884,22.884,0,0,0,343.737-418.783Z" transform="translate(-7.811 -8.283)"/><path class="c" d="M563.919-360.37c-.1-.91-.345-1.581-1.168-1.85-.237-.077-.089-.219-.031-.319.221-.387.451-.769.684-1.148,2.556-4.151,5.444-8.068,8.266-12.031a19.757,19.757,0,0,0,1.269-2.115c.187-.347.318-.346.6-.119a5.675,5.675,0,0,1,1.139,1.173.5.5,0,0,1-.019.648c-2.836,4.227-5.711,8.428-8.45,12.721-.561.88-1.225,1.693-1.846,2.534C564.252-360.73,564.121-360.6,563.919-360.37Z" transform="translate(-213.852 -76.841)"/><path class="c" d="M547.573-372.12a1.578,1.578,0,0,0-1.518-1.217c.587-.963,1.109-1.922,1.726-2.814,2.506-3.623,4.864-7.346,7.29-11.023.377-.572.744-1.153,1.088-1.746.15-.26.28-.342.551-.169q.647.411,1.322.775c.307.166.321.295.139.621a56.142,56.142,0,0,1-4.279,5.97c-2.154,2.888-4.031,5.962-5.943,9.013C547.84-372.537,547.729-372.365,547.573-372.12Z" transform="translate(-199.547 -67.301)"/><path class="d" d="M640.477-423.407a6.813,6.813,0,0,0-3.49-3.3c-.357-.165-.349-.269-.138-.553a3.89,3.89,0,0,1,3.733-1.62,1.619,1.619,0,0,1,1.312,1.905A10.554,10.554,0,0,1,640.477-423.407Z" transform="translate(-277.821 -33.023)"/><path class="e" d="M534-262.945c.125-.764.216-1.427.347-2.082a1.586,1.586,0,0,1,.61-.982.568.568,0,0,1,.966.3,6.544,6.544,0,0,1,.151.911.588.588,0,0,0,.847.516,1.232,1.232,0,0,1,1.284.967.373.373,0,0,1-.19.289c-.642.478-1.286.953-1.926,1.435-.15.113-.245.125-.369-.05a2.454,2.454,0,0,0-1.468-1.037C534.054-262.725,533.933-262.818,534-262.945Z" transform="translate(-189.121 -173.312)"/><path class="f" d="M628.786-400.063a14.921,14.921,0,0,0-4.319-3.029c.039-.081.093-.2.151-.311.638-1.254.745-1.289,1.963-.631a9.658,9.658,0,0,1,2.206,1.737,1.234,1.234,0,0,1,.3,1.494C628.98-400.572,628.893-400.329,628.786-400.063Z" transform="translate(-267.256 -54.133)"/><path class="g" d="M531.455-233.99a12.105,12.105,0,0,1,.2-1.822c.008-.2.154-.184.3-.132a2.336,2.336,0,0,1,.946.763c.146.171.038.277-.109.367Z" transform="translate(-186.932 -199.336)"/><path class="h" d="M350.686-332.845c.748-.79,1.371-1.539,2.089-2.195a6.815,6.815,0,0,1,1.532-1.1c.181-.091.373-.2.559,0s.07.383-.022.567a7.252,7.252,0,0,1-1.6,1.991c-.763.715-1.467,1.485-2.178,2.25a.917.917,0,0,0-.238.6c-.142,1.62-.61,2.164-2.172,2.539a6.805,6.805,0,0,1-2.778.2c-1.108-.193-1.524-.695-1.553-1.682-.036-1.239-.081-2.479-.075-3.718.008-1.622.544-2.251,2.119-2.587a8.316,8.316,0,0,1,3.142-.09c.681.115.921.4.982,1.106C350.545-334.3,350.612-333.633,350.686-332.845Zm-.833,2.611a1.4,1.4,0,0,1-.827.1,2.222,2.222,0,0,1-1.038-.879,13.188,13.188,0,0,0-1.183-1.615c-.175-.169-.3-.347-.12-.578a.493.493,0,0,1,.631-.182,1.911,1.911,0,0,1,.762.667,6.8,6.8,0,0,0,.834,1.042c.161.146.353.254.555.14a.613.613,0,0,0,.383-.511,10.445,10.445,0,0,0-.157-2.671.634.634,0,0,0-.771-.555c-.827.1-1.652.212-2.479.31-1.168.138-1.464.6-1.441,1.872.019,1.015.061,2.03.084,3.046.021.932.175,1.122,1.114,1.1.9-.023,1.8-.1,2.7-.194C349.466-329.206,349.758-329.555,349.853-330.234Z" transform="translate(-25.283 -112.914)"/><path class="h" d="M350.631-402.614c.533-.655.959-1.189,1.4-1.712a3.679,3.679,0,0,1,1.342-1.086c.18-.078.355-.13.52.027a.463.463,0,0,1,.07.567,4.559,4.559,0,0,1-.895,1.37c-.413.459-.839.9-1.255,1.359a3.31,3.31,0,0,0-1.1,2.268,1.956,1.956,0,0,1-1.616,1.883,7.259,7.259,0,0,1-3.471.283,1.444,1.444,0,0,1-1.319-1.554c-.087-1.135-.073-2.272-.1-3.408a6.138,6.138,0,0,1,.07-1.183,1.965,1.965,0,0,1,1.526-1.677,8.775,8.775,0,0,1,3.642-.226c.688.1.952.426,1.01,1.144C350.5-403.961,350.561-403.362,350.631-402.614Zm-.843,2.725c-.385.258-.806.5-1.219.153a14.054,14.054,0,0,1-2.279-2.425c-.22-.3-.039-.614.327-.671a.8.8,0,0,1,.608.209,15.5,15.5,0,0,1,1.555,1.487c.091.086.185.28.326.162.3-.248.666-.5.7-.909a8.22,8.22,0,0,0-.118-2.363.712.712,0,0,0-.905-.648c-.79.111-1.585.194-2.374.313-1.132.172-1.464.567-1.443,1.714s.057,2.3.094,3.457c.02.618.155.784.747.818a17.9,17.9,0,0,0,3.148-.2C349.536-398.863,349.8-399.266,349.788-399.889Z" transform="translate(-25.246 -52.978)"/><path class="i" d="M344.2-191.289a14.46,14.46,0,0,1,.1-2.5,1.877,1.877,0,0,1,1.324-1.489,8.343,8.343,0,0,1,3.926-.271.9.9,0,0,1,.856.823,31.752,31.752,0,0,1,.361,4.722,2.181,2.181,0,0,1-1.812,2.238,6.947,6.947,0,0,1-3.27.264,1.467,1.467,0,0,1-1.383-1.6C344.267-189.913,344.231-190.721,344.2-191.289Zm5.634-.178a14.294,14.294,0,0,0-.126-2.52c-.145-.711-.267-.827-.952-.761q-1.19.115-2.372.306c-1.145.185-1.462.6-1.425,1.774q.051,1.623.09,3.247c.02.786.18.988.969.971.915-.019,1.83-.1,2.743-.178a1.063,1.063,0,0,0,1.07-1.189C349.849-190.367,349.838-190.917,349.838-191.467Z" transform="translate(-25.248 -234.077)"/><path class="h" d="M344.235-260.775c0-1.02-.027-1.743.006-2.464a2.06,2.06,0,0,1,1.7-2.144,9.119,9.119,0,0,1,3.389-.208c.821.1,1.076.41,1.148,1.232.094,1.078.216,2.154.324,3.231.015.154.024.309.026.463.027,1.869-.555,2.616-2.353,3.024a6.325,6.325,0,0,1-2.925.095,1.385,1.385,0,0,1-1.224-1.517C344.291-259.733,344.255-260.4,344.235-260.775Zm5.622-.7a13.518,13.518,0,0,0-.165-2.67.7.7,0,0,0-.872-.628c-.808.107-1.619.191-2.423.321-1.115.181-1.437.588-1.415,1.742.022,1.134.058,2.268.093,3.4.021.666.151.8.823.845a22.444,22.444,0,0,0,2.946-.167c.68-.043.995-.484,1.01-1.195C349.867-260.374,349.857-260.924,349.857-261.474Z" transform="translate(-25.266 -173.755)"/><path class="j" d="M435.387-370.79c2.322-.145,4.7-.071,7.086-.064.407,0,.814.058,1.221.089.135.01.321,0,.338.156.021.2-.183.214-.33.246a11.717,11.717,0,0,1-2.786.3c-3.879-.1-7.756.258-11.635.031q-.968-.057-1.935-.13c-.2-.015-.47,0-.485-.264-.017-.3.268-.254.457-.272a38.888,38.888,0,0,1,4.029-.091C432.674-370.782,434-370.79,435.387-370.79Z" transform="translate(-96.623 -83.073)"/><path class="j" d="M435.733-397.591a70.688,70.688,0,0,1,7.653-.011c.218.013.588-.073.606.207.02.309-.372.228-.575.267a13.8,13.8,0,0,1-2.995.253c-2.945-.075-5.886.1-8.83.1-1.448,0-2.89-.1-4.332-.212-.193-.015-.419-.028-.419-.271s.235-.237.423-.256c1.937-.188,3.877-.073,5.816-.079C433.963-397.593,434.848-397.591,435.733-397.591Z" transform="translate(-96.605 -59.957)"/><path class="j" d="M435.363-383.5a56.676,56.676,0,0,1-8-.122c-.2-.017-.477,0-.493-.254-.02-.334.293-.26.5-.28,1.868-.184,3.741-.076,5.612-.074,2.876,0,5.749-.178,8.626-.1.7.019,1.393.064,2.089.1.141.008.347-.013.343.2,0,.165-.181.173-.315.2a15.837,15.837,0,0,1-3.042.308C438.788-383.493,436.9-383.576,435.363-383.5Z" transform="translate(-96.628 -71.461)"/><path class="j" d="M434.654-299.036c2.414-.148,4.829-.111,7.244-.074.236,0,.472.057.708.084.1.012.219.014.236.145.021.163-.11.195-.228.215a9.455,9.455,0,0,1-1.557.252c-4.47.013-8.939.355-13.409.008-.186-.014-.371-.048-.557-.066-.149-.014-.279-.065-.29-.229-.012-.2.149-.252.305-.275s.305-.023.458-.036c2.023-.174,4.046-.014,6.069-.022C433.975-299.037,434.314-299.036,434.654-299.036Z" transform="translate(-96.572 -144.899)"/><path class="k" d="M434.717-312.493c2.345-.124,4.692-.067,7.039-.048.287,0,.574.061.862.089.105.01.22.022.241.144.026.159-.107.2-.222.226-.467.087-.934.19-1.406.238a12.791,12.791,0,0,1-1.782.094c-3.4-.137-6.8.243-10.2.028-.679-.043-1.357-.095-2.035-.151-.165-.014-.38-.021-.393-.244-.016-.266.219-.272.4-.286,1.272-.1,2.546-.118,3.823-.093C432.268-312.473,433.493-312.492,434.717-312.493Z" transform="translate(-96.588 -133.326)"/><path class="j" d="M434.907-325.909c2.113-.132,4.323-.064,6.533-.054.373,0,.745.059,1.118.09.119.01.269.009.291.151.029.182-.136.214-.267.245a10.354,10.354,0,0,1-2.629.3c-3.638-.1-7.275.256-10.912.029-.611-.038-1.221-.085-1.831-.133-.171-.014-.379-.037-.394-.249-.018-.267.215-.26.4-.28a30.9,30.9,0,0,1,3.363-.1C431.989-325.9,433.4-325.909,434.907-325.909Z" transform="translate(-96.583 -121.761)"/><path class="k" d="M432.331-155.374c1.631-.117,3.265-.077,4.9-.037.249.006.674-.049.7.241.029.326-.406.288-.646.347a7.219,7.219,0,0,1-2.178.2c-2.194-.133-4.385.243-6.578.027-.44-.043-.881-.078-1.32-.131-.177-.022-.416-.016-.422-.276-.006-.3.253-.283.447-.3a18.1,18.1,0,0,1,2.447-.071A21.722,21.722,0,0,0,432.331-155.374Z" transform="translate(-96.558 -268.738)"/><path class="j" d="M432.075-167.99a22.647,22.647,0,0,1-4.786-.124c-.21-.025-.5.01-.483-.317.014-.289.3-.244.481-.266a7.457,7.457,0,0,1,1.12-.065c2.739.1,5.475-.137,8.213-.069.356.009.71.061,1.065.092.122.011.266.024.285.163.024.17-.125.217-.261.26a7.142,7.142,0,0,1-2.011.3C434.49-167.994,433.282-168.089,432.075-167.99Z" transform="translate(-96.575 -257.197)"/><path class="k" d="M432.393-248.6a37.049,37.049,0,0,1,4.8-.034,3.292,3.292,0,0,1,.406.038c.129.023.3.022.332.184.038.221-.173.225-.306.268a4.911,4.911,0,0,1-1.4.252c-2.33.042-4.66.081-6.991.1a13.666,13.666,0,0,1-2.083-.184c-.193-.028-.4-.031-.384-.3.014-.23.2-.223.378-.249a21.036,21.036,0,0,1,3.109-.08Z" transform="translate(-96.545 -188.376)"/><path class="j" d="M430.171-235.264c2.076.07,4.012-.173,5.953-.086.509.023,1.019.058,1.527.1.131.01.3.031.292.215,0,.141-.136.17-.254.209a4.983,4.983,0,0,1-1.653.28c-2.06-.04-4.116.1-6.175.112a19.567,19.567,0,0,1-2.7-.2c-.194-.026-.4-.03-.391-.294.006-.236.2-.227.372-.254A21.283,21.283,0,0,1,430.171-235.264Z" transform="translate(-96.548 -199.862)"/><path class="j" d="M432.5-221a22.979,22.979,0,0,1-5.247-.1c-.2-.027-.455.014-.477-.269-.024-.309.251-.267.44-.3a4.781,4.781,0,0,1,.659-.062q4.312-.052,8.624-.092a9.011,9.011,0,0,1,1.016.08c.16.017.4-.023.422.192.028.264-.249.246-.409.292a6.528,6.528,0,0,1-1.814.25C434.662-221,433.607-221,432.5-221Z" transform="translate(-96.551 -211.54)"/><path class="j" d="M432.5-181.343a22.882,22.882,0,0,1-5.21-.1c-.21-.028-.5.021-.486-.31.01-.3.3-.227.477-.264a3.2,3.2,0,0,1,.609-.053q4.337-.05,8.674-.09c.372,0,.745.06,1.117.09.123.01.264.033.286.166.027.17-.118.215-.256.259a6.749,6.749,0,0,1-2.011.3C434.663-181.336,433.625-181.343,432.5-181.343Z" transform="translate(-96.575 -245.723)"/><path class="l" d="M354.639-324.211c-.095.68-.386,1.028-.958,1.086-.9.091-1.8.171-2.7.194-.939.024-1.093-.167-1.114-1.1-.023-1.015-.065-2.03-.084-3.046-.024-1.277.272-1.734,1.441-1.872.827-.1,1.652-.213,2.479-.31a.634.634,0,0,1,.771.555,10.446,10.446,0,0,1,.157,2.671.613.613,0,0,1-.383.511c-.2.114-.394.006-.555-.14a6.8,6.8,0,0,1-.834-1.042,1.91,1.91,0,0,0-.762-.667.493.493,0,0,0-.631.182c-.182.231-.055.409.12.578a13.188,13.188,0,0,1,1.183,1.615,2.222,2.222,0,0,0,1.038.879A1.4,1.4,0,0,0,354.639-324.211Z" transform="translate(-30.069 -118.938)"/><path class="l" d="M354.592-394.339c.009.624-.252,1.026-.837,1.1a17.892,17.892,0,0,1-3.148.2c-.592-.034-.728-.2-.747-.818-.036-1.152-.073-2.3-.094-3.457s.311-1.542,1.443-1.714c.789-.12,1.583-.2,2.374-.313a.712.712,0,0,1,.905.648,8.219,8.219,0,0,1,.118,2.363c-.03.405-.4.661-.7.909-.141.118-.235-.076-.326-.162a15.507,15.507,0,0,0-1.555-1.487.8.8,0,0,0-.608-.209c-.366.058-.547.375-.327.671a14.054,14.054,0,0,0,2.279,2.425C353.786-393.84,354.207-394.081,354.592-394.339Z" transform="translate(-30.05 -58.528)"/><path class="l" d="M354.625-185.82c0,.55.011,1.1,0,1.65a1.063,1.063,0,0,1-1.07,1.189c-.913.083-1.828.159-2.743.178-.789.017-.949-.184-.969-.971q-.041-1.624-.09-3.247c-.037-1.172.281-1.588,1.425-1.774q1.18-.191,2.372-.306c.686-.066.807.049.952.761A14.291,14.291,0,0,1,354.625-185.82Z" transform="translate(-30.035 -239.724)"/><path class="l" d="M354.642-256.008c0,.55.01,1.1,0,1.651-.016.711-.331,1.152-1.011,1.195a22.441,22.441,0,0,1-2.946.167c-.671-.046-.8-.18-.823-.845-.035-1.134-.07-2.268-.092-3.4-.023-1.154.3-1.561,1.415-1.742.8-.13,1.615-.214,2.423-.321a.7.7,0,0,1,.872.628A13.514,13.514,0,0,1,354.642-256.008Z" transform="translate(-30.052 -179.222)"/></g></svg>