<svg xmlns="http://www.w3.org/2000/svg" width="47.526" height="47.586" viewBox="0 0 47.526 47.586"><defs><style>.a{fill:#fff;stroke:#272fbe;}</style></defs><g transform="translate(0.514 0.541)"><path class="a" d="M808-299.214c-.1-.379-.191-.757-.283-1.134a1.241,1.241,0,0,0-.6-.814,1.447,1.447,0,0,0-1.147-.1,1.394,1.394,0,0,0-.848,1.821c.045.156.1.311.149.465a7.306,7.306,0,0,1,.236.8c.178.827.339,1.649.509,2.52.067.344.136.693.207,1.051l.11.553h-.564c-.251,0-.477,0-.687-.005-.4,0-.744-.009-1.073.009a1.416,1.416,0,0,0-1.393,1.382,1.4,1.4,0,0,0,1.381,1.383c.362.019.737.013,1.1.009.171,0,.342,0,.513,0h.448l.015.447c.148,4.345-2.53,9.558-6.99,13.6-3.782,3.432-8.078,5.212-11.49,4.763l-.4-.053v-.406c0-.17,0-.342.007-.514.007-.362.015-.737-.013-1.092a1.4,1.4,0,0,0-1.372-1.317,1.388,1.388,0,0,0-1.388,1.372c-.019.361-.014.72-.009,1.1,0,.174,0,.348,0,.522v.489l-.488-.027a19.4,19.4,0,0,1-13.046-6.3,18.475,18.475,0,0,1-5.3-12.048l-.005-.428L766-291.2c.233-.021.469-.033.7-.045a7.171,7.171,0,0,0,1.413-.163,1.094,1.094,0,0,0,.85-1.195c-.116-1.393-.857-1.459-2.265-1.46-.241,0-.49,0-.732-.014l-.46-.026.023-.46a19.285,19.285,0,0,1,6.128-12.858,18.6,18.6,0,0,1,12.212-5.456l.431-.008.039.429c.021.235.033.471.045.7a7.159,7.159,0,0,0,.162,1.409,1.1,1.1,0,0,0,1.191.855c1.4-.115,1.464-.86,1.474-2.4,0-.268,0-.545.019-.822l.03-.554.539.128c.473.112.937.218,1.393.323,1.038.238,2.019.462,3,.735,1.186.329,1.925.083,2.2-.731a1.259,1.259,0,0,0-.036-1,2.128,2.128,0,0,0-1.314-.937,23.561,23.561,0,0,0-7.244-1.168,22.014,22.014,0,0,0-2.422.133A23.193,23.193,0,0,0,762.707-290.1a22.787,22.787,0,0,0,8.789,15.76,23.022,23.022,0,0,0,17.613,4.711,23.372,23.372,0,0,0,19.88-24.29A28.931,28.931,0,0,0,808-299.214Z" transform="translate(-762.579 315.911)"/><path class="a" d="M834.922-297.37a1.7,1.7,0,0,1-1.663-.467c-2.248-2.3-4.1-4.149-5.822-5.809a2.507,2.507,0,0,0-1.258-.638A1.14,1.14,0,0,0,826-304.3a1.194,1.194,0,0,0-1.033.773,1.38,1.38,0,0,0,.361,1.678l1.326,1.329c1.493,1.5,3.037,3.046,4.57,4.552a1.634,1.634,0,0,1,.5,1.888,4.88,4.88,0,0,0,.74,4.419,4.968,4.968,0,0,0,4.04,2.067h.026a4.977,4.977,0,0,0,4.038-2.082,4.933,4.933,0,0,0,.721-4.446,1.578,1.578,0,0,1,.475-1.811c5.05-5.028,10.173-10.154,15.126-15.111l2.019-2.019a5.092,5.092,0,0,0,.579-.639,1.3,1.3,0,0,0-.152-1.764,1.308,1.308,0,0,0-1.767-.143,4.734,4.734,0,0,0-.583.529l-.107.108-2.311,2.309c-4.844,4.841-9.853,9.847-14.765,14.783a1.786,1.786,0,0,1-1.736.5A12.169,12.169,0,0,0,834.922-297.37Zm3.838,4.694a2.261,2.261,0,0,1-.677,1.633,2.246,2.246,0,0,1-1.57.662h-.055a2.3,2.3,0,0,1-2.2-2.276,2.292,2.292,0,0,1,2.246-2.229h.01A2.261,2.261,0,0,1,838.76-292.676Z" transform="translate(-813.293 315.892)"/></g></svg>