<svg xmlns="http://www.w3.org/2000/svg" width="53.911" height="53.843" viewBox="0 0 53.911 53.843"><defs><style>.a{fill:#28292a;}.b{fill:#2a2a29;}.c{fill:#292a29;}.d{fill:#292b2d;}.e{fill:#2f2f2f;}.f{fill:#94d05a;}.g{fill:#6150ff;}</style></defs><g transform="translate(-599.691 -16.718)"><path class="a" d="M658.517,235.422c.7-.189.947,0,.958.714a37.453,37.453,0,0,1-.383,6.687,9.83,9.83,0,0,1-2.941,6.085,8.731,8.731,0,0,1-6.664,1.91,7.086,7.086,0,0,1-6.609-5.06,22.125,22.125,0,0,1-1.064-7.406c-.043-2.06-.131-4.112-.311-6.163a12.343,12.343,0,0,1,.07-2.974,2.2,2.2,0,0,1,1.842-2.051,6.714,6.714,0,0,1,2.64-.068,1.816,1.816,0,0,1,1.7,1.748,16.8,16.8,0,0,1-.047,3.873,38.284,38.284,0,0,0,.255,9.338,6.436,6.436,0,0,0,.857,2.329,2.015,2.015,0,0,0,2.621.875,2.8,2.8,0,0,0,2.081-2.753,86.118,86.118,0,0,0-.136-10.8,12.33,12.33,0,0,1,.114-2.548,2.207,2.207,0,0,1,1.763-1.952,5.762,5.762,0,0,1,3,.064,1.892,1.892,0,0,1,1.312,1.872,24.137,24.137,0,0,1-.1,2.977c-.017.379-.333.46-.622.555-.673-.06-.728-.169-.691-.926a9.557,9.557,0,0,0-.041-2.434,1.364,1.364,0,0,0-1.74-1.257c-1.067.1-1.509.544-1.5,1.58s.067,2.087.09,3.131c.042,1.872.021,3.745.14,5.615a.718.718,0,0,0-.01.468c-.037.849-.07,1.7-.11,2.548a5.413,5.413,0,0,1-.88,3.17c-.12.224-.413.3-.482.568a4.614,4.614,0,0,1-.95.636,11.533,11.533,0,0,1-2.189.53l-1.334-.281-.386-.208-.81-.639a.8.8,0,0,0-.294-.344l-.557-.847a.556.556,0,0,0-.18-.4,10.1,10.1,0,0,1-.587-3.807c.018-.814-.04-1.629-.064-2.444a.69.69,0,0,0,0-.459q0-.727,0-1.453a.631.631,0,0,0-.006-.474c.122-1.4.055-2.8.1-4.192q-.006-.218-.013-.436a2.134,2.134,0,0,0,0-1.505,1,1,0,0,0-.7-.516,1.815,1.815,0,0,0-2.834,1.492,1.192,1.192,0,0,0-.055.642,4.59,4.59,0,0,0,.071,1.408,1.179,1.179,0,0,0,.027.609q.134,1.924.268,3.848l-.024.519-.023,1.457-.017.488a16.159,16.159,0,0,0,.023,3.643,7.138,7.138,0,0,0,.69,2.747c.025.149.049.3.214.365a6.431,6.431,0,0,0,2.609,3.026.966.966,0,0,0,.558.327,6.279,6.279,0,0,0,2.593.919,3.209,3.209,0,0,0,1.013.031,4.655,4.655,0,0,0,1.374-.067A6.969,6.969,0,0,0,657.1,245.8a8.081,8.081,0,0,0,.932-3.029l.05-.343a31.161,31.161,0,0,0,.075-4.822q0-.252.008-.5,0-.526.005-1.051C658.168,235.777,658.222,235.533,658.517,235.422Z" transform="translate(-35.811 -180.338)"/><path class="b" d="M808.376,36.189c-.717-1.055-1.611-1.966-2.41-2.955a10.374,10.374,0,0,1-2.426-4.284q0-.139,0-.278a6.465,6.465,0,0,1,1.606-3.445c.3-.394.606-.778.908-1.166a2.066,2.066,0,0,0,.5-.5l-.008.006.114-.117-.011.01.1-.114.016-.018a.1.1,0,0,0,.057-.053,17.287,17.287,0,0,0,2.809-3.7c.047-.091.139-.166.1-.287l0,.009c.086.005.111-.05.12-.122.261-.276.563-.543.231-.962a1.293,1.293,0,0,0-1.426-.512,5.4,5.4,0,0,0-3.176,2.867,23.568,23.568,0,0,1-2.507,3.718,1.935,1.935,0,0,1-1.97.751.8.8,0,0,0-.412-.22,8.617,8.617,0,0,1-1.725-1.74c-.258-.308-.405-.763-.65-1.126-.058-.153-.092-.325-.288-.37a5.371,5.371,0,0,0-1.161-1.889.622.622,0,0,0-.326-.406,1.985,1.985,0,0,0-.875-.759.7.7,0,0,0-.419-.267,2.655,2.655,0,0,0-1.324-.336c-.6.019-.829.351-.638.919a2.9,2.9,0,0,0,.206.463c.426.78.384.885-.486,1.169a1,1,0,0,1-.653-.417,3.929,3.929,0,0,1-.794-1.887.666.666,0,0,1,.357-.753,4.47,4.47,0,0,1,4.791,0,3.072,3.072,0,0,1,1.031,1.2c.636,1.1,1.24,2.228,1.875,3.333a6.131,6.131,0,0,0,1.382,1.793c.6.483,1.033.377,1.554-.192a25.486,25.486,0,0,0,2.918-4.556,3.986,3.986,0,0,1,2.827-2.193,4.709,4.709,0,0,1,3.088.5.644.644,0,0,1,.354.79,5.785,5.785,0,0,1-1.067,2.294c-1.315,1.833-2.8,3.533-4.252,5.251a16.593,16.593,0,0,0-1.25,1.961,1.809,1.809,0,0,0-.047,1.691,9.412,9.412,0,0,0,1.62,2.545c1.27,1.529,2.519,3.074,3.719,4.658a6.347,6.347,0,0,1,1.259,2.551.812.812,0,0,1-.453,1.006,4.594,4.594,0,0,1-4.194.185,2.976,2.976,0,0,1-1.3-1.141c-.673-1-1.168-2.106-1.785-3.14a9.5,9.5,0,0,0-1.477-2.127c-.717-.685-1.32-.593-1.944.191a49.26,49.26,0,0,0-2.982,4.768,3.574,3.574,0,0,1-2.047,1.67,4.591,4.591,0,0,1-3.6-.36.637.637,0,0,1-.37-.776,8.4,8.4,0,0,1,1.434-3.229,41.643,41.643,0,0,1,2.728-3.472c.693-.832,1.332-1.7,1.963-2.584a1.946,1.946,0,0,0,.116-2.237,26.468,26.468,0,0,0-2.156-3.224c-.348-.471-.7-.937-1.05-1.408-.435-.59-.422-.646.206-1.071a.93.93,0,0,1,.979.446c.913,1.207,2,2.282,2.81,3.568.206.325.4.66.6.99a1.658,1.658,0,0,0,.209.644l.13,1.078q-.026.2-.052.4a9.252,9.252,0,0,1-1.9,2.935c-.952,1.192-1.918,2.373-2.835,3.592a9,9,0,0,0-1.452,2.5,1.094,1.094,0,0,0,.324,1.413,1.076,1.076,0,0,0,1.378,0c.078,0,.144-.01.147-.109l0,0a2.794,2.794,0,0,0,1.273-1.063,34.271,34.271,0,0,0,2.7-4,13.962,13.962,0,0,1,1-1.439,1.964,1.964,0,0,1,3.06-.114c.234.238.447.5.669.748l.162.252c.732,1.052,1.342,2.186,2.13,3.2a.629.629,0,0,0,.28.413,3.583,3.583,0,0,0,.7.961.694.694,0,0,0,.275.317,2.716,2.716,0,0,0,1.03.848.984.984,0,0,0,1.282.074c.633-.441.656-1.03.07-1.832a.719.719,0,0,0-.333-.48,2.793,2.793,0,0,0-.688-.88A.754.754,0,0,0,808.376,36.189Z" transform="translate(-164.456)"/><path class="c" d="M660.322,26.023c.258.025.337.163.352.424a45.754,45.754,0,0,1-.118,7.074,9.005,9.005,0,0,1-7.36,7.534,8.487,8.487,0,0,1-8.294-3.179,9.631,9.631,0,0,1-1.912-5.864c-.044-1.827-.018-3.656-.02-5.484,0-1.863.046-3.726-.122-5.586a7.018,7.018,0,0,1,.007-1.117c.09-1.276.567-1.8,2.019-2.014a7.223,7.223,0,0,1,2.746.134,1.271,1.271,0,0,1,1.12,1.173,46.317,46.317,0,0,1,.145,7.124,39.616,39.616,0,0,0,.158,6.538,6.6,6.6,0,0,0,.649,2.233,1.886,1.886,0,0,0,.832.933,1.193,1.193,0,0,0,.868.284,3.4,3.4,0,0,0,3.186-2.348,9.654,9.654,0,0,0,.267-2.424c-.009-2.112-.049-4.224-.042-6.336,0-1.35-.048-2.7-.169-4.04a6.328,6.328,0,0,1,.03-1.381,1.948,1.948,0,0,1,1.93-1.9,9.625,9.625,0,0,1,2.387-.011c1.157.154,1.635.592,1.763,1.751a19.634,19.634,0,0,1-.089,2.976c-.011.26-.215.339-.411.431a2.109,2.109,0,0,1-.838.106,9.261,9.261,0,0,1-.033-1.308l.053-.424a4.929,4.929,0,0,0-.066-1.685,1.256,1.256,0,0,0-1.411-1.189c-.424-.01-.849.014-1.273.01a.5.5,0,0,0-.568.548c.012,1.254-.076,2.509.047,3.761a.575.575,0,0,0-.04.375,5.813,5.813,0,0,0,.049,1.437.947.947,0,0,0-.053.493c0,1.5-.032,3.007.028,4.511.07,1.766.186,3.549-.712,5.186a4.485,4.485,0,0,1-1.6,1.321,5.424,5.424,0,0,1-3.881.231,1.991,1.991,0,0,0-.666-.384l-.756-.691a.5.5,0,0,0-.217-.336l-.5-1.023a.913.913,0,0,0-.136-.448,22.711,22.711,0,0,1-.21-4.68c.032-1.45.058-2.9.19-4.346a20.426,20.426,0,0,0,.113-3.552,2.343,2.343,0,0,0-1.267-2.217,1.225,1.225,0,0,0-1.509.083c-.064.028-.128.056-.1.147l0-.006c-.4.112-.493.476-.607.793a4.583,4.583,0,0,0-.245,1.3c-.107,1.826.21,3.631.253,5.449q.045,1.932.092,3.864l.008.337a20.539,20.539,0,0,0,.529,3.932l.1.437a6.7,6.7,0,0,0,.434,1.291.5.5,0,0,0,.163.328,2.132,2.132,0,0,0,.534.97.784.784,0,0,0,.326.515,4.163,4.163,0,0,0,1.625,1.478.433.433,0,0,0,.392.2,2.245,2.245,0,0,0,1.059.443.349.349,0,0,0,.321.081,3.826,3.826,0,0,0,1.425.212,2.274,2.274,0,0,0,.907-.01,3.967,3.967,0,0,0,1.628-.139,7.316,7.316,0,0,0,5.252-6.678c.167-.3.068-.624.1-.936l-.009.006c.107.026.072-.053.076-.1a52.38,52.38,0,0,0,.124-5.454C659.373,26.223,659.382,26.218,660.322,26.023Z" transform="translate(-36.997 -0.863)"/><path class="d" d="M799.153,232.931a6.562,6.562,0,0,0,2.113-.221l1.477.01c1.463.44,1.927.957,1.826,2.469-.195,2.927-.044,5.854-.114,8.78a7.949,7.949,0,0,1-.2,1.686,1.715,1.715,0,0,1-1.613,1.451c-.316.04-.633.075-.95.112l-.492.014-1.731-.025a3.224,3.224,0,0,0-1.582.132,1.131,1.131,0,0,0-.891,1.212,3.289,3.289,0,0,0,.6,2.1.745.745,0,0,0,.649.387,8.277,8.277,0,0,0,1.774.012,8.807,8.807,0,0,0,1.648,0l1.81.006a9.582,9.582,0,0,0,1.613,0l1.818,0a5.258,5.258,0,0,0,1.207,0,6.248,6.248,0,0,0,1.5.135,5.486,5.486,0,0,0,1.5.115,4.592,4.592,0,0,0,2.5-.386c.129-.054.292-.12.3-.275a5.856,5.856,0,0,0-.054-2.77,1.04,1.04,0,0,0-.084-.133.706.706,0,0,0-.414-.444,1.658,1.658,0,0,0-1.318-.3,9.137,9.137,0,0,0-2.058.252c-.055-.008-.1,0-.1.07l.005-.007-1.74,0-.75-.444-.584-.787a.779.779,0,0,0-.131-.454,14.423,14.423,0,0,1-.042-4.493c.019-.265.053-.528.062-.793.029-.852.2-1.021,1.071-1.058.262.021.294.179.276.407-.084,1.114-.164,2.229-.229,3.344a6.986,6.986,0,0,0,.255,2.525,1.739,1.739,0,0,0,.6.918c.124.092.291.22.419.2.957-.138,1.927.178,2.888-.16a4.439,4.439,0,0,1,1.74-.156,1.514,1.514,0,0,1,1.568,1.249,6.1,6.1,0,0,1,.07,2.638,1.6,1.6,0,0,1-1.813,1.515c-1.539.038-3.078.155-4.62.106-2.127-.067-4.255-.158-6.382-.054a36.417,36.417,0,0,1-3.934.089,6.754,6.754,0,0,1-1.053-.14,2.755,2.755,0,0,1-1.7-3.875c.515-1.116,1.393-1.577,3.013-1.411.67.068,1.34.407,2.024.034.055-.03.171.023.247.061a1.29,1.29,0,0,0,1.813-.666,2.9,2.9,0,0,0,.238-1.352,51.482,51.482,0,0,1,.2-7.222,9.82,9.82,0,0,0-.034-1.959,1.947,1.947,0,0,0-2.027-1.893c-.841-.046-1.653.192-2.487.216a7.921,7.921,0,0,1-1.328-.034c-1.771-.248-2.242-2.477-1.653-3.811a2.543,2.543,0,0,1,2.268-1.622,15.593,15.593,0,0,1,2.444.05c2.193.124,4.386.072,6.579.051,1.753-.017,3.506.053,5.258.022a6.128,6.128,0,0,1,2.009.345,1.8,1.8,0,0,1,1.294,2.106,5.672,5.672,0,0,1-.442,1.526,2.107,2.107,0,0,1-2.025,1.264,12.576,12.576,0,0,1-2.482-.1,4.145,4.145,0,0,0-1.836.21c-.7.212-.869.449-.875,1.182,0,.213-.013.427,0,.639a.621.621,0,0,1-.3.631c-.017,0-.035.005-.052.011-.942.283-1.083.167-.961-.791.018-.14.042-.28.058-.421a1.857,1.857,0,0,1,2.1-1.9c.319,0,.637,0,.956-.007a3.6,3.6,0,0,0,1.2,0,6.312,6.312,0,0,0,2.189-.316c.674-.2.833-.414.809-1.107a13.894,13.894,0,0,0-.148-1.579.821.821,0,0,0-.436-.738c-.036-.109-.141-.12-.226-.159a2.124,2.124,0,0,0-1.237-.355,1.9,1.9,0,0,0-.94-.038,5.982,5.982,0,0,0-1.811.152,5.56,5.56,0,0,0-1.693.1l-1.815.023-.952.009a12.031,12.031,0,0,0-1.764,0h-.57l-3.777,0a1.775,1.775,0,0,0-.8.074.746.746,0,0,0-.828.722,3.543,3.543,0,0,0,.624,2.546.922.922,0,0,0,.667.393A1.1,1.1,0,0,0,799.153,232.931Z" transform="translate(-168.02 -181.365)"/><path class="e" d="M626.321,203.982q-12.968,0-25.936-.006c-.24,0-.627.15-.687-.19s.315-.473.6-.574a1.566,1.566,0,0,1,.521-.063q26.1,0,52.192,0c.212,0,.527-.1.588.194s-.243.4-.452.523a1.452,1.452,0,0,1-.779.116Z" transform="translate(0 -159.874)"/><path class="f" d="M818.464,43.5a.72.72,0,0,0-.333-.48,2.8,2.8,0,0,0-.688-.88h0a.754.754,0,0,0-.281-.35c-.717-1.055-1.611-1.966-2.41-2.955a10.373,10.373,0,0,1-2.426-4.284h0q0-.139,0-.278a6.464,6.464,0,0,1,1.606-3.445c.3-.394.605-.778.909-1.166a2.063,2.063,0,0,0,.495-.5h0l.109-.112h0l.093-.105.016-.019a.055.055,0,0,0,.042-.012.057.057,0,0,0,.016-.041,17.293,17.293,0,0,0,2.809-3.7c.047-.091.138-.166.1-.287l0,.008c.086.005.111-.05.12-.122.262-.276.563-.543.231-.962a1.293,1.293,0,0,0-1.426-.512,5.4,5.4,0,0,0-3.176,2.867,23.568,23.568,0,0,1-2.506,3.718,1.935,1.935,0,0,1-1.97.75h0a.8.8,0,0,0-.412-.22,8.618,8.618,0,0,1-1.725-1.74c-.258-.308-.405-.763-.65-1.126h0c-.058-.153-.092-.325-.288-.37a5.375,5.375,0,0,0-1.161-1.889h0a.621.621,0,0,0-.326-.405,1.988,1.988,0,0,0-.875-.759h0a.7.7,0,0,0-.419-.267,2.655,2.655,0,0,0-1.324-.336c-.6.019-.829.351-.638.919a2.885,2.885,0,0,0,.206.463c.426.78.384.885-.486,1.169.206.355.486.278.77.124.331-.18.656-.372.983-.558a1.662,1.662,0,0,1-.329.671c-.142.2-.285.4-.427.6a.452.452,0,0,0,.522.706.4.4,0,0,1,.293-.054c0,.042-.007.085-.01.127a.93.93,0,0,1,.98.446c.913,1.207,2,2.282,2.81,3.568.206.325.4.66.6.99h0a1.66,1.66,0,0,0,.209.644h0l.13,1.078h0l-.052.4a9.25,9.25,0,0,1-1.9,2.935c-.952,1.192-1.918,2.373-2.835,3.592a9,9,0,0,0-1.452,2.5,1.094,1.094,0,0,0,.323,1.413,17.126,17.126,0,0,1,2.325-1.344l.155-.049-.155.049a.465.465,0,0,0,.07.078h0a.465.465,0,0,1-.07-.078A17.057,17.057,0,0,0,802.3,45.25a1.076,1.076,0,0,0,1.378,0c.077,0,.143-.01.147-.107a2.8,2.8,0,0,0,1.271-1.062,34.263,34.263,0,0,0,2.7-4,13.963,13.963,0,0,1,1-1.439,1.963,1.963,0,0,1,3.06-.114c.234.238.446.5.669.748a1.153,1.153,0,0,1,.478-.338,1.152,1.152,0,0,0-.478.338l.162.252c.732,1.052,1.342,2.186,2.13,3.2h0a.628.628,0,0,0,.28.412,3.582,3.582,0,0,0,.7.961h0a.694.694,0,0,0,.275.317,2.717,2.717,0,0,0,1.03.848h0a.984.984,0,0,0,1.282.074c.633-.441.656-1.03.07-1.833ZM815.4,29.062a.106.106,0,0,0-.06.055.121.121,0,0,0-.008.044h0a.121.121,0,0,1,.008-.044A.106.106,0,0,1,815.4,29.062Zm-.408.207a.73.73,0,0,1,.218-.091.73.73,0,0,0-.218.091,1.429,1.429,0,0,0-.4.418h0A1.429,1.429,0,0,1,814.993,29.269Zm-3.315,5.5h0l.043.053Zm3.786,7.736-.01-.011.01.011Z" transform="translate(-173.243 -5.6)"/><path class="g" d="M822.243,251a1.038,1.038,0,0,0-.084-.133h0a.706.706,0,0,0-.414-.444,1.658,1.658,0,0,0-1.318-.3l-3.628,2.118,3.628-2.118a9.142,9.142,0,0,0-2.058.252c-.053-.007-.1,0-.1.063l-1.735,0h0l-.75-.444-.584-.787h0a.781.781,0,0,0-.132-.454,14.425,14.425,0,0,1-.042-4.493c.019-.265.053-.528.062-.793.029-.852.2-1.021,1.071-1.058,0-.085.029-.211-.015-.249-.27-.232-.273-.425-.015-.685a.377.377,0,0,0-.056-.484.418.418,0,0,0-.479-.117,5.382,5.382,0,0,0-.563.272.336.336,0,0,0-.062-.075c.317-.357.625-.722.955-1.067a.665.665,0,0,0,.22-.715.508.508,0,0,0-.052.011c-.942.283-1.083.167-.961-.791.018-.14.042-.28.058-.421a1.857,1.857,0,0,1,2.1-1.9c.319,0,.637,0,.956-.007a7.224,7.224,0,0,1,1.224-.79c.172-.091.347-.178.522-.264-.176.086-.35.173-.522.264a7.21,7.21,0,0,0-1.223.79,3.6,3.6,0,0,0,1.2,0,6.311,6.311,0,0,0,2.189-.316c.674-.2.833-.414.809-1.107a13.908,13.908,0,0,0-.148-1.579.821.821,0,0,0-.436-.738l-.114.073.114-.073c-.036-.109-.141-.12-.226-.159a2.123,2.123,0,0,0-1.237-.355h0a1.9,1.9,0,0,0-.94-.038,5.977,5.977,0,0,0-1.81.152,3.183,3.183,0,0,1-.792.568,3.179,3.179,0,0,0,.792-.568,5.561,5.561,0,0,0-1.693.1l-1.815.023a7.912,7.912,0,0,1-1.464.817,7.908,7.908,0,0,0,1.464-.817l-.952.009a12.026,12.026,0,0,0-1.764,0h-.57l-3.777,0-.857.518.857-.518a1.777,1.777,0,0,0-.8.074.747.747,0,0,0-.828.722,3.543,3.543,0,0,0,.625,2.546.924.924,0,0,0,.667.393h0a1.1,1.1,0,0,0,.8.158,6.56,6.56,0,0,0,2.113-.221l2.792-1.629-2.792,1.629,1.477.01c1.462.44,1.926.957,1.826,2.469-.195,2.927-.044,5.854-.114,8.78a7.955,7.955,0,0,1-.2,1.687,1.715,1.715,0,0,1-1.613,1.451c-.316.04-.633.075-.95.112a3.476,3.476,0,0,1-.284.21,3.5,3.5,0,0,0,.284-.21l-.492.014-1.731-.025h0a3.224,3.224,0,0,0-1.582.132,1.131,1.131,0,0,0-.891,1.212,3.291,3.291,0,0,0,.6,2.1h0a.744.744,0,0,0,.649.386,8.278,8.278,0,0,0,1.774.012h0a8.805,8.805,0,0,0,1.647,0l1.81.006,3.255-1.938-3.255,1.938a9.569,9.569,0,0,0,1.613,0l1.818,0a25.722,25.722,0,0,1,2.439-1.406,25.722,25.722,0,0,0-2.439,1.406,5.258,5.258,0,0,0,1.207,0,6.254,6.254,0,0,0,1.5.135h0a5.485,5.485,0,0,0,1.5.115,4.592,4.592,0,0,0,2.5-.386c.13-.054.292-.12.3-.275A5.855,5.855,0,0,0,822.243,251Zm-.528-18.469c-.089.057-.177.115-.267.17C821.538,232.645,821.626,232.588,821.715,232.531Zm-12.472,18.254-.019-.017h0Zm-2.185.028-.235.14Z" transform="translate(-176.406 -184.495)"/><path class="g" d="M666.783,240.121c-.126-.084-.144-.142-.034-.222.553-.4.217-.725-.086-1.054-.673-.06-.728-.169-.691-.926a9.552,9.552,0,0,0-.041-2.434,1.364,1.364,0,0,0-1.74-1.257c-1.067.1-1.509.544-1.5,1.58s.067,2.087.09,3.131c.042,1.872.021,3.745.14,5.615a.721.721,0,0,0-.009.468c-.037.849-.07,1.7-.111,2.548a5.41,5.41,0,0,1-.88,3.17h0c-.12.224-.413.3-.482.568a4.608,4.608,0,0,1-.95.636,11.537,11.537,0,0,1-2.19.53l-1.334-.282h0l-.386-.208-.81-.639a.8.8,0,0,0-.294-.344l-.557-.847-.682.354-.155.03h0a.1.1,0,0,1,.042-.1.1.1,0,0,0-.042.1l.155-.03.682-.354a.555.555,0,0,0-.18-.4,10.094,10.094,0,0,1-.587-3.808c.018-.814-.04-1.629-.064-2.444a.689.689,0,0,0,0-.459q0-.727,0-1.454a.632.632,0,0,0-.006-.474c.122-1.4.055-2.8.1-4.192l-.691.365-.074-.078h0l.074.078.691-.365q-.007-.218-.013-.436a2.134,2.134,0,0,0,0-1.505,1.006,1.006,0,0,0-.7-.516,1.815,1.815,0,0,0-2.834,1.492,1.191,1.191,0,0,0-.056.642,4.589,4.589,0,0,0,.071,1.408,1.178,1.178,0,0,0,.027.609q.134,1.924.268,3.848-.012.259-.024.518-.012.728-.023,1.457-.009.244-.017.488a16.159,16.159,0,0,0,.023,3.643,7.138,7.138,0,0,0,.69,2.747c.025.149.049.3.214.365a6.427,6.427,0,0,0,2.609,3.026.966.966,0,0,0,.559.327,6.275,6.275,0,0,0,2.592.919,3.2,3.2,0,0,0,1.014.031,4.641,4.641,0,0,0,1.373-.067,6.968,6.968,0,0,0,4.959-3.945,8.078,8.078,0,0,0,.932-3.029q.025-.172.05-.343a31.164,31.164,0,0,0,.075-4.822q0-.252.008-.5,0-.526.005-1.052c0-.274.055-.519.35-.629-.15-.4.276-.4.429-.576C667.042,240.694,667.235,240.423,666.783,240.121Zm-14.935,1.893h0l.023-.061Zm-.021.018h0l-.044.07h0l.044-.07-.081.014Zm-.2,2.059.087-.029h0Zm.116-.052.025-.067-.025.067Zm4.353,8.527h0Zm.01.009.013.012Zm6.118-1.892a.406.406,0,0,1-.165.072A.406.406,0,0,0,662.223,250.684Zm-.212.073h0Z" transform="translate(-43.624 -186.507)"/><g transform="translate(607.009 17.564)"><path class="f" d="M667.372,29.59c-.221-.189-.447-.1-.681.007s-.441.354-.745.348l-.017-.015q.683-.7,1.367-1.4c.187-.19.323-.4.131-.652s-.445-.219-.706-.079a6.019,6.019,0,0,1-1.072.568l-.048-.046c.238-.4.68-.615.892-1.034a9.261,9.261,0,0,1-.033-1.308l-.516.236.516-.236.053-.424h0a4.929,4.929,0,0,0-.066-1.685,1.256,1.256,0,0,0-1.411-1.189c-.424-.01-.849.014-1.273.01a.5.5,0,0,0-.568.548c.012,1.254-.076,2.509.047,3.761a.576.576,0,0,0-.04.375,5.826,5.826,0,0,0,.049,1.437.946.946,0,0,0-.053.492c0,1.5-.032,3.007.028,4.512.07,1.766.186,3.549-.712,5.186h0a4.486,4.486,0,0,1-1.6,1.321,5.425,5.425,0,0,1-3.881.231,1.99,1.99,0,0,0-.666-.384l-.755-.691a.5.5,0,0,0-.217-.336l-.5-1.023h0a.913.913,0,0,0-.136-.448,22.692,22.692,0,0,1-.21-4.68c.032-1.45.058-2.9.19-4.346a20.4,20.4,0,0,0,.112-3.552,2.342,2.342,0,0,0-1.267-2.217,1.225,1.225,0,0,0-1.509.083c-.064.028-.127.056-.1.147l0-.006c-.4.112-.493.476-.607.793a4.582,4.582,0,0,0-.245,1.3c-.107,1.826.21,3.631.253,5.449q.045,1.932.092,3.864,0,.169.008.337A20.543,20.543,0,0,0,652,38.777l.1.436a6.7,6.7,0,0,0,.434,1.291.5.5,0,0,0,.163.328,2.13,2.13,0,0,0,.534.97.783.783,0,0,0,.326.515,4.161,4.161,0,0,0,1.625,1.478.433.433,0,0,0,.392.2,2.244,2.244,0,0,0,1.059.443,4.153,4.153,0,0,1,.469-.322,4.153,4.153,0,0,0-.469.322.349.349,0,0,0,.321.081,3.821,3.821,0,0,0,1.424.212,2.277,2.277,0,0,0,.907-.01,3.966,3.966,0,0,0,1.628-.139,7.316,7.316,0,0,0,5.252-6.678c.165-.3.07-.618.1-.928.095.018.063-.056.067-.1a52.38,52.38,0,0,0,.124-5.454c.006-.962.015-.967.955-1.162C667.524,30.027,667.607,29.791,667.372,29.59Zm-9.727,14.325-.023-.028.023.028Zm3.082-.44c-.02-.019-.039-.038-.058-.057.019.02.038.039.058.057l.02-.019Z" transform="translate(-651.093 -22.66)"/><path class="f" d="M697.751,145.072c-.145-.536-.474-.51-.868-.284A1.193,1.193,0,0,0,697.751,145.072Z" transform="translate(-690.364 -127.27)"/></g></g></svg>