<svg id="Group_32" data-name="Group 32" xmlns="http://www.w3.org/2000/svg" width="106.865" height="48.047" viewBox="0 0 106.865 48.047">
  <rect id="Rectangle_88" data-name="Rectangle 88" width="106.78" height="24.642" transform="translate(0.085 23.377)" fill="#fff"/>
  <path id="Path_84" data-name="Path 84" d="M2.338-25.419V-7.881H8.561c5.257,0,8.35-3.257,8.35-8.8s-3.105-8.739-8.35-8.739Zm2.739,2.346H8.3c3.729,0,5.807,2.285,5.807,6.417S12.045-10.239,8.3-10.239H5.076Zm19.5,4.29a3.148,3.148,0,0,1,3.154,3.33H21.3A3.306,3.306,0,0,1,24.576-18.783Zm3.142,7.147a2.915,2.915,0,0,1-2.971,1.872,3.361,3.361,0,0,1-3.46-3.695v-.158h9.084v-.9c0-3.877-2.225-6.381-5.795-6.381-3.631,0-5.954,2.674-5.954,6.685,0,4.035,2.286,6.575,6.064,6.575,2.946,0,5.171-1.665,5.538-4Zm4.462-5.409c0,1.787,1.174,2.99,3.5,3.549l2.3.559c1.345.34,1.834.79,1.834,1.6,0,1.033-.978,1.689-2.567,1.689-1.614,0-2.567-.681-2.775-1.908H31.851c.208,2.346,2.225,3.914,5.269,3.914,3.154,0,5.343-1.6,5.343-3.938,0-1.884-.978-2.856-3.57-3.476l-2.164-.5c-1.333-.328-1.968-.863-1.968-1.653,0-1.009.954-1.7,2.384-1.7,1.479,0,2.421.717,2.543,1.872h2.482c-.086-2.273-2.091-3.865-4.951-3.865C34.21-20.9,32.181-19.33,32.181-17.045ZM44.6-7.881h2.641V-20.667H44.6Zm1.32-14.658a1.514,1.514,0,0,0,1.54-1.495,1.517,1.517,0,0,0-1.54-1.507,1.514,1.514,0,0,0-1.528,1.507A1.512,1.512,0,0,0,45.923-22.539Zm9.5,12.531c-2.029,0-3.35-1.629-3.35-4.3s1.32-4.351,3.35-4.351c2.066,0,3.423,1.726,3.423,4.351S57.488-10.008,55.422-10.008Zm.024,6.94c3.668,0,6.04-1.993,6.04-5.044V-20.667H58.919v2.188H58.87a4.494,4.494,0,0,0-4.1-2.394c-3.3,0-5.4,2.528-5.4,6.551,0,3.987,2.115,6.49,5.343,6.49a4.475,4.475,0,0,0,4.071-2.3h.049v2.1c0,1.75-1.223,2.917-3.289,2.917a3.055,3.055,0,0,1-3.056-1.775H49.835C50.165-4.672,52.414-3.068,55.446-3.068ZM64.09-7.881h2.641v-7.451a2.99,2.99,0,0,1,3.056-3.294c1.834,0,2.739,1.057,2.739,2.978v7.767h2.653v-8.277c0-2.929-1.626-4.728-4.462-4.728a4.181,4.181,0,0,0-4.047,2.358h-.061v-2.139H64.09ZM83.1-18.783a3.148,3.148,0,0,1,3.154,3.33H79.825A3.306,3.306,0,0,1,83.1-18.783Zm3.142,7.147a2.915,2.915,0,0,1-2.971,1.872,3.361,3.361,0,0,1-3.46-3.695v-.158H88.9v-.9c0-3.877-2.225-6.381-5.795-6.381-3.631,0-5.954,2.674-5.954,6.685,0,4.035,2.286,6.575,6.064,6.575,2.946,0,5.171-1.665,5.538-4Zm4.695,3.756h2.641v-7.657a2.645,2.645,0,0,1,2.751-2.941,3.8,3.8,0,0,1,1.186.146v-2.443a4.845,4.845,0,0,0-.9-.1,3.1,3.1,0,0,0-3.093,2.382h-.061v-2.176H90.938Zm7.983-9.164c0,1.787,1.174,2.99,3.5,3.549l2.3.559c1.345.34,1.834.79,1.834,1.6,0,1.033-.978,1.689-2.567,1.689-1.614,0-2.567-.681-2.775-1.908H98.591c.208,2.346,2.225,3.914,5.269,3.914,3.154,0,5.343-1.6,5.343-3.938,0-1.884-.978-2.856-3.57-3.476l-2.164-.5c-1.333-.328-1.968-.863-1.968-1.653,0-1.009.954-1.7,2.384-1.7,1.479,0,2.421.717,2.543,1.872h2.482c-.086-2.273-2.091-3.865-4.951-3.865C100.951-20.9,98.921-19.33,98.921-17.045Z" transform="translate(-2.338 51.115)" fill="#6150ff"/>
  <path id="Path_83" data-name="Path 83" d="M2.338-25.419V-7.881H8.524c5.226,0,8.3-3.257,8.3-8.8s-3.087-8.739-8.3-8.739ZM5.06-23.074H8.269c3.707,0,5.773,2.285,5.773,6.417s-2.054,6.417-5.773,6.417H5.06ZM19.184-7.881h2.625V-20.667H19.184ZM20.5-22.539a1.51,1.51,0,0,0,1.531-1.495A1.512,1.512,0,0,0,20.5-25.541a1.51,1.51,0,0,0-1.519,1.507A1.507,1.507,0,0,0,20.5-22.539ZM29.94-10.008c-2.018,0-3.33-1.629-3.33-4.3s1.313-4.351,3.33-4.351c2.054,0,3.4,1.726,3.4,4.351S31.994-10.008,29.94-10.008Zm.024,6.94c3.646,0,6-1.993,6-5.044V-20.667H33.416v2.188h-.049A4.464,4.464,0,0,0,29.3-20.874c-3.282,0-5.372,2.528-5.372,6.551,0,3.987,2.1,6.49,5.311,6.49a4.444,4.444,0,0,0,4.047-2.3h.049v2.1c0,1.75-1.215,2.917-3.27,2.917a3.035,3.035,0,0,1-3.039-1.775H24.386C24.714-4.672,26.95-3.068,29.965-3.068Zm8.678-4.813h2.625V-20.667H38.643Zm1.313-14.658a1.51,1.51,0,0,0,1.531-1.495,1.512,1.512,0,0,0-1.531-1.507,1.51,1.51,0,0,0-1.519,1.507A1.507,1.507,0,0,0,39.955-22.539Zm4.764-1.155v3.026H42.86v2.078h1.86v7.341c0,2.467,1.009,3.452,3.6,3.452a7.231,7.231,0,0,0,1.459-.122V-10a5.744,5.744,0,0,1-.863.061c-1.07,0-1.556-.5-1.556-1.6v-7.049h2.431v-2.078H47.357v-3.026ZM56.218-9.74c-1.41,0-2.334-.729-2.334-1.847,0-1.094.887-1.787,2.455-1.9l3.148-.194v1.009A3.065,3.065,0,0,1,56.218-9.74Zm-.729,2.078a4.569,4.569,0,0,0,4.035-2.321h.061v2.1H62.1v-8.812c0-2.565-1.981-4.205-5.08-4.205-3.16,0-5.129,1.7-5.275,4.011h2.479a2.448,2.448,0,0,1,2.7-1.872c1.6,0,2.565.851,2.565,2.273v.984l-3.5.207c-3.039.17-4.752,1.544-4.752,3.78C51.235-9.218,52.985-7.662,55.489-7.662Zm9.249-.219h2.625V-25.419H64.738Z" transform="translate(-1.975 25.541)" fill="#fff"/>
  <rect id="Rectangle_87" data-name="Rectangle 87" width="4.519" height="4.519" rx="2.259" transform="translate(67.89 13.59)" fill="#fff"/>
</svg>
