<svg id="Group_76" data-name="Group 76" xmlns="http://www.w3.org/2000/svg" width="628.202" height="15.513" viewBox="0 0 628.202 15.513">
  <text id="_Rated_5_5_based_on_22_reviews_I_We_have_50_clients_and_completed_100_Projects" data-name=" Rated 5 / 5 based on 22 reviews     I      We have 50+ clients and completed 100+ Projects" transform="translate(384.202 12.5)" fill="#fff" font-size="12" font-family="AvenirLTStd-Roman, Avenir LT Std"><tspan x="-243" y="0" xml:space="preserve"> Rated 5 / 5 based on 22 reviews     I      We have 50+ clients and completed 100+ Projects</tspan></text>
  <g id="Group_75" data-name="Group 75">
    <path id="Path_854" data-name="Path 854" d="M32.149,158.061a2.464,2.464,0,0,1,.152-.3.82.82,0,0,1,.641-.344l2.1-.186c.682-.061,1.363-.126,2.045-.183a.244.244,0,0,0,.232-.176c.54-1.277,1.087-2.55,1.629-3.826a.814.814,0,0,1,1.535-.006q.65,1.519,1.3,3.038c.118.276.241.55.351.828a.185.185,0,0,0,.18.136c.491.041.981.086,1.471.131l2.133.195c.221.02.442.038.661.065a.758.758,0,0,1,.673.56.782.782,0,0,1-.259.866q-.837.738-1.678,1.472c-.5.442-1.006.886-1.515,1.322a.186.186,0,0,0-.06.216q.466,2.041.931,4.082a.812.812,0,0,1-.682,1.054.829.829,0,0,1-.56-.14l-2.724-1.63c-.287-.172-.577-.34-.86-.518a.205.205,0,0,0-.25,0q-1.8,1.081-3.6,2.154a.794.794,0,0,1-1.221-.419,1.029,1.029,0,0,1-.01-.491c.3-1.363.615-2.723.926-4.083a.21.21,0,0,0-.075-.239c-1.063-.925-2.126-1.851-3.177-2.789a2,2,0,0,1-.295-.465Z" transform="translate(-32.149 -152.002)" fill="#fd0"/>
    <path id="Path_855" data-name="Path 855" d="M32.149,158.061a2.464,2.464,0,0,1,.152-.3.82.82,0,0,1,.641-.344l2.1-.186c.682-.061,1.363-.126,2.045-.183a.244.244,0,0,0,.232-.176c.54-1.277,1.087-2.55,1.629-3.826a.814.814,0,0,1,1.535-.006q.65,1.519,1.3,3.038c.118.276.241.55.351.828a.185.185,0,0,0,.18.136c.491.041.981.086,1.471.131l2.133.195c.221.02.442.038.661.065a.758.758,0,0,1,.673.56.782.782,0,0,1-.259.866q-.837.738-1.678,1.472c-.5.442-1.006.886-1.515,1.322a.186.186,0,0,0-.06.216q.466,2.041.931,4.082a.812.812,0,0,1-.682,1.054.829.829,0,0,1-.56-.14l-2.724-1.63c-.287-.172-.577-.34-.86-.518a.205.205,0,0,0-.25,0q-1.8,1.081-3.6,2.154a.794.794,0,0,1-1.221-.419,1.029,1.029,0,0,1-.01-.491c.3-1.363.615-2.723.926-4.083a.21.21,0,0,0-.075-.239c-1.063-.925-2.126-1.851-3.177-2.789a2,2,0,0,1-.295-.465Z" transform="translate(-3.355 -152.002)" fill="#fd0"/>
    <path id="Path_856" data-name="Path 856" d="M32.149,158.061a2.464,2.464,0,0,1,.152-.3.82.82,0,0,1,.641-.344l2.1-.186c.682-.061,1.363-.126,2.045-.183a.244.244,0,0,0,.232-.176c.54-1.277,1.087-2.55,1.629-3.826a.814.814,0,0,1,1.535-.006q.65,1.519,1.3,3.038c.118.276.241.55.351.828a.185.185,0,0,0,.18.136c.491.041.981.086,1.471.131l2.133.195c.221.02.442.038.661.065a.758.758,0,0,1,.673.56.782.782,0,0,1-.259.866q-.837.738-1.678,1.472c-.5.442-1.006.886-1.515,1.322a.186.186,0,0,0-.06.216q.466,2.041.931,4.082a.812.812,0,0,1-.682,1.054.829.829,0,0,1-.56-.14l-2.724-1.63c-.287-.172-.577-.34-.86-.518a.205.205,0,0,0-.25,0q-1.8,1.081-3.6,2.154a.794.794,0,0,1-1.221-.419,1.029,1.029,0,0,1-.01-.491c.3-1.363.615-2.723.926-4.083a.21.21,0,0,0-.075-.239c-1.063-.925-2.126-1.851-3.177-2.789a2,2,0,0,1-.295-.465Z" transform="translate(25.439 -152.002)" fill="#fd0"/>
    <path id="Path_857" data-name="Path 857" d="M32.149,158.061a2.464,2.464,0,0,1,.152-.3.82.82,0,0,1,.641-.344l2.1-.186c.682-.061,1.363-.126,2.045-.183a.244.244,0,0,0,.232-.176c.54-1.277,1.087-2.55,1.629-3.826a.814.814,0,0,1,1.535-.006q.65,1.519,1.3,3.038c.118.276.241.55.351.828a.185.185,0,0,0,.18.136c.491.041.981.086,1.471.131l2.133.195c.221.02.442.038.661.065a.758.758,0,0,1,.673.56.782.782,0,0,1-.259.866q-.837.738-1.678,1.472c-.5.442-1.006.886-1.515,1.322a.186.186,0,0,0-.06.216q.466,2.041.931,4.082a.812.812,0,0,1-.682,1.054.829.829,0,0,1-.56-.14l-2.724-1.63c-.287-.172-.577-.34-.86-.518a.205.205,0,0,0-.25,0q-1.8,1.081-3.6,2.154a.794.794,0,0,1-1.221-.419,1.029,1.029,0,0,1-.01-.491c.3-1.363.615-2.723.926-4.083a.21.21,0,0,0-.075-.239c-1.063-.925-2.126-1.851-3.177-2.789a2,2,0,0,1-.295-.465Z" transform="translate(54.233 -152.002)" fill="#fd0"/>
    <path id="Path_858" data-name="Path 858" d="M39.731,152a1.3,1.3,0,0,1,1.216.843q.456,1.065.911,2.13l.388.908.1.233c.063.145.127.294.189.444.34.029.682.06,1.014.09l.284.026,2.133.195.143.013c.174.016.354.032.535.054a1.261,1.261,0,0,1,1.089.909,1.286,1.286,0,0,1-.405,1.389q-.634.559-1.27,1.115l-.753.66c-.339.3-.687.6-1.037.9l.382,1.677q.256,1.125.513,2.249a1.391,1.391,0,0,1-.182,1.106,1.317,1.317,0,0,1-1.8.348l-2.724-1.63-.235-.14c-.163-.1-.33-.2-.5-.3-1.1.663-2.237,1.343-3.463,2.073a1.446,1.446,0,0,1-.738.209,1.247,1.247,0,0,1-1.219-.917,1.536,1.536,0,0,1-.018-.739c.275-1.241.563-2.5.843-3.718l.051-.221c-1.036-.9-2.052-1.787-3.064-2.691a1.487,1.487,0,0,1-.32-.452c-.024-.046-.047-.09-.068-.124l-.074-.121v-.586l.053-.106c.013-.026.025-.052.037-.079a1.783,1.783,0,0,1,.15-.277,1.311,1.311,0,0,1,1.008-.559l.916-.081L35,156.735l.681-.062c.4-.037.817-.075,1.229-.11.315-.743.634-1.492.944-2.218q.319-.747.637-1.494A1.3,1.3,0,0,1,39.667,152Zm4.162,14.513.025,0a.342.342,0,0,0,.236-.128.41.41,0,0,0,.034-.32q-.257-1.125-.513-2.25-.209-.916-.418-1.832a.679.679,0,0,1,.222-.707c.39-.335.784-.681,1.165-1.015l.754-.661q.634-.556,1.267-1.113a.287.287,0,0,0,.112-.343.265.265,0,0,0-.258-.212c-.163-.02-.327-.035-.5-.05l-.145-.013-2.132-.195-.284-.026c-.388-.035-.789-.072-1.183-.1a.684.684,0,0,1-.6-.45c-.076-.192-.157-.38-.244-.579l-.1-.237-.388-.908q-.455-1.065-.91-2.129c-.094-.219-.2-.237-.3-.237h-.021c-.1,0-.206.026-.3.241q-.318.748-.637,1.495c-.326.763-.663,1.553-.992,2.33a.741.741,0,0,1-.651.48c-.453.038-.913.08-1.359.121l-.683.062-1.189.105-.916.081a.323.323,0,0,0-.273.13,1.006,1.006,0,0,0-.064.126v.082l.029.056a1.011,1.011,0,0,0,.1.167c1.046.934,2.1,1.85,3.172,2.785a.706.706,0,0,1,.235.728l-.085.369c-.279,1.216-.567,2.472-.841,3.71a.539.539,0,0,0,0,.242.255.255,0,0,0,.259.2.448.448,0,0,0,.226-.068c1.275-.76,2.451-1.464,3.6-2.152a.729.729,0,0,1,.383-.114.72.72,0,0,1,.391.12c.2.126.41.25.612.37l.238.142,2.724,1.63A.436.436,0,0,0,43.892,166.515Z" transform="translate(83.027 -152.002)" fill="#fff"/>
  </g>
</svg>
