<svg xmlns="http://www.w3.org/2000/svg" width="94.075" height="862.859" viewBox="0 0 94.075 862.859">
  <path id="Path_858" data-name="Path 858" d="M223.258-79.643a138.616,138.616,0,0,1,29.519,2.966l.454.1v32.493h-1.144l-.172-.257L231.881-74.266a3.787,3.787,0,0,0-3.489-1.782H226.21a15.747,15.747,0,0,0-8.944,2.566,19.6,19.6,0,0,0-6.423,7.768c-3.473,6.989-5.235,17.656-5.235,31.705,0,15.933,1.5,27.429,4.444,34.17a17.815,17.815,0,0,0,5.587,7.466,13.3,13.3,0,0,0,8,2.457,16.357,16.357,0,0,0,6.166-1.1,1.6,1.6,0,0,0,.829-1.532V-15.4a4.892,4.892,0,0,0-1.019-3.221l-7.324-8.371v-1.052h41.077v1.052l-7.324,8.371a4.892,4.892,0,0,0-1.019,3.221V14.432l-20.023-3.557a43.62,43.62,0,0,1-16.882,3.445,41.948,41.948,0,0,1-16.578-3.143A35.138,35.138,0,0,1,188.74,1.733a41.754,41.754,0,0,1-8.153-14.886A64.814,64.814,0,0,1,177.881-32.6a59.036,59.036,0,0,1,2.968-19.316,41.807,41.807,0,0,1,8.933-14.967,37.859,37.859,0,0,1,14.353-9.581A53.758,53.758,0,0,1,223.258-79.643Zm28.817,4a137.975,137.975,0,0,0-28.817-2.84,52.613,52.613,0,0,0-18.712,3.107,36.714,36.714,0,0,0-13.919,9.289,40.66,40.66,0,0,0-8.685,14.557,57.889,57.889,0,0,0-2.9,18.937,63.672,63.672,0,0,0,2.653,19.1A40.607,40.607,0,0,0,189.615.976,33.992,33.992,0,0,0,202,10.114a40.8,40.8,0,0,0,16.123,3.05,42.5,42.5,0,0,0,16.591-3.42l.158-.067.168.03,18.832,3.345V-15.4a6.076,6.076,0,0,1,1.286-3.96l.012-.015,6.574-7.513H223.922l6.586,7.528a6.076,6.076,0,0,1,1.286,3.96V7.452a2.762,2.762,0,0,1-1.453,2.559l-.03.017-.032.013a17.478,17.478,0,0,1-6.637,1.2c-6.639,0-11.568-3.572-14.65-10.615a52.6,52.6,0,0,1-3.413-13.892,163.953,163.953,0,0,1-1.128-20.741,116.516,116.516,0,0,1,1.332-18.739,48.334,48.334,0,0,1,4.024-13.48,20.734,20.734,0,0,1,6.814-8.214A16.882,16.882,0,0,1,226.21-77.2h2.182a4.923,4.923,0,0,1,4.465,2.318l19.218,28.7Zm-623.2-2.713H-324.6a66.311,66.311,0,0,1,13.792,1.3,33.676,33.676,0,0,1,10.383,3.922,17.79,17.79,0,0,1,6.562,6.668,19.329,19.329,0,0,1,2.189,9.359,20.852,20.852,0,0,1-1.835,8.877,18.966,18.966,0,0,1-5.508,6.852,28.826,28.826,0,0,1-8.6,4.586A41.552,41.552,0,0,1-314-35.193a43.444,43.444,0,0,1,7.272,1.365,30.769,30.769,0,0,1,9.549,4.482,19.6,19.6,0,0,1,6.245,7.11,20.707,20.707,0,0,1,2.084,9.406,25.116,25.116,0,0,1-2.27,10.871,22.2,22.2,0,0,1-6.817,8.2,31.56,31.56,0,0,1-10.655,5.1,52.154,52.154,0,0,1-13.825,1.69h-48.714V11.952l8.777-8.253a3.582,3.582,0,0,0,.979-2.665V-66.357a3.583,3.583,0,0,0-.979-2.665l-8.777-8.253Zm48.714,90.239c10.007,0,18.01-2.207,23.784-6.559a21.06,21.06,0,0,0,6.469-7.777A23.973,23.973,0,0,0-290-12.829a19.566,19.566,0,0,0-1.96-8.886,18.457,18.457,0,0,0-5.885-6.689c-5.269-3.764-12.329-5.757-20.983-5.925l-.567-.011V-35.7l.53-.044c8.061-.672,14.5-2.876,19.136-6.552a17.822,17.822,0,0,0,5.178-6.434,19.709,19.709,0,0,0,1.727-8.388,18.191,18.191,0,0,0-2.047-8.8,16.649,16.649,0,0,0-6.146-6.233C-306.551-75.5-314.483-77.2-324.6-77.2h-44.768l7.823,7.357a4.738,4.738,0,0,1,1.325,3.49V1.034a4.738,4.738,0,0,1-1.325,3.489l-.013.012-7.81,7.344Zm190.748-90.111a11.081,11.081,0,0,1,7.84,2.916,10.062,10.062,0,0,1,3.136,7.675,9.358,9.358,0,0,1-3.146,7.3,11.381,11.381,0,0,1-7.829,2.778,11.268,11.268,0,0,1-7.633-2.774,9.273,9.273,0,0,1-3.215-7.3,9.961,9.961,0,0,1,3.2-7.679A10.975,10.975,0,0,1-131.667-78.231Zm0,19.511a10.259,10.259,0,0,0,7.06-2.485,8.142,8.142,0,0,0,2.759-6.436,8.836,8.836,0,0,0-2.769-6.83,9.961,9.961,0,0,0-7.05-2.6,9.851,9.851,0,0,0-6.862,2.608,8.737,8.737,0,0,0-2.829,6.826,8.059,8.059,0,0,0,2.819,6.432A10.141,10.141,0,0,0-131.667-58.72ZM-335.251-75.792h4.364a12.912,12.912,0,0,1,11.124,5.44c2.542,3.55,3.831,8.349,3.831,14.264a35.149,35.149,0,0,1-.981,8.7,19.483,19.483,0,0,1-2.98,6.6c-2.67,3.694-6.542,5.567-11.508,5.567h-6.74V-72.647a3.6,3.6,0,0,1,.619-2.527A3.131,3.131,0,0,1-335.251-75.792Zm3.851,39.408a13.945,13.945,0,0,0,6.1-1.274,11.868,11.868,0,0,0,4.468-3.813c2.483-3.434,3.741-8.352,3.741-14.616,0-5.669-1.216-10.241-3.614-13.591a11.494,11.494,0,0,0-4.308-3.716,13.3,13.3,0,0,0-5.876-1.241h-4.364c-1.088,0-1.387.214-1.452.28-.029.029-.28.32-.28,1.709v36.262Zm152.881-16.3A77.6,77.6,0,0,1-155.758-49.2l.593.182-7.555,19.562h-.992l-10.174-18.13a2.833,2.833,0,0,0-2.453-1.638h-1.8a11.2,11.2,0,0,0-7.089,2.188,7.362,7.362,0,0,0-2.731,6.22,7.535,7.535,0,0,0,2.565,5.985,36.952,36.952,0,0,0,8.9,5.169l8.21,3.592A31.01,31.01,0,0,1-157.491-19c2.529,2.751,3.811,6.51,3.811,11.174A20.594,20.594,0,0,1-155.7,1.436a18.839,18.839,0,0,1-6.055,6.936,28.748,28.748,0,0,1-9.332,4.276,46.506,46.506,0,0,1-11.926,1.416,71.465,71.465,0,0,1-23.811-4.012l-.547-.193,7.39-20.827h1.017l.161.313,10.28,19.919A2.155,2.155,0,0,0-186.35,10.6h2.952c3.53,0,6.368-.822,8.436-2.444A7.6,7.6,0,0,0-171.909,1.8a6.662,6.662,0,0,0-2.422-5.46c-1.706-1.415-4.924-3.2-9.562-5.31l-.007,0-8.729-4.108a23.425,23.425,0,0,1-9.57-7.706,19.187,19.187,0,0,1-3.214-11.044,19.685,19.685,0,0,1,1.822-8.561,18.7,18.7,0,0,1,5.46-6.656,24.9,24.9,0,0,1,8.54-4.24A40.381,40.381,0,0,1-178.519-52.687Zm21.828,4.417a76.3,76.3,0,0,0-21.828-3.26c-7.96,0-14.318,1.816-18.9,5.4a17.559,17.559,0,0,0-5.13,6.244,18.54,18.54,0,0,0-1.708,8.062,18.054,18.054,0,0,0,3.012,10.392,22.292,22.292,0,0,0,9.109,7.313l8.727,4.107c4.794,2.18,8,3.969,9.814,5.469a7.854,7.854,0,0,1,2.84,6.35,8.8,8.8,0,0,1-3.495,7.258c-2.276,1.785-5.355,2.691-9.15,2.691h-2.952a3.319,3.319,0,0,1-3.215-1.994l-9.8-18.993-6.524,18.384a70.382,70.382,0,0,0,22.879,3.756c8.565,0,15.492-1.843,20.588-5.476a17.7,17.7,0,0,0,5.691-6.51,19.452,19.452,0,0,0,1.9-8.744c0-4.365-1.18-7.861-3.506-10.391a29.9,29.9,0,0,0-10.391-6.791l-8.221-3.6a38.01,38.01,0,0,1-9.2-5.359,8.742,8.742,0,0,1-2.955-6.852,8.554,8.554,0,0,1,3.174-7.13,12.328,12.328,0,0,1,7.8-2.433h1.8a3.949,3.949,0,0,1,3.448,2.206l.008.015,9.563,17.042Zm96.138-4.417A20.567,20.567,0,0,1-51.788-50.9a17.258,17.258,0,0,1,6.524,5.376,24.684,24.684,0,0,1,4,8.707,47.661,47.661,0,0,1,1.318,11.793c0,3.072-.065,8.236-.193,15.35s-.192,11.447-.192,12.89a3.583,3.583,0,0,0,.977,2.663l6.6,6.069v1.089H-69.989V11.955l6.334-6.07a3.413,3.413,0,0,0,.982-2.54c0-.261.063-3.9.193-11.114.128-7.107.192-11.919.192-14.3,0-6.311-.676-11.115-2.008-14.281-1.282-3.044-3.627-4.524-7.169-4.524a9.461,9.461,0,0,0-4.9,1.331,13.284,13.284,0,0,0-4.017,3.919V3.216a3.338,3.338,0,0,0,.961,2.649l.012.011,6.472,6.076v1.085h-37.1V11.951l6.484-6.087a3.338,3.338,0,0,0,.961-2.649V-41.2a4.027,4.027,0,0,0-1-2.813l-6.447-6.579V-51.66h29.653v11.268a21.5,21.5,0,0,1,6.819-8.528A21.852,21.852,0,0,1-60.554-52.687Zm26.01,64.567-5.624-5.174a4.738,4.738,0,0,1-1.325-3.49c0-1.449.065-5.793.193-12.911s.192-12.264.192-15.329c0-8.645-1.71-15.309-5.083-19.806a16.114,16.114,0,0,0-6.088-5.022,19.425,19.425,0,0,0-8.275-1.679,20.726,20.726,0,0,0-12.339,3.55,21.6,21.6,0,0,0-7.385,10.315,11.252,11.252,0,0,1,8.813-4.368c4,0,6.773,1.76,8.235,5.232,1.393,3.308,2.1,8.264,2.1,14.73,0,2.39-.065,7.209-.193,14.323s-.192,10.843-.192,11.093A4.574,4.574,0,0,1-62.84,6.706l-.009.009-5.39,5.166Zm-47-62.384h-26.794l5.595,5.71a5.2,5.2,0,0,1,1.3,3.6V3.216a4.475,4.475,0,0,1-1.344,3.508l-5.492,5.156h33.567L-80.2,6.724a4.475,4.475,0,0,1-1.344-3.508v-39.2l.1-.147q.422-.619.868-1.174l-.968-.169ZM1.831-52.687a36.161,36.161,0,0,1,10.305,1.436A31.043,31.043,0,0,1,21.227-46.8a20.649,20.649,0,0,1,6.8,8.644,32.118,32.118,0,0,1,2.489,13.136c0,.868-.044,1.834-.13,2.872l-.044.53H-8.116c.046,7.532,1.724,13.232,4.99,16.947A16.351,16.351,0,0,0,2.546-.442,17.5,17.5,0,0,0,9.661.969,21.673,21.673,0,0,0,21.043-1.9a20.486,20.486,0,0,0,7.612-8.621l.16-.32h1.323L30-10.146A39.007,39.007,0,0,1,26.337.4a25.486,25.486,0,0,1-6.067,7.592,24.579,24.579,0,0,1-8.453,4.561A35.867,35.867,0,0,1,1.061,14.063a35.807,35.807,0,0,1-12.394-2.089A31.765,31.765,0,0,1-21.661,5.7,26.27,26.27,0,0,1-28.651-4.666a40.237,40.237,0,0,1-2.316-14.2,43.6,43.6,0,0,1,2.313-14.863,26.04,26.04,0,0,1,6.992-10.6A31.312,31.312,0,0,1-11.135-50.6,38.655,38.655,0,0,1,1.831-52.687ZM29.279-22.778c.057-.805.086-1.559.086-2.246a30.98,30.98,0,0,0-2.389-12.664,19.515,19.515,0,0,0-6.417-8.172,29.892,29.892,0,0,0-8.752-4.282A35,35,0,0,0,1.831-51.53a37.5,37.5,0,0,0-12.578,2.02,30.165,30.165,0,0,0-10.14,6.046A24.9,24.9,0,0,0-27.566-33.33,42.464,42.464,0,0,0-29.81-18.862,39.093,39.093,0,0,0-27.569-5.075,25.126,25.126,0,0,0-20.887,4.84a30.617,30.617,0,0,0,9.953,6.048A34.657,34.657,0,0,0,1.061,12.907,34.721,34.721,0,0,0,11.469,11.45,23.43,23.43,0,0,0,19.527,7.1a24.337,24.337,0,0,0,5.79-7.25,35.034,35.034,0,0,0,2.793-7.112A20.458,20.458,0,0,1,21.642-.91,22.806,22.806,0,0,1,9.661,2.126,17.425,17.425,0,0,1-3.995-3.911a19.593,19.593,0,0,1-3.972-7.553A37.847,37.847,0,0,1-9.273-21.943v-.835ZM63.83-52.687A77.6,77.6,0,0,1,86.592-49.2l.593.182L79.631-29.452h-.992L68.465-47.582a2.833,2.833,0,0,0-2.453-1.638h-1.8a11.2,11.2,0,0,0-7.089,2.188,7.362,7.362,0,0,0-2.731,6.22,7.535,7.535,0,0,0,2.565,5.985,36.951,36.951,0,0,0,8.9,5.169l8.21,3.592A31.01,31.01,0,0,1,84.859-19c2.529,2.751,3.811,6.51,3.811,11.174a20.594,20.594,0,0,1-2.018,9.259A18.839,18.839,0,0,1,80.6,8.372a28.748,28.748,0,0,1-9.332,4.276,46.507,46.507,0,0,1-11.926,1.416,71.465,71.465,0,0,1-23.811-4.012l-.547-.193,7.39-20.827h1.017l.161.313L53.83,9.263A2.155,2.155,0,0,0,56,10.6h2.952c3.53,0,6.368-.822,8.436-2.444A7.6,7.6,0,0,0,70.441,1.8a6.662,6.662,0,0,0-2.422-5.46c-1.706-1.415-4.924-3.2-9.562-5.31l-.007,0-8.729-4.108a23.425,23.425,0,0,1-9.57-7.706,19.187,19.187,0,0,1-3.214-11.044,19.684,19.684,0,0,1,1.822-8.561,18.7,18.7,0,0,1,5.46-6.656,24.9,24.9,0,0,1,8.54-4.24A40.381,40.381,0,0,1,63.83-52.687ZM85.659-48.27A76.3,76.3,0,0,0,63.83-51.53c-7.96,0-14.318,1.816-18.9,5.4a17.559,17.559,0,0,0-5.13,6.244,18.54,18.54,0,0,0-1.708,8.062,18.054,18.054,0,0,0,3.012,10.392,22.292,22.292,0,0,0,9.109,7.313l8.727,4.107c4.794,2.18,8,3.969,9.814,5.469A7.854,7.854,0,0,1,71.6,1.8,8.8,8.8,0,0,1,68.1,9.062c-2.276,1.785-5.355,2.691-9.15,2.691H56a3.319,3.319,0,0,1-3.215-1.994l-9.8-18.993L36.458,9.151a70.382,70.382,0,0,0,22.879,3.756c8.565,0,15.492-1.843,20.588-5.476A17.7,17.7,0,0,0,85.616.921a19.452,19.452,0,0,0,1.9-8.744c0-4.365-1.18-7.861-3.506-10.391a29.9,29.9,0,0,0-10.391-6.791L65.4-28.6a38.01,38.01,0,0,1-9.2-5.359,8.742,8.742,0,0,1-2.955-6.852,8.554,8.554,0,0,1,3.174-7.13,12.328,12.328,0,0,1,7.8-2.433h1.8a3.949,3.949,0,0,1,3.448,2.206l.008.015,9.563,17.042Zm36.706-4.417A77.6,77.6,0,0,1,145.126-49.2l.593.182-7.555,19.562h-.992L127-47.582a2.833,2.833,0,0,0-2.453-1.638h-1.8a11.2,11.2,0,0,0-7.089,2.188,7.362,7.362,0,0,0-2.731,6.22,7.535,7.535,0,0,0,2.565,5.985,36.951,36.951,0,0,0,8.9,5.169l8.21,3.592A31.01,31.01,0,0,1,143.392-19c2.529,2.751,3.811,6.51,3.811,11.174a20.594,20.594,0,0,1-2.018,9.259,18.839,18.839,0,0,1-6.055,6.936,28.748,28.748,0,0,1-9.332,4.276,46.507,46.507,0,0,1-11.926,1.416,71.465,71.465,0,0,1-23.811-4.012l-.547-.193,7.39-20.827h1.017l.161.313,10.28,19.919a2.155,2.155,0,0,0,2.171,1.333h2.952c3.53,0,6.368-.822,8.436-2.444A7.6,7.6,0,0,0,128.974,1.8a6.662,6.662,0,0,0-2.422-5.46c-1.706-1.415-4.924-3.2-9.562-5.31l-.007,0-8.729-4.108a23.425,23.425,0,0,1-9.57-7.706,19.187,19.187,0,0,1-3.214-11.044,19.684,19.684,0,0,1,1.822-8.561,18.7,18.7,0,0,1,5.46-6.656,24.9,24.9,0,0,1,8.54-4.24A40.381,40.381,0,0,1,122.364-52.687Zm21.828,4.417a76.3,76.3,0,0,0-21.828-3.26c-7.96,0-14.318,1.816-18.9,5.4a17.559,17.559,0,0,0-5.13,6.244,18.54,18.54,0,0,0-1.708,8.062A18.054,18.054,0,0,0,99.64-21.435a22.292,22.292,0,0,0,9.109,7.313l8.727,4.107c4.794,2.18,8,3.969,9.814,5.469a7.854,7.854,0,0,1,2.84,6.35,8.8,8.8,0,0,1-3.495,7.258c-2.276,1.785-5.355,2.691-9.15,2.691h-2.952a3.319,3.319,0,0,1-3.215-1.994l-9.8-18.993L94.992,9.151a70.382,70.382,0,0,0,22.879,3.756c8.565,0,15.492-1.843,20.588-5.476A17.7,17.7,0,0,0,144.15.921a19.452,19.452,0,0,0,1.9-8.744c0-4.365-1.18-7.861-3.506-10.391a29.9,29.9,0,0,0-10.391-6.791l-8.221-3.6a38.01,38.01,0,0,1-9.2-5.359,8.742,8.742,0,0,1-2.955-6.852,8.554,8.554,0,0,1,3.174-7.13,12.328,12.328,0,0,1,7.8-2.433h1.8a3.949,3.949,0,0,1,3.448,2.206l.008.015,9.563,17.042Zm166.1-4.417a10.962,10.962,0,0,1,9.19,4.465l.187.247-7.3,20.833h-.936L301.112-39.419a1.628,1.628,0,0,0-1.048-.7.885.885,0,0,0-.484.167c-1.529,1.132-3.3,3.527-5.273,7.119V1.676a3.2,3.2,0,0,0,1.654,2.719l12.851,7.475v1.168H264.654V11.951l6.484-6.087a3.338,3.338,0,0,0,.961-2.649V-41.2a4.027,4.027,0,0,0-1-2.813l-6.447-6.578V-51.66h29.653v12.995a27.874,27.874,0,0,1,5.016-8.877A13.924,13.924,0,0,1,310.288-52.687Zm8.079,4.92a9.852,9.852,0,0,0-3.389-2.763,10.656,10.656,0,0,0-4.69-1,12.909,12.909,0,0,0-5.531,1.181A13.711,13.711,0,0,0,300.2-46.79a28.213,28.213,0,0,0-5.64,11.2,18.759,18.759,0,0,1,4.344-5.306l.022-.016a2.033,2.033,0,0,1,1.136-.369,2.575,2.575,0,0,1,1.942,1.125l9.664,11.5ZM293.151-50.5H266.357l5.595,5.71a5.2,5.2,0,0,1,1.3,3.6V3.216a4.475,4.475,0,0,1-1.344,3.508L266.42,11.88h40.112l-11.2-6.514a4.332,4.332,0,0,1-2.183-3.69V-33.13l.071-.13q.369-.677.728-1.3l-.8-.094Zm60.267-2.183a44.286,44.286,0,0,1,14.21,2.133,30.442,30.442,0,0,1,10.957,6.428,26.982,26.982,0,0,1,6.985,10.54,41.115,41.115,0,0,1,2.315,14.338,40.053,40.053,0,0,1-2.332,14.164A27.3,27.3,0,0,1,378.52,5.438a30.735,30.735,0,0,1-10.971,6.476,43.618,43.618,0,0,1-14.131,2.149,44.14,44.14,0,0,1-14.194-2.133,30.149,30.149,0,0,1-10.91-6.43,27,27,0,0,1-6.936-10.54,41.376,41.376,0,0,1-2.3-14.337A40.3,40.3,0,0,1,321.4-33.539a27.317,27.317,0,0,1,6.983-10.521A30.439,30.439,0,0,1,339.3-50.537,43.473,43.473,0,0,1,353.418-52.687Zm0,65.594a42.472,42.472,0,0,0,13.756-2.087,29.585,29.585,0,0,0,10.562-6.232,26.159,26.159,0,0,0,6.735-10.081,38.909,38.909,0,0,0,2.257-13.755,39.973,39.973,0,0,0-2.242-13.934A25.838,25.838,0,0,0,377.8-43.276a29.294,29.294,0,0,0-10.544-6.183,43.142,43.142,0,0,0-13.838-2.071,42.326,42.326,0,0,0-13.74,2.087,29.291,29.291,0,0,0-10.513,6.231,26.171,26.171,0,0,0-6.688,10.081,39.161,39.161,0,0,0-2.241,13.756,40.232,40.232,0,0,0,2.226,13.935A25.853,25.853,0,0,0,329.1,4.654,29,29,0,0,0,339.6,10.836,42.992,42.992,0,0,0,353.418,12.907Zm-639.7-64.567h29.529l-.133,17.527v17.966c0,6.145.634,10.867,1.885,14.036,1.2,3.036,3.29,4.512,6.394,4.512a8.635,8.635,0,0,0,4.636-1.356A14.4,14.4,0,0,0-239.942-3V-41.2a4.027,4.027,0,0,0-1-2.813l-6.447-6.579V-51.66h29.653V2.7a3.562,3.562,0,0,0,.961,2.777l.021.019,6.592,6.46v1.078h-29.781V1.612a22.985,22.985,0,0,1-6.641,8.351,19.776,19.776,0,0,1-12.42,4.1,20.179,20.179,0,0,1-8.621-1.756,16.593,16.593,0,0,1-6.35-5.283,24.44,24.44,0,0,1-3.85-8.577,48.276,48.276,0,0,1-1.269-11.662c0-4.857.086-14.318.257-28.119A3.577,3.577,0,0,0-279.822-44l0,0-6.455-6.587Zm28.364,1.156h-26.661L-279-44.811a4.739,4.739,0,0,1,1.321,3.485v.007c-.17,13.8-.257,23.252-.257,28.1,0,8.562,1.646,15.141,4.894,19.553a15.449,15.449,0,0,0,5.909,4.922A19.039,19.039,0,0,0-259,12.907a18.646,18.646,0,0,0,11.712-3.858,22.457,22.457,0,0,0,7.152-9.9c-2.476,2.913-5.317,4.386-8.466,4.386-3.583,0-6.1-1.764-7.469-5.244-1.3-3.3-1.966-8.17-1.966-14.461V-34.138Zm39.027,0h-26.794l5.595,5.71a5.2,5.2,0,0,1,1.3,3.6V-2.637l-.1.148q-.382.555-.778,1.059l.88.153V11.88h26.893l-5.659-5.546A4.65,4.65,0,0,1-218.89,2.7Zm69.059-1.156h29.653V3.216a3.338,3.338,0,0,0,.961,2.649l.012.011,6.472,6.076v1.085h-37.1V11.951l6.484-6.087a3.338,3.338,0,0,0,.961-2.649V-41.2a4.027,4.027,0,0,0-1-2.813l-6.447-6.579Zm28.5,1.156h-26.794l5.595,5.71a5.2,5.2,0,0,1,1.3,3.6V3.216a4.476,4.476,0,0,1-1.344,3.508l-5.492,5.156H-114.5l-5.492-5.156a4.475,4.475,0,0,1-1.344-3.508ZM387.626-51.66h33.119v.994l-.082.137L416.3-43.212a3.276,3.276,0,0,0-.33,2.741l12.171,37.25,8.232-23.86-3.019-9.056a53.22,53.22,0,0,0-2.662-6.724l-4.042-7.823v-.975h33.119v.994l-4.446,7.454a3.275,3.275,0,0,0-.33,2.74l12.29,37.116,9.2-27.244a7.123,7.123,0,0,0,.55-2.325,7.065,7.065,0,0,0-.9-2.094l-.012-.024-7.5-15.651v-.966H491.73v.991L482.916-35.5a26.606,26.606,0,0,0-2.765,5.647l0,.014L465.378,13.037h-15.2l-.135-.39-11.776-34.1L426.355,13.037H411.024l-.133-.392L394.334-36.127c-1.183-3.3-2.08-5.562-2.666-6.734l-4.042-7.823ZM419.3-50.5h-30.28l3.679,7.122a72.94,72.94,0,0,1,2.723,6.867l0,.009L411.853,11.88h13.679L438.266-25,451,11.88h13.552l14.5-42.09a27.733,27.733,0,0,1,2.878-5.894L490.3-50.5H470l7.165,14.948a7.3,7.3,0,0,1,1.023,2.516,7.338,7.338,0,0,1-.6,2.808L467.271.29,453.887-40.129a4.436,4.436,0,0,1,.438-3.67l4-6.7h-30.28l3.679,7.122a54.294,54.294,0,0,1,2.727,6.879l3.143,9.428-.064.185L428.111.411l-13.246-40.54a4.437,4.437,0,0,1,.438-3.67ZM1.574-50.248c3.052,0,5.409,1.687,7,5.014,1.55,3.232,2.3,8.752,2.3,16.873,0,1.463-.044,2.773-.13,3.9l-.041.534H-9.279l.006-.584c.086-9.022,1.009-15.6,2.745-19.546C-4.724-48.167-2-50.248,1.574-50.248ZM9.635-25.089c.06-.969.09-2.067.09-3.273,0-7.834-.737-13.343-2.189-16.373C6.13-47.666,4.18-49.091,1.574-49.091c-3.115,0-5.419,1.8-7.044,5.5C-7.1-39.877-7.992-33.652-8.11-25.089ZM353.418-50.248c3.753,0,6.568,2.3,8.368,6.848a37.544,37.544,0,0,1,1.963,9.377,142.668,142.668,0,0,1,.645,14.775,143.912,143.912,0,0,1-.645,14.855,37.062,37.062,0,0,1-1.964,9.363c-1.8,4.5-4.615,6.782-8.367,6.782s-6.569-2.326-8.368-6.914a38.116,38.116,0,0,1-1.962-9.424,143.184,143.184,0,0,1-.645-14.791,143.469,143.469,0,0,1,.645-14.839,36.508,36.508,0,0,1,1.964-9.317C346.852-47.988,349.667-50.248,353.418-50.248Zm0,60.844c3.278,0,5.664-1.981,7.293-6.055,1.676-4.19,2.526-12.194,2.526-23.789,0-11.511-.85-19.494-2.527-23.727-1.63-4.116-4.016-6.117-7.293-6.117s-5.665,1.96-7.294,5.992c-1.676,4.147-2.525,12.129-2.525,23.723,0,11.511.85,19.516,2.527,23.793C347.757,8.575,350.142,10.6,353.418,10.6ZM-338.14-33.817h6.868a20.653,20.653,0,0,1,7.874,1.376,13.007,13.007,0,0,1,5.487,4.18,18.979,18.979,0,0,1,3.132,6.833,38.308,38.308,0,0,1,1.029,9.369A40.407,40.407,0,0,1-314.8-2.315a19.582,19.582,0,0,1-3.2,7.067c-2.862,3.794-7.2,5.717-12.881,5.717h-3.594c-1.991,0-2.6-.268-2.914-.5-.515-.386-.745-1.2-.745-2.645Zm7.253,43.13a17.3,17.3,0,0,0,7.011-1.323,12.425,12.425,0,0,0,4.947-3.935c2.67-3.539,4.023-8.96,4.023-16.114,0-6.855-1.321-12.071-3.926-15.5a11.866,11.866,0,0,0-5.007-3.81,19.515,19.515,0,0,0-7.433-1.288h-5.712V7.324c0,1.487.279,1.718.282,1.72.06.045.449.269,2.22.269Z" transform="translate(79.643 491.73) rotate(-90)" fill="#fff" opacity="0.5"/>
</svg>
