<svg xmlns="http://www.w3.org/2000/svg" width="94.131" height="80.105" viewBox="0 0 94.131 80.105"><defs><style>.a{opacity:0.12;}.b{fill:#6150ff;}</style></defs><g class="a" transform="translate(-225.217 -221.857)"><g transform="translate(225.217 221.857)"><path class="b" d="M262.239,301.962H225.217V275.48q0-16.074,2.832-25.362a38.707,38.707,0,0,1,10.474-16.667,53.363,53.363,0,0,1,19.5-11.594l7.247,15.284q-11.068,3.689-15.877,10.276t-5.072,17.523h17.918Zm54.078,0H279.3V275.48q0-16.207,2.832-25.428a38.506,38.506,0,0,1,10.541-16.6A54.171,54.171,0,0,1,312.1,221.857l7.246,15.284q-11.068,3.689-15.877,10.276T298.4,264.941h17.918Z" transform="translate(-225.217 -221.857)"/></g></g></svg>