<svg id="Component_29_1" data-name="Component 29 – 1" xmlns="http://www.w3.org/2000/svg" width="118.556" height="59" viewBox="0 0 118.556 59">
  <g id="Group_4" data-name="Group 4" transform="translate(-40 -29.189)">
    <g id="Group_3" data-name="Group 3" transform="translate(-9.904 -37.694)">
      <path id="Path_12" data-name="Path 12" d="M60.328,96.669h3.828v18.993H60.328v-1.895a5.029,5.029,0,0,1-5.156,2.105,3.862,3.862,0,0,1-1.019-.26,6.534,6.534,0,0,1-3.427-3.15,7.771,7.771,0,0,1,0-6.954,6.418,6.418,0,0,1,3.481-3.144,3.95,3.95,0,0,1,.982-.239,5.01,5.01,0,0,1,5.14,2.119Zm-3.338,15.6a3.259,3.259,0,0,0,2.371-.947,3.3,3.3,0,0,0,0-4.669,3.481,3.481,0,0,0-3.339-.852,1.778,1.778,0,0,0-.559.219,3.354,3.354,0,0,0-1.81,2.963,3.138,3.138,0,0,0,.973,2.332A3.253,3.253,0,0,0,56.99,112.271Z" transform="translate(0 -8.006)" fill="#0074ff"/>
      <path id="Path_13" data-name="Path 13" d="M85.559,110.536a11.373,11.373,0,0,1-.08,1.364H75.586a3.239,3.239,0,0,0,1.126,2.073,3.414,3.414,0,0,0,2.265.774,3.368,3.368,0,0,0,1.794-.43,1.775,1.775,0,0,0,.854-1.147h3.749a5.14,5.14,0,0,1-2.053,3.444,6.838,6.838,0,0,1-4.239,1.3,7.011,7.011,0,0,1-3.543-.921A6.746,6.746,0,0,1,73,114.463a6.968,6.968,0,0,1-.928-3.543,6.586,6.586,0,0,1,2.008-4.881,6.736,6.736,0,0,1,4.92-1.98,6.6,6.6,0,0,1,3.285.847,6.4,6.4,0,0,1,3.271,5.63Zm-9.788-1.073h5.8a2.327,2.327,0,0,0-.875-1.656,2.829,2.829,0,0,0-1.867-.662,3.157,3.157,0,0,0-1.92.583A3.2,3.2,0,0,0,75.771,109.463Z" transform="translate(-5.959 -9.993)" fill="#0074ff"/>
      <path id="Path_14" data-name="Path 14" d="M98.417,117.914a6.905,6.905,0,0,1-4.3-1.265,4.7,4.7,0,0,1-1.857-3.456.045.045,0,0,1,.043-.048h3.587a.039.039,0,0,1,.038.036,1.379,1.379,0,0,0,.7,1.05,2.934,2.934,0,0,0,1.6.411,2.708,2.708,0,0,0,1.318-.265.819.819,0,0,0,.47-.741.835.835,0,0,0-.411-.716,3.016,3.016,0,0,0-1.073-.417q-.661-.139-1.464-.272a12.686,12.686,0,0,1-1.6-.371,7.254,7.254,0,0,1-1.457-.609,2.8,2.8,0,0,1-1.073-1.093,3.178,3.178,0,0,1-.382-1.209,4.208,4.208,0,0,1,1.34-3.591,5.648,5.648,0,0,1,3.916-1.3,6.534,6.534,0,0,1,3.907,1.166,4.448,4.448,0,0,1,1.862,3.235.045.045,0,0,1-.043.05h-3.77a.039.039,0,0,1-.039-.035,1.2,1.2,0,0,0-.579-.865,2.47,2.47,0,0,0-1.418-.371,2.28,2.28,0,0,0-1.106.232.745.745,0,0,0,0,1.337,3.287,3.287,0,0,0,1.08.365q.662.12,1.457.238a10.64,10.64,0,0,1,1.6.371,6.273,6.273,0,0,1,1.463.669,3.073,3.073,0,0,1,1.079,1.225,4.168,4.168,0,0,1,.418,1.935,3.8,3.8,0,0,1-1.53,3.066A5.818,5.818,0,0,1,98.417,117.914Z" transform="translate(-11.386 -9.993)" fill="#0074ff"/>
      <path id="Path_15" data-name="Path 15" d="M110.787,96.281a2.318,2.318,0,0,1,3.285,0,2.207,2.207,0,0,1,.69,1.623,2.331,2.331,0,0,1-4.663,0A2.207,2.207,0,0,1,110.787,96.281Zm1.65,5.414h0a1.914,1.914,0,0,1,1.914,1.914v9.852a1.914,1.914,0,0,1-1.914,1.914h0a1.914,1.914,0,0,1-1.914-1.914v-9.852A1.914,1.914,0,0,1,112.436,101.7Z" transform="translate(-16.18 -7.719)" fill="#0074ff"/>
      <path id="Path_16" data-name="Path 16" d="M149.405,104.026a5.142,5.142,0,0,1,4.013,1.609,6.383,6.383,0,0,1,1.457,4.445v7.536h-3.827v-7.047a2.994,2.994,0,0,0-.722-2.093,2.694,2.694,0,0,0-3.815-.007,2.985,2.985,0,0,0-.722,2.1v7.047h-3.829V105.85a1.914,1.914,0,0,1,1.914-1.914h0a1.914,1.914,0,0,1,1.914,1.914v.189A4.117,4.117,0,0,1,149.405,104.026Z" transform="translate(-24.744 -9.96)" fill="#0074ff"/>
      <path id="Path_17" data-name="Path 17" d="M175.9,110.412a11.246,11.246,0,0,1-.078,1.339h-9.705a3.179,3.179,0,0,0,1.1,2.033,3.351,3.351,0,0,0,2.222.76,3.3,3.3,0,0,0,1.76-.423,1.739,1.739,0,0,0,.837-1.124h3.677a5.043,5.043,0,0,1-2.014,3.378,6.709,6.709,0,0,1-4.158,1.273,6.877,6.877,0,0,1-3.475-.9,6.61,6.61,0,0,1-2.488-2.481,6.833,6.833,0,0,1-.91-3.475A6.463,6.463,0,0,1,164.647,106a6.607,6.607,0,0,1,4.827-1.942,6.471,6.471,0,0,1,3.222.831,6.281,6.281,0,0,1,3.209,5.521Zm-9.6-1.051h5.69a2.277,2.277,0,0,0-.857-1.625,2.775,2.775,0,0,0-1.832-.649,3.1,3.1,0,0,0-1.884.572A3.139,3.139,0,0,0,166.3,109.36Z" transform="translate(-30.313 -9.993)" fill="#0074ff"/>
      <path id="Path_18" data-name="Path 18" d="M191.131,104.059a8.111,8.111,0,0,1,1.285.159v3.47a6.374,6.374,0,0,0-1.391-.186,3.308,3.308,0,0,0-2.4.907,3.562,3.562,0,0,0-.933,2.67v6.569H183.86V104.324h3.828v1.523A3.946,3.946,0,0,1,191.131,104.059Z" transform="translate(-36.007 -9.993)" fill="#0074ff"/>
      <path id="Path_19" data-name="Path 19" d="M202.7,117.648a6.774,6.774,0,0,1-4.216-1.24,4.626,4.626,0,0,1-1.825-3.437h3.6a1.347,1.347,0,0,0,.688,1.065,2.881,2.881,0,0,0,1.572.4,2.654,2.654,0,0,0,1.293-.26.8.8,0,0,0,.461-.728.82.82,0,0,0-.4-.7,2.956,2.956,0,0,0-1.052-.409q-.649-.136-1.436-.267a12.327,12.327,0,0,1-1.566-.363,7.056,7.056,0,0,1-1.429-.6,2.739,2.739,0,0,1-1.052-1.072,3.375,3.375,0,0,1-.4-1.7,3.881,3.881,0,0,1,1.41-3.073,5.584,5.584,0,0,1,3.774-1.215,6.41,6.41,0,0,1,3.833,1.144,4.37,4.37,0,0,1,1.832,3.222h-3.78a1.168,1.168,0,0,0-.572-.883,2.417,2.417,0,0,0-1.39-.364,2.236,2.236,0,0,0-1.085.227.731.731,0,0,0,0,1.312,3.232,3.232,0,0,0,1.059.358q.649.116,1.429.233a10.393,10.393,0,0,1,1.566.364,6.109,6.109,0,0,1,1.435.656,3.009,3.009,0,0,1,1.059,1.2,4.083,4.083,0,0,1,.409,1.9,3.727,3.727,0,0,1-1.5,3.007A5.7,5.7,0,0,1,202.7,117.648Z" transform="translate(-39.445 -9.993)" fill="#0074ff"/>
      <path id="Path_22" data-name="Path 22" d="M9.246-23.44a7.447,7.447,0,0,1,5.725,2.457,8.551,8.551,0,0,1,2.263,6.015,8.551,8.551,0,0,1-2.263,6.015A7.447,7.447,0,0,1,9.246-6.5H2.88V-23.44Zm0,15.734A6.225,6.225,0,0,0,14.087-9.8a7.434,7.434,0,0,0,1.888-5.168,7.434,7.434,0,0,0-1.888-5.168,6.225,6.225,0,0,0-4.841-2.094H4.163V-7.706Zm12.272-14.1a.949.949,0,0,1-.678.278.949.949,0,0,1-.678-.278.917.917,0,0,1-.29-.69.89.89,0,0,1,.29-.666.949.949,0,0,1,.678-.278.949.949,0,0,1,.678.278.89.89,0,0,1,.29.666A.917.917,0,0,1,21.518-21.806ZM20.235-6.5V-18.6h1.21V-6.5ZM35.921-18.6h1.21V-7.077a5.282,5.282,0,0,1-1.719,4.163A6.253,6.253,0,0,1,31.1-1.388a7.573,7.573,0,0,1-3.558-.775,4.827,4.827,0,0,1-2.154-2.13L26.456-4.9Q27.618-2.55,31.1-2.55a4.914,4.914,0,0,0,3.534-1.222,4.348,4.348,0,0,0,1.283-3.3V-9.3A5.635,5.635,0,0,1,33.8-7.052a5.868,5.868,0,0,1-3.086.823,6.047,6.047,0,0,1-4.442-1.828,6.1,6.1,0,0,1-1.828-4.49,6.1,6.1,0,0,1,1.828-4.49,6.047,6.047,0,0,1,4.442-1.828,5.868,5.868,0,0,1,3.086.823,5.635,5.635,0,0,1,2.118,2.251ZM27.146-8.892a4.934,4.934,0,0,0,3.643,1.5,4.934,4.934,0,0,0,3.643-1.5,5,5,0,0,0,1.489-3.655A5,5,0,0,0,34.432-16.2a4.934,4.934,0,0,0-3.643-1.5,4.934,4.934,0,0,0-3.643,1.5,5,5,0,0,0-1.489,3.655A5,5,0,0,0,27.146-8.892Zm15-12.914a.949.949,0,0,1-.678.278.949.949,0,0,1-.678-.278.917.917,0,0,1-.29-.69.89.89,0,0,1,.29-.666.949.949,0,0,1,.678-.278.949.949,0,0,1,.678.278.89.89,0,0,1,.29.666A.917.917,0,0,1,42.142-21.806ZM40.859-6.5V-18.6h1.21V-6.5ZM51.993-17.412H48.387v7.867a2.325,2.325,0,0,0,.387,1.5,1.636,1.636,0,0,0,1.186.52,12.156,12.156,0,0,0,2.033-.061V-6.5a5.707,5.707,0,0,1-3.643-.339,2.874,2.874,0,0,1-1.2-2.711v-7.867H44.49V-18.6h2.663v-3.026l1.234-.363V-18.6h3.607ZM64.822-18.6h1.234V-6.5H64.822V-9.231a5.7,5.7,0,0,1-2.13,2.2,5.94,5.94,0,0,1-3.074.8,6.058,6.058,0,0,1-4.43-1.828,6.083,6.083,0,0,1-1.84-4.49,6.083,6.083,0,0,1,1.84-4.49,6.058,6.058,0,0,1,4.43-1.828,5.94,5.94,0,0,1,3.074.8,5.7,5.7,0,0,1,2.13,2.2Zm-8.75,9.706a4.934,4.934,0,0,0,3.643,1.5,4.895,4.895,0,0,0,3.631-1.5,5.016,5.016,0,0,0,1.477-3.655A5.016,5.016,0,0,0,63.346-16.2a4.895,4.895,0,0,0-3.631-1.5,4.934,4.934,0,0,0-3.643,1.5,5,5,0,0,0-1.489,3.655A5,5,0,0,0,56.072-8.892ZM69.785-6.5v-17.67h1.21V-6.5Z" transform="translate(48.235 91.049)" fill="#050953"/>
      <path id="Path_20" data-name="Path 20" d="M132.5,104.457a1.777,1.777,0,0,0-2.869.508,7.064,7.064,0,0,0-10.717,5.5c-.012.175-.02.351-.02.529a7.063,7.063,0,0,0,14.125.109V111q0-.269-.019-.531l.019.023v-4.778A1.769,1.769,0,0,0,132.5,104.457Zm-3.347,7.316a3.288,3.288,0,0,1-6.391,0,3.329,3.329,0,0,1-.091-.774,3.287,3.287,0,1,1,6.483.774Z" transform="translate(-18.544 -9.96)" fill="#0074ff"/>
      <path id="Path_21" data-name="Path 21" d="M133.081,126.306a1.871,1.871,0,0,1-.447,1.216c-.079.081-.159.161-.242.238a9.376,9.376,0,0,1-12.771.126l0,0q-.211-.191-.408-.395a1.883,1.883,0,0,1,2.7-2.585c.057.057.115.112.175.166a5.73,5.73,0,0,0,7.694,0c.082-.075.162-.151.24-.231a1.879,1.879,0,0,1,3.056,1.464Z" transform="translate(-18.526 -16.468)" fill="#0074ff"/>
      <path id="Path_86" data-name="Path 86" d="M141.974,92.752a1.716,1.716,0,1,1-1.716,1.716A1.717,1.717,0,0,1,141.974,92.752Z" transform="translate(-18.89 -11.639)" fill="#0074ff"/>
    </g>
  </g>
  <text id="Ideas_that_grow_brands" data-name="Ideas that grow brands" transform="translate(0 57)" fill="#7a7a7a" font-size="10" font-family="Gellix-RegularItalic, Gellix" font-style="italic" letter-spacing="-0.02em"><tspan x="0" y="0">Ideas that grow brands</tspan></text>
</svg>
