<svg id="Component_36_1" data-name="Component 36 – 1" xmlns="http://www.w3.org/2000/svg" xmlns:xlink="http://www.w3.org/1999/xlink" width="315.577" height="65.911" viewBox="0 0 315.577 65.911">
  <defs>
    <radialGradient id="radial-gradient" cx="-26.225" cy="-2.008" r="24.957" gradientUnits="objectBoundingBox">
      <stop offset="0" stop-color="#0074ff"/>
      <stop offset="0.883" stop-color="#9865fd"/>
    </radialGradient>
    <radialGradient id="radial-gradient-2" cx="-2.525" cy="-5.452" r="28.068" xlink:href="#radial-gradient"/>
    <radialGradient id="radial-gradient-3" cx="5.863" cy="0.718" r="9.297" gradientUnits="objectBoundingBox">
      <stop offset="0.025" stop-color="#8767fd"/>
      <stop offset="0.218" stop-color="#0074ff"/>
      <stop offset="1" stop-color="#9865fd"/>
    </radialGradient>
    <radialGradient id="radial-gradient-4" cx="2.2" cy="0.589" r="10.918" xlink:href="#radial-gradient-3"/>
    <radialGradient id="radial-gradient-5" cx="0.419" cy="0.697" r="8.092" xlink:href="#radial-gradient-3"/>
    <radialGradient id="radial-gradient-6" cx="-0.826" cy="0.589" r="11.031" xlink:href="#radial-gradient-3"/>
    <radialGradient id="radial-gradient-7" cx="-1.871" cy="0.589" r="11.032" xlink:href="#radial-gradient-3"/>
    <radialGradient id="radial-gradient-8" cx="-2.87" cy="0.692" r="8.242" xlink:href="#radial-gradient-3"/>
    <radialGradient id="radial-gradient-9" cx="-4.397" cy="0.692" r="8.257" xlink:href="#radial-gradient-3"/>
    <radialGradient id="radial-gradient-10" cx="-6.046" cy="0.578" r="11.399" xlink:href="#radial-gradient-3"/>
    <radialGradient id="radial-gradient-11" cx="-7.776" cy="0.589" r="11.096" xlink:href="#radial-gradient-3"/>
    <radialGradient id="radial-gradient-12" cx="-19.177" cy="0.718" r="8.37" xlink:href="#radial-gradient-3"/>
    <radialGradient id="radial-gradient-13" cx="-8.611" cy="0.604" r="11.403" xlink:href="#radial-gradient-3"/>
    <radialGradient id="radial-gradient-14" cx="-9.072" cy="0.589" r="11.021" xlink:href="#radial-gradient-3"/>
    <radialGradient id="radial-gradient-15" cx="-11.748" cy="0.589" r="11.329" xlink:href="#radial-gradient-3"/>
    <radialGradient id="radial-gradient-16" cx="-12.696" cy="0.589" r="11.382" xlink:href="#radial-gradient-3"/>
  </defs>
  <path id="Path_288" data-name="Path 288" d="M970.381,309.225c-.135.434-.35.494-.647.446a3.13,3.13,0,0,0-3.55,2.207,1.061,1.061,0,0,1-.314.492.406.406,0,0,1-.4-.049.7.7,0,0,1-.159-.5,3.25,3.25,0,0,0-.366-2.173,3.08,3.08,0,0,0-1.853-1.449c-.281-.085-.541-.179-.471-.54s.343-.353.638-.322a3.085,3.085,0,0,0,3.557-2.359c.085-.278.243-.439.532-.374.325.072.363.328.314.611a3,3,0,0,0,1.219,3.092,9.782,9.782,0,0,0,1.09.541A2.159,2.159,0,0,1,970.381,309.225Z" transform="translate(-669.667 -276.233)" fill="url(#radial-gradient)"/>
  <path id="Path_289" data-name="Path 289" d="M991.685,377.94c-.134.434-.35.494-.647.446a3.131,3.131,0,0,0-3.55,2.207,1.064,1.064,0,0,1-.314.492.406.406,0,0,1-.4-.049.706.706,0,0,1-.159-.5,3.255,3.255,0,0,0-.366-2.173,3.082,3.082,0,0,0-1.854-1.449c-.281-.084-.54-.178-.47-.54s.343-.354.638-.322a3.085,3.085,0,0,0,3.557-2.358c.086-.278.244-.439.533-.375.324.072.363.328.314.611a3,3,0,0,0,1.218,3.092,9.648,9.648,0,0,0,1.09.54A2.157,2.157,0,0,1,991.685,377.94Z" transform="translate(-681.908 -315.714)" fill="none" stroke="#707070" stroke-width="1"/>
  <path id="Rectangle_19" data-name="Rectangle 19" d="M914.953,308.481h0a1.105,1.105,0,0,1,.839,1.318h0a1.105,1.105,0,0,1-1.318.84h0a1.105,1.105,0,0,1-.839-1.319h0A1.105,1.105,0,0,1,914.953,308.481Z" transform="translate(-641.512 -278.452)" fill="#f253a2"/>
  <g id="Group_44" data-name="Group 44" transform="translate(310.517 45.781)">
    <rect id="Rectangle_20" data-name="Rectangle 20" width="4.821" height="0.256" transform="translate(1.734 4.706) rotate(-77.487)" fill="#f253a2" stroke="#f253a2" stroke-width="0.5"/>
    <rect id="Rectangle_21" data-name="Rectangle 21" width="0.256" height="4.821" transform="translate(0 1.983) rotate(-77.487)" fill="#f253a2" stroke="#f253a2" stroke-width="0.5"/>
  </g>
  <path id="Path_290" data-name="Path 290" d="M280.106,319.579c.414.3.4.546.246.845a3.512,3.512,0,0,0,1.1,4.557,1.186,1.186,0,0,1,.413.507.455.455,0,0,1-.194.408.789.789,0,0,1-.582-.005,3.648,3.648,0,0,0-2.444-.377,3.456,3.456,0,0,0-2.2,1.463c-.189.269-.38.513-.742.31s-.254-.49-.118-.793a3.46,3.46,0,0,0-1.258-4.618c-.266-.189-.382-.414-.211-.7.191-.32.477-.27.762-.12a3.359,3.359,0,0,0,3.721-.208,10.8,10.8,0,0,0,.96-.97A2.443,2.443,0,0,1,280.106,319.579Z" transform="translate(-274.04 -284.844)" fill="url(#radial-gradient-2)"/>
  <path id="Path_291" data-name="Path 291" d="M332.851,284.311c.1.5-.08.673-.4.785a3.512,3.512,0,0,0-2.326,4.068,1.193,1.193,0,0,1-.047.653.456.456,0,0,1-.421.165.786.786,0,0,1-.421-.4,3.647,3.647,0,0,0-1.52-1.95,3.453,3.453,0,0,0-2.6-.442c-.323.066-.629.112-.753-.284s.15-.532.457-.658a3.459,3.459,0,0,0,2.252-4.223c-.064-.32.006-.562.326-.653.359-.1.533.131.636.436a3.361,3.361,0,0,0,2.851,2.4,10.9,10.9,0,0,0,1.364-.048A2.41,2.41,0,0,1,332.851,284.311Z" transform="translate(-302.935 -262.875)" fill="none" stroke="#707070" stroke-width="1"/>
  <g id="Group_45" data-name="Group 45" transform="translate(5.025 15.284)">
    <rect id="Rectangle_22" data-name="Rectangle 22" width="0.287" height="5.407" transform="translate(1.762 0.078) rotate(-15.871)" fill="#f253a2" stroke="#f253a2" stroke-width="0.5"/>
    <rect id="Rectangle_23" data-name="Rectangle 23" width="5.406" height="0.287" transform="translate(0 3.239) rotate(-15.833)" fill="#f253a2" stroke="#f253a2" stroke-width="0.5"/>
  </g>
  <g id="Group_82" data-name="Group 82" transform="translate(50.798)">
    <g id="Group_81" data-name="Group 81">
      <path id="Path_577" data-name="Path 577" d="M419.33,254.994q.063,1.059.126,2.118a11.688,11.688,0,0,1-2.947,9.057,12.391,12.391,0,0,1-8.589,3.877,13.427,13.427,0,0,1-9.888-3.01,12.791,12.791,0,0,1-1.419-18.233,12.921,12.921,0,0,1,9.145-4.422,13.619,13.619,0,0,1,6.6,1.12,11.769,11.769,0,0,1,4.825,3.809q-2.369,1.526-4.727,3.061a6.054,6.054,0,0,0-2.6-1.921,8.191,8.191,0,0,0-3.75-.562,7.154,7.154,0,0,0-6.875,7.94,6.924,6.924,0,0,0,2.533,5.081,8.022,8.022,0,0,0,5.854,1.625q4.957-.339,6.142-4.236-3.345.214-6.69.444-.17-2.47-.34-4.941Q413.026,255.37,419.33,254.994Z" transform="translate(-393.443 -241.617)" fill="#0074ff"/>
      <path id="Path_578" data-name="Path 578" d="M476.525,273.17a9.705,9.705,0,0,1-13.394.682A8.978,8.978,0,0,1,460,267.387a8.882,8.882,0,0,1,2.385-6.779,9.783,9.783,0,0,1,13.526-.689,8.883,8.883,0,0,1,3.062,6.5A8.978,8.978,0,0,1,476.525,273.17Zm-9.811-3.144a4.413,4.413,0,1,0-1.341-2.939A4.013,4.013,0,0,0,466.714,270.026Z" transform="translate(-431.676 -249.192)" fill="#0074ff"/>
      <path id="Path_579" data-name="Path 579" d="M526.088,271.137a9.7,9.7,0,0,1-13.4.474,8.977,8.977,0,0,1-3.024-6.513,8.88,8.88,0,0,1,2.49-6.741,9.779,9.779,0,0,1,13.533-.479,8.885,8.885,0,0,1,2.96,6.549A8.978,8.978,0,0,1,526.088,271.137Zm-9.76-3.3a4.414,4.414,0,1,0-1.295-2.96A4.012,4.012,0,0,0,516.329,267.841Z" transform="translate(-460.213 -247.962)" fill="#0074ff"/>
      <path id="Path_580" data-name="Path 580" d="M572.979,238.268q2.719-.045,5.437-.079.156,12.38.312,24.76-2.67.033-5.34.077-.013-.831-.027-1.662a6.708,6.708,0,0,1-5.267,2.256,7.938,7.938,0,0,1-6.08-2.568,9.451,9.451,0,0,1-2.673-6.566,9.344,9.344,0,0,1,2.342-6.7,7.986,7.986,0,0,1,6.029-2.843A6.77,6.77,0,0,1,573.123,247Q573.051,242.637,572.979,238.268Zm-7.013,19.2a4.644,4.644,0,0,0,6.148-.121,4.268,4.268,0,1,0-6.148.121Z" transform="translate(-488.759 -238.08)" fill="#0074ff"/>
      <path id="Path_581" data-name="Path 581" d="M645.436,237.946a11.781,11.781,0,0,1,8.753,3.622,11.988,11.988,0,0,1,3.407,8.867,12.163,12.163,0,0,1-3.6,8.783,11.693,11.693,0,0,1-8.671,3.489q-4.984-.022-9.968-.007-.037-12.381-.074-24.761Q640.36,237.923,645.436,237.946Zm-.085,19.314a6.442,6.442,0,0,0,4.823-1.863,7.792,7.792,0,0,0,.08-10.081,6.474,6.474,0,0,0-4.841-1.923q-2.167-.01-4.333-.012-.008,6.934-.017,13.867Q643.206,257.25,645.351,257.259Z" transform="translate(-532.396 -237.933)" fill="#0074ff"/>
      <path id="Path_582" data-name="Path 582" d="M698.323,265.549q.883,2.495,4.237,2.565a4.468,4.468,0,0,0,3.461-1.263q2.114,1.273,4.221,2.553a9.035,9.035,0,0,1-7.858,3.447,9.846,9.846,0,0,1-7.125-2.793,9.638,9.638,0,0,1,.19-13.352,9.313,9.313,0,0,1,6.954-2.536A8.728,8.728,0,0,1,708.878,257a9.134,9.134,0,0,1,2.419,6.738,9.971,9.971,0,0,1-.275,2.115Q704.674,265.671,698.323,265.549Zm-.032-3.963q3.857.073,7.714.169a3.563,3.563,0,0,0-3.741-2.883A3.632,3.632,0,0,0,698.292,261.586Z" transform="translate(-565.365 -247.26)" fill="#0074ff"/>
      <path id="Path_583" data-name="Path 583" d="M745.247,260.989q-.018.53.885.9t2.183.75a19.875,19.875,0,0,1,2.55.963A5.2,5.2,0,0,1,753,265.435a5.508,5.508,0,0,1-1.524,7.339,9.153,9.153,0,0,1-5.321,1.272c-3.746-.131-6.25-1.609-7.524-4.455q2.358-1.24,4.725-2.471a2.915,2.915,0,0,0,2.966,2.189q1.927.068,1.968-1.027.019-.53-.879-.917a20.374,20.374,0,0,0-2.175-.767,18.716,18.716,0,0,1-2.547-.97,5.537,5.537,0,0,1-2.148-1.784,4.512,4.512,0,0,1-.828-2.892,5.021,5.021,0,0,1,2.165-4.215,8.128,8.128,0,0,1,5.079-1.352,8.537,8.537,0,0,1,4.038,1.122,7.5,7.5,0,0,1,2.841,2.926q-2.35,1.126-4.693,2.261a2.651,2.651,0,0,0-2.35-1.642Q745.281,260,745.247,260.989Z" transform="translate(-591.775 -247.956)" fill="#0074ff"/>
      <path id="Path_584" data-name="Path 584" d="M785.885,244.673a3.283,3.283,0,0,1-4.585-.2,3.11,3.11,0,0,1,.193-4.489,3.292,3.292,0,0,1,4.6.205,3.111,3.111,0,0,1-.208,4.488Zm-5.86,19.94q.376-8.835.753-17.671,2.7.116,5.406.241-.412,8.834-.823,17.667Q782.693,264.726,780.025,264.613Z" transform="translate(-615.559 -238.626)" fill="#0074ff"/>
      <path id="Path_585" data-name="Path 585" d="M815.247,259.085q2.629.156,5.258.322-.529,8.384-1.058,16.769a7.554,7.554,0,0,1-3.124,6.133,10.494,10.494,0,0,1-6.742,1.749c-3.983-.223-6.7-1.789-8.168-4.718q2.336-1.194,4.68-2.38a4.876,4.876,0,0,0,6.929,1.644,3.62,3.62,0,0,0,1.231-2.745q.048-.812.1-1.624a6.337,6.337,0,0,1-5.328,2,8.342,8.342,0,0,1-6.109-2.963,8.891,8.891,0,0,1-2.2-6.467,8.8,8.8,0,0,1,2.846-6.216,8.387,8.387,0,0,1,6.459-2.3,6.387,6.387,0,0,1,5.125,2.6Q815.193,259.985,815.247,259.085Zm-8.108,11.022a4.857,4.857,0,0,0,6.216.348,4.231,4.231,0,0,0,.346-5.933,4.873,4.873,0,0,0-6.243-.35,4.232,4.232,0,0,0-.319,5.934Z" transform="translate(-627.436 -249.62)" fill="#0074ff"/>
      <path id="Path_586" data-name="Path 586" d="M865.578,261.78a6.485,6.485,0,0,1,4.657,2.3,7.291,7.291,0,0,1,1.5,5.51q-.426,5.413-.852,10.826-2.664-.209-5.329-.408.376-5.027.751-10.054a2.948,2.948,0,0,0-2.882-3.44,3.255,3.255,0,0,0-2.5.743,3.743,3.743,0,0,0-1.086,2.654q-.337,4.817-.674,9.634-2.665-.186-5.331-.362.582-8.824,1.164-17.649,2.7.179,5.4.367-.058.83-.116,1.659Q862.046,261.524,865.578,261.78Z" transform="translate(-657.964 -251.495)" fill="#0074ff"/>
    </g>
  </g>
  <g id="Group_84" data-name="Group 84" transform="translate(19.774 34.849)">
    <g id="Group_83" data-name="Group 83" transform="translate(0 0)">
      <path id="Path_587" data-name="Path 587" d="M329.508,355.889q-3.358.25-6.715.513-.724-9.24-1.449-18.481,3.393-.267,6.787-.519Q328.819,346.646,329.508,355.889Zm-5.932-.4q2.509-.2,5.018-.384-.629-8.394-1.259-16.789-2.533.19-5.067.388Zm1.115-18.427a3.771,3.771,0,0,1-2.8-.919,3.669,3.669,0,0,1-1.355-2.59,3.6,3.6,0,0,1,.941-2.756,3.9,3.9,0,0,1,5.445-.417,3.6,3.6,0,0,1,1.349,2.581,3.669,3.669,0,0,1-.946,2.767h0A3.771,3.771,0,0,1,324.691,337.061Zm-.515-6.737a2.925,2.925,0,0,0-2.051,1.03,2.747,2.747,0,0,0-.731,2.13,2.814,2.814,0,0,0,1.056,2.011,2.98,2.98,0,0,0,4.219-.323,2.812,2.812,0,0,0,.738-2.148,2.753,2.753,0,0,0-1.047-1.994A2.927,2.927,0,0,0,324.176,330.324Z" transform="translate(-320.52 -325.372)" fill="url(#radial-gradient-3)"/>
      <path id="Path_588" data-name="Path 588" d="M352.383,364.758c-4.118.285-7.017-1-8.627-3.849l-.2-.361q2.774-1.657,5.559-3.306l-1.443-.38a5.008,5.008,0,0,1-2.529-1.6,5.154,5.154,0,0,1-1.205-3.093,5.54,5.54,0,0,1,1.945-4.882,8.831,8.831,0,0,1,5.24-2.013c3.686-.254,6.39,1.034,8.026,3.813l.225.382q-2.653,1.392-5.3,2.793l2.213.545a4.792,4.792,0,0,1,2.582,1.69,5.781,5.781,0,0,1,1.206,3.369,5.376,5.376,0,0,1-2.163,5A10.4,10.4,0,0,1,352.383,364.758Zm-7.669-3.912c1.484,2.317,3.976,3.315,7.61,3.064a9.562,9.562,0,0,0,5.083-1.73,4.515,4.515,0,0,0,1.814-4.261,4.96,4.96,0,0,0-1.018-2.887,3.9,3.9,0,0,0-2.125-1.4q-2.419-.6-4.841-1.189c-.833-.2-1.273-.561-1.308-1.065-.031-.446.144-1.212,1.664-1.316a2.72,2.72,0,0,1,2.484,1.234q2.043-1.082,4.091-2.159c-1.491-2.245-3.785-3.236-6.989-3.016a7.983,7.983,0,0,0-4.738,1.809,4.678,4.678,0,0,0-1.649,4.175,4.328,4.328,0,0,0,1,2.6,4.164,4.164,0,0,0,2.1,1.338q2.391.629,4.778,1.264c.811.216,1.24.593,1.275,1.117s-.17,1.384-1.928,1.5a3.093,3.093,0,0,1-3.109-1.572Q346.807,359.6,344.714,360.845Zm4.643-3.538.12.279a2.252,2.252,0,0,0,2.479,1.49c1.169-.08,1.142-.47,1.133-.6-.006-.089-.21-.238-.645-.353Q350.9,357.715,349.357,357.307Zm1-5.96.428-.029s.073.156.658.3l2.168.53-.045-.075a2.01,2.01,0,0,0-1.914-1.162c-.591.04-.882.178-.866.408Z" transform="translate(-333.753 -334.436)" fill="url(#radial-gradient-4)"/>
      <path id="Path_589" data-name="Path 589" d="M416.708,350.9a13.555,13.555,0,0,1-10.048-3.3,13.517,13.517,0,0,1-1.1-18.928,13.108,13.108,0,0,1,9.422-4.392,13.924,13.924,0,0,1,6.728,1.277,12.372,12.372,0,0,1,4.927,4.062l.257.364q-3.015,1.887-6.017,3.784l-.237-.331a4.887,4.887,0,0,0-2.11-1.62,6.95,6.95,0,0,0-3.115-.507,6.078,6.078,0,0,0-4.461,2.02A6.166,6.166,0,0,0,409.439,338a6.426,6.426,0,0,0,2,4.453,6.5,6.5,0,0,0,5.025,1.585c2.443-.125,4.057-.992,4.914-2.65q-2.892.139-5.784.288l-.324-6.29q6.727-.347,13.456-.642.064,1.467.129,2.934a12.345,12.345,0,0,1-3.147,9.278A12.645,12.645,0,0,1,416.708,350.9Zm-1.679-25.77a12.271,12.271,0,0,0-8.82,4.105,12.672,12.672,0,0,0,1.018,17.728,12.728,12.728,0,0,0,9.437,3.087,11.818,11.818,0,0,0,8.415-3.669A11.521,11.521,0,0,0,428,337.716q-.047-1.042-.092-2.084-5.868.26-11.734.56.117,2.3.234,4.59,3.133-.16,6.266-.308l-.224.6c-.883,2.377-2.88,3.655-5.94,3.811a7.056,7.056,0,0,1-7.926-6.84,6.925,6.925,0,0,1,6.793-7.591,7.815,7.815,0,0,1,3.5.576,5.888,5.888,0,0,1,2.219,1.587q2.283-1.441,4.573-2.876a11.631,11.631,0,0,0-4.33-3.422A13.056,13.056,0,0,0,415.03,325.128Z" transform="translate(-367.456 -322.381)" fill="url(#radial-gradient-5)"/>
      <path id="Path_590" data-name="Path 590" d="M477.746,357.972a9.726,9.726,0,0,1-7.1-2.549,9.732,9.732,0,0,1-.577-13.861,10.206,10.206,0,0,1,14.124-.53,9.775,9.775,0,0,1,.465,13.863A9.707,9.707,0,0,1,477.746,357.972Zm-.7-18.664a8.93,8.93,0,0,0-6.351,2.836,8.884,8.884,0,0,0,.522,12.647,9.286,9.286,0,0,0,12.821-.48,8.927,8.927,0,0,0-.428-12.652A8.911,8.911,0,0,0,477.045,339.308Zm.489,13.008a3.86,3.86,0,0,1-2.888-1.043,4.4,4.4,0,0,1-.231-5.9,3.872,3.872,0,0,1,2.811-1.262,3.912,3.912,0,0,1,2.933,1.046,4.4,4.4,0,0,1,.211,5.9A3.9,3.9,0,0,1,477.533,352.316Zm-.276-7.352a3,3,0,0,0-2.208.984,3.555,3.555,0,0,0,.183,4.706,2.991,2.991,0,0,0,2.27.813,3.031,3.031,0,0,0,2.237-.982,3.554,3.554,0,0,0-.171-4.706A3.037,3.037,0,0,0,477.257,344.964Z" transform="translate(-404.936 -330.535)" fill="url(#radial-gradient-6)"/>
      <path id="Path_591" data-name="Path 591" d="M526.4,356.436a9.725,9.725,0,0,1-7.071-2.633,9.732,9.732,0,0,1-.411-13.867,10.206,10.206,0,0,1,14.128-.361,9.775,9.775,0,0,1,.3,13.868A9.708,9.708,0,0,1,526.4,356.436Zm-.479-18.671a8.93,8.93,0,0,0-6.384,2.761,8.885,8.885,0,0,0,.371,12.652,9.285,9.285,0,0,0,12.824-.328,8.928,8.928,0,0,0-.278-12.657A8.912,8.912,0,0,0,525.92,337.765Zm.334,13.013a3.858,3.858,0,0,1-2.875-1.077,4.4,4.4,0,0,1-.161-5.9,3.868,3.868,0,0,1,2.825-1.228,3.912,3.912,0,0,1,2.92,1.081,4.4,4.4,0,0,1,.141,5.9A3.9,3.9,0,0,1,526.254,350.778Zm-.189-7.355a3,3,0,0,0-2.22.957,3.556,3.556,0,0,0,.127,4.708,2.991,2.991,0,0,0,2.26.839,3.032,3.032,0,0,0,2.249-.955,3.554,3.554,0,0,0-.115-4.708A3.039,3.039,0,0,0,526.065,343.423Z" transform="translate(-432.957 -329.651)" fill="url(#radial-gradient-7)"/>
      <path id="Path_592" data-name="Path 592" d="M573.929,346.46a8.124,8.124,0,0,1-6.3-2.711,10.875,10.875,0,0,1-.25-13.9,8.166,8.166,0,0,1,6.267-2.914,7.01,7.01,0,0,1,4.67,1.464q-.047-4.052-.095-8.1,3.414-.04,6.829-.067.1,12.806.2,25.611-3.365.026-6.73.066-.006-.514-.012-1.029A6.951,6.951,0,0,1,573.929,346.46Zm-.268-18.675a7.244,7.244,0,0,0-5.628,2.619,10.03,10.03,0,0,0,.225,12.767,7.207,7.207,0,0,0,5.659,2.439,5.817,5.817,0,0,0,4.682-2.034l.741-.89q.013,1.179.027,2.359,2.514-.028,5.029-.049-.1-11.955-.2-23.91-2.549.022-5.1.05.053,4.717.106,9.433l-.767-.873A5.859,5.859,0,0,0,573.661,327.785Zm1.5,13.174a4.03,4.03,0,0,1-3.024-1.147,4.718,4.718,0,0,1-.095-6.18,4.416,4.416,0,0,1,6.037-.082,4.719,4.719,0,0,1,.074,6.18A4.033,4.033,0,0,1,575.164,340.96Zm-.105-7.711a3.169,3.169,0,0,0-2.388.966,3.879,3.879,0,0,0,.075,5h0a3.548,3.548,0,0,0,4.789-.065,3.879,3.879,0,0,0-.062-5A3.169,3.169,0,0,0,575.059,333.249Z" transform="translate(-460.985 -320.066)" fill="url(#radial-gradient-8)"/>
      <path id="Path_593" data-name="Path 593" d="M648.769,346.228a6.951,6.951,0,0,1-4.6-1.54l0,1.029q-3.365-.008-6.73,0-.022-12.806-.045-25.612,3.415-.006,6.829,0-.008,4.052-.017,8.1a7.014,7.014,0,0,1,4.656-1.508,8.168,8.168,0,0,1,6.294,2.853,10.875,10.875,0,0,1-.117,13.9A8.124,8.124,0,0,1,648.769,346.228Zm-5.447-3.723.75.884a5.817,5.817,0,0,0,4.7,1.988,7.207,7.207,0,0,0,5.635-2.493,10.032,10.032,0,0,0,.1-12.769,7.242,7.242,0,0,0-5.652-2.565,5.857,5.857,0,0,0-4.758,1.956l-.759.881q.008-4.717.015-9.434-2.549,0-5.1,0,.015,11.955.03,23.91,2.514,0,5.029,0Q643.32,343.684,643.322,342.5Zm4.159-1.766a4.027,4.027,0,0,1-3-1.2h0a4.718,4.718,0,0,1,.014-6.181,4.414,4.414,0,0,1,6.037.024,4.72,4.72,0,0,1-.036,6.181A4.03,4.03,0,0,1,647.481,340.739Zm.031-7.711a3.167,3.167,0,0,0-2.4.923,3.877,3.877,0,0,0-.014,5h0a3.548,3.548,0,0,0,4.788.019,3.879,3.879,0,0,0,.027-5A3.171,3.171,0,0,0,647.512,333.028Z" transform="translate(-502.584 -319.993)" fill="url(#radial-gradient-9)"/>
      <path id="Path_594" data-name="Path 594" d="M695.229,356.085a6.58,6.58,0,0,1-4.978-2.165,8.442,8.442,0,0,1-1.876-5.954q.059-5.5.118-11,3.4.036,6.8.086-.075,5.129-.15,10.258a2.4,2.4,0,0,0,.573,1.792,2.234,2.234,0,0,0,1.629.612,2.354,2.354,0,0,0,1.846-.663,3.022,3.022,0,0,0,.688-2.089q.085-4.916.17-9.833,3.4.059,6.8.131-.2,9.267-.392,18.533-3.364-.071-6.729-.129.01-.53.018-1.059A6.387,6.387,0,0,1,695.229,356.085Zm-5.884-18.259q-.057,5.075-.114,10.15a7.628,7.628,0,0,0,1.652,5.373,5.68,5.68,0,0,0,4.358,1.886,5.183,5.183,0,0,0,4.61-2.009l.8-1.087q-.024,1.344-.048,2.688,2.513.045,5.028.1.174-8.416.348-16.832-2.538-.052-5.077-.1l-.16,8.983a3.825,3.825,0,0,1-.924,2.659,3.2,3.2,0,0,1-2.48.929,3.091,3.091,0,0,1-2.222-.862,3.2,3.2,0,0,1-.823-2.4q.066-4.7.132-9.407Q691.884,337.853,689.345,337.825Z" transform="translate(-531.876 -329.682)" fill="url(#radial-gradient-10)"/>
      <path id="Path_595" data-name="Path 595" d="M742.155,356.554c-4.125-.11-6.885-1.669-8.216-4.655l-.168-.379q2.918-1.385,5.846-2.76l-1.4-.516a5,5,0,0,1-2.364-1.837,5.159,5.159,0,0,1-.9-3.194,5.539,5.539,0,0,1,2.4-4.674,8.817,8.817,0,0,1,5.405-1.5c3.692.1,6.26,1.638,7.622,4.561l.188.4q-2.773,1.133-5.538,2.275l2.15.754a4.79,4.79,0,0,1,2.408,1.929,5.786,5.786,0,0,1,.879,3.468,5.376,5.376,0,0,1-2.629,4.773A10.388,10.388,0,0,1,742.155,356.554Zm-7.257-4.626c1.255,2.448,3.639,3.678,7.279,3.775a9.552,9.552,0,0,0,5.222-1.237,4.517,4.517,0,0,0,2.211-4.068,4.962,4.962,0,0,0-.737-2.97,3.9,3.9,0,0,0-1.981-1.6q-2.35-.826-4.7-1.645c-.809-.281-1.213-.679-1.2-1.185.012-.447.258-1.192,1.781-1.152a2.72,2.72,0,0,1,2.354,1.465q2.136-.882,4.276-1.758c-1.269-2.377-3.457-3.583-6.667-3.669a7.976,7.976,0,0,0-4.886,1.349,4.676,4.676,0,0,0-2.039,4,4.326,4.326,0,0,0,.744,2.681,4.158,4.158,0,0,0,1.962,1.532q2.319.854,4.633,1.714c.787.293,1.178.708,1.163,1.234s-.3,1.361-2.062,1.314a3.091,3.091,0,0,1-2.944-1.861Q737.1,350.885,734.9,351.928Zm4.957-3.079.092.29a2.251,2.251,0,0,0,2.324,1.72c1.171.032,1.181-.359,1.185-.487,0-.089-.186-.257-.607-.413Zm1.563-5.838.429.012s.058.162.626.359l2.106.735-.038-.079a2.01,2.01,0,0,0-1.794-1.339c-.591-.016-.894.093-.9.323Z" transform="translate(-557.959 -329.721)" fill="url(#radial-gradient-11)"/>
      <path id="Path_596" data-name="Path 596" d="M782.63,346.7q-3.364-.121-6.727-.23.3-9.264.6-18.528,3.4.109,6.8.232Q782.964,337.433,782.63,346.7Zm-5.848-1.053q2.514.082,5.027.172.3-8.413.6-16.825-2.537-.091-5.075-.174Q777.057,337.23,776.782,345.644Zm3.138-18.192a3.764,3.764,0,0,1-2.683-1.223,3.669,3.669,0,0,1-1.061-2.724,3.6,3.6,0,0,1,1.238-2.635,3.9,3.9,0,0,1,5.455.186,3.6,3.6,0,0,1,1.056,2.713,3.67,3.67,0,0,1-1.244,2.645h0A3.766,3.766,0,0,1,779.92,327.452Zm.231-6.752a2.924,2.924,0,0,0-2.151.8,2.752,2.752,0,0,0-.961,2.036,2.814,2.814,0,0,0,.827,2.115,2.975,2.975,0,0,0,4.227.144,2.815,2.815,0,0,0,.969-2.054,2.752,2.752,0,0,0-.82-2.1A2.926,2.926,0,0,0,780.151,320.7Z" transform="translate(-582.167 -319.847)" fill="url(#radial-gradient-12)"/>
      <path id="Path_597" data-name="Path 597" d="M815.855,358.881q-3.362-.161-6.724-.31.227-5.124.453-10.249a2.388,2.388,0,0,0-.523-1.808,2.241,2.241,0,0,0-1.617-.657,2.36,2.36,0,0,0-1.869.614,3.012,3.012,0,0,0-.741,2.071q-.2,4.913-.408,9.827-3.363-.14-6.726-.266.348-9.262.7-18.525,3.4.128,6.8.269-.022.529-.044,1.059a6.456,6.456,0,0,1,4.607-1.359,6.635,6.635,0,0,1,4.956,2.327,8.365,8.365,0,0,1,1.67,6.018Zm-5.835-1.122q2.512.112,5.025.232l.482-10.139a7.569,7.569,0,0,0-1.471-5.429,5.727,5.727,0,0,0-4.337-2.025,5.224,5.224,0,0,0-4.7,1.884l-.826,1.066q.055-1.343.11-2.685-2.537-.1-5.075-.2-.32,8.412-.64,16.824,2.513.1,5.026.2l.368-8.977a3.81,3.81,0,0,1,.989-2.636,3.208,3.208,0,0,1,2.514-.864,3.1,3.1,0,0,1,2.206.925,3.19,3.19,0,0,1,.753,2.428Q810.23,353.059,810.02,357.759Z" transform="translate(-594.69 -331.16)" fill="url(#radial-gradient-13)"/>
      <path id="Path_598" data-name="Path 598" d="M854.673,361.2a10.418,10.418,0,0,1-7.354-3.147,9.371,9.371,0,0,1-2.5-7.106,9.516,9.516,0,0,1,3.144-6.837,9.658,9.658,0,0,1,7.279-2.436A9.309,9.309,0,0,1,862,344.84a9.525,9.525,0,0,1,2.31,7.1,9.764,9.764,0,0,1-.4,2.273l-.1.32q-2.671-.16-5.342-.312,2.325,1.823,4.64,3.653l-.3.337A9.668,9.668,0,0,1,854.673,361.2Zm.523-18.676a8.825,8.825,0,0,0-6.651,2.214,8.7,8.7,0,0,0-2.869,6.251,8.543,8.543,0,0,0,2.268,6.485,9.59,9.59,0,0,0,6.776,2.877,8.967,8.967,0,0,0,7.145-2.38q-1.724-1.36-3.453-2.717a5.007,5.007,0,0,1-3.321.939c-2.237-.123-3.663-1.013-4.24-2.653l-.21-.6q6.275.328,12.549.7a9.17,9.17,0,0,0,.27-1.755,8.71,8.71,0,0,0-2.105-6.488A8.474,8.474,0,0,0,855.2,342.521Zm-3.25,11.338a3.711,3.711,0,0,0,3.191,1.481,4.1,4.1,0,0,0,3-.956l.207-.174Q855.145,354.028,851.946,353.859Zm6.83-3.7q-3.988-.227-7.977-.436l.194-.538a3.685,3.685,0,0,1,4.051-2.567,3.6,3.6,0,0,1,3.607,2.99Zm-6.738-1.223q2.805.149,5.61.307A2.711,2.711,0,0,0,855,347.47,2.863,2.863,0,0,0,852.038,348.938Z" transform="translate(-621.756 -332.376)" fill="url(#radial-gradient-14)"/>
      <path id="Path_599" data-name="Path 599" d="M897.314,363.668c-4.119-.267-6.819-1.931-8.037-4.964l-.154-.385q2.97-1.273,5.949-2.536l-1.379-.569a5.006,5.006,0,0,1-2.293-1.926,5.158,5.158,0,0,1-.782-3.226,5.537,5.537,0,0,1,2.578-4.579,8.82,8.82,0,0,1,5.461-1.3c3.687.24,6.2,1.876,7.447,4.848l.172.409q-2.815,1.027-5.622,2.063l2.12.836a4.792,4.792,0,0,1,2.335,2.019,5.783,5.783,0,0,1,.746,3.5,5.377,5.377,0,0,1-2.81,4.669A10.4,10.4,0,0,1,897.314,363.668Zm-7.078-4.9c1.162,2.494,3.5,3.815,7.134,4.05a9.556,9.556,0,0,0,5.267-1.038A4.515,4.515,0,0,0,905,357.8a4.962,4.962,0,0,0-.624-3,3.907,3.907,0,0,0-1.92-1.672q-2.318-.915-4.639-1.823c-.8-.311-1.187-.725-1.155-1.23.029-.446.3-1.181,1.824-1.083a2.721,2.721,0,0,1,2.3,1.554q2.169-.8,4.342-1.594c-1.179-2.424-3.32-3.712-6.525-3.92a7.975,7.975,0,0,0-4.936,1.162,4.677,4.677,0,0,0-2.191,3.917,4.329,4.329,0,0,0,.642,2.708,4.158,4.158,0,0,0,1.9,1.606q2.286.942,4.567,1.889c.776.322,1.15.753,1.116,1.278s-.353,1.349-2.111,1.235a3.093,3.093,0,0,1-2.872-1.972Q892.475,357.81,890.235,358.768Zm5.073-2.888q.04.146.081.293a2.251,2.251,0,0,0,2.258,1.807c1.169.076,1.195-.314,1.2-.442.006-.089-.177-.264-.591-.436Q896.784,356.49,895.308,355.881Zm1.784-5.774.428.028s.052.165.612.383l2.078.814-.035-.08a2.01,2.01,0,0,0-1.743-1.406c-.59-.038-.9.059-.912.289Z" transform="translate(-647.219 -333.817)" fill="url(#radial-gradient-15)"/>
      <path id="Path_600" data-name="Path 600" d="M934.341,366.242c-4.117-.3-6.8-1.992-7.992-5.037l-.151-.386q2.982-1.246,5.973-2.481l-1.374-.582a5,5,0,0,1-2.276-1.947,5.156,5.156,0,0,1-.753-3.233,5.538,5.538,0,0,1,2.62-4.556,8.828,8.828,0,0,1,5.473-1.248c3.686.274,6.18,1.932,7.4,4.915l.169.411q-2.824,1-5.642,2.011l2.113.854a4.8,4.8,0,0,1,2.316,2.04,5.779,5.779,0,0,1,.715,3.506,5.376,5.376,0,0,1-2.853,4.644A10.4,10.4,0,0,1,934.341,366.242Zm-7.035-4.964c1.14,2.5,3.464,3.846,7.1,4.115a9.565,9.565,0,0,0,5.278-.989,4.516,4.516,0,0,0,2.4-3.96,4.961,4.961,0,0,0-.6-3,3.908,3.908,0,0,0-1.905-1.69q-2.31-.936-4.624-1.865c-.8-.319-1.18-.736-1.143-1.24.032-.446.314-1.179,1.834-1.067a2.72,2.72,0,0,1,2.283,1.575q2.177-.78,4.357-1.555c-1.156-2.435-3.287-3.742-6.491-3.98a7.978,7.978,0,0,0-4.947,1.117,4.677,4.677,0,0,0-2.226,3.9,4.326,4.326,0,0,0,.617,2.713,4.157,4.157,0,0,0,1.889,1.623q2.278.963,4.55,1.931c.773.33,1.144.763,1.1,1.287s-.365,1.346-2.123,1.215a3.093,3.093,0,0,1-2.854-2Q929.555,360.341,927.306,361.278Zm5.1-2.842.078.294a2.252,2.252,0,0,0,2.242,1.828c1.168.086,1.2-.3,1.207-.431.007-.089-.174-.265-.588-.441Q933.876,359.06,932.406,358.437Zm1.837-5.758.428.032s.05.165.608.389l2.071.833-.034-.08a2.012,2.012,0,0,0-1.73-1.423c-.591-.044-.9.051-.915.281Z" transform="translate(-668.521 -335.3)" fill="url(#radial-gradient-16)"/>
    </g>
  </g>
</svg>
