<svg id="Component_30_1" data-name="Component 30 – 1" xmlns="http://www.w3.org/2000/svg" xmlns:xlink="http://www.w3.org/1999/xlink" width="536.57" height="112.057" viewBox="0 0 536.57 112.057">
  <defs>
    <radialGradient id="radial-gradient" cx="-26.225" cy="-2.008" r="24.957" gradientUnits="objectBoundingBox">
      <stop offset="0" stop-color="#0074ff"/>
      <stop offset="0.883" stop-color="#9865fd"/>
    </radialGradient>
    <radialGradient id="radial-gradient-2" cx="-2.525" cy="-5.452" r="28.068" xlink:href="#radial-gradient"/>
    <radialGradient id="radial-gradient-3" cx="5.863" cy="0.718" r="9.297" gradientUnits="objectBoundingBox">
      <stop offset="0.025" stop-color="#8767fd"/>
      <stop offset="0.218" stop-color="#0074ff"/>
      <stop offset="1" stop-color="#9865fd"/>
    </radialGradient>
    <radialGradient id="radial-gradient-4" cx="2.2" cy="0.589" r="10.918" xlink:href="#radial-gradient-3"/>
    <radialGradient id="radial-gradient-5" cx="0.419" cy="0.697" r="8.092" xlink:href="#radial-gradient-3"/>
    <radialGradient id="radial-gradient-6" cx="-0.826" cy="0.589" r="11.031" xlink:href="#radial-gradient-3"/>
    <radialGradient id="radial-gradient-7" cx="-1.871" cy="0.589" r="11.032" xlink:href="#radial-gradient-3"/>
    <radialGradient id="radial-gradient-8" cx="-2.87" cy="0.692" r="8.242" xlink:href="#radial-gradient-3"/>
    <radialGradient id="radial-gradient-9" cx="-4.397" cy="0.692" r="8.257" xlink:href="#radial-gradient-3"/>
    <radialGradient id="radial-gradient-10" cx="-6.046" cy="0.578" r="11.399" xlink:href="#radial-gradient-3"/>
    <radialGradient id="radial-gradient-11" cx="-7.776" cy="0.589" r="11.096" xlink:href="#radial-gradient-3"/>
    <radialGradient id="radial-gradient-12" cx="-19.177" cy="0.718" r="8.37" xlink:href="#radial-gradient-3"/>
    <radialGradient id="radial-gradient-13" cx="-8.611" cy="0.604" r="11.403" xlink:href="#radial-gradient-3"/>
    <radialGradient id="radial-gradient-14" cx="-9.072" cy="0.589" r="11.021" xlink:href="#radial-gradient-3"/>
    <radialGradient id="radial-gradient-15" cx="-11.748" cy="0.589" r="11.329" xlink:href="#radial-gradient-3"/>
    <radialGradient id="radial-gradient-16" cx="-12.696" cy="0.589" r="11.382" xlink:href="#radial-gradient-3"/>
  </defs>
  <path id="Path_288" data-name="Path 288" d="M975.827,312.471c-.229.739-.595.84-1.1.758a5.324,5.324,0,0,0-6.038,3.754,1.8,1.8,0,0,1-.533.837.69.69,0,0,1-.68-.083,1.2,1.2,0,0,1-.271-.843,5.529,5.529,0,0,0-.622-3.7,5.239,5.239,0,0,0-3.152-2.465c-.478-.145-.921-.3-.8-.919s.583-.6,1.085-.548a5.248,5.248,0,0,0,6.051-4.012c.145-.473.414-.747.905-.637.552.122.617.559.535,1.04a5.1,5.1,0,0,0,2.073,5.259,16.643,16.643,0,0,0,1.853.92A3.664,3.664,0,0,1,975.827,312.471Z" transform="translate(-464.331 -256.355)" fill="url(#radial-gradient)"/>
  <path id="Path_289" data-name="Path 289" d="M997.132,381.187c-.229.739-.595.84-1.1.758a5.326,5.326,0,0,0-6.038,3.754,1.81,1.81,0,0,1-.533.837.692.692,0,0,1-.681-.083,1.2,1.2,0,0,1-.27-.844,5.535,5.535,0,0,0-.622-3.7,5.242,5.242,0,0,0-3.153-2.465c-.478-.143-.919-.3-.8-.918s.584-.6,1.086-.549a5.247,5.247,0,0,0,6.05-4.011c.146-.473.415-.747.907-.638.551.122.617.559.535,1.04a5.1,5.1,0,0,0,2.073,5.259,16.407,16.407,0,0,0,1.853.919A3.673,3.673,0,0,1,997.132,381.187Z" transform="translate(-470.218 -275.344)" fill="none" stroke="#707070" stroke-width="1"/>
  <path id="Rectangle_19" data-name="Rectangle 19" d="M915.9,308.5h0a1.88,1.88,0,0,1,1.428,2.243h0a1.88,1.88,0,0,1-2.243,1.428h0a1.88,1.88,0,0,1-1.428-2.243h0A1.88,1.88,0,0,1,915.9,308.5Z" transform="translate(-450.789 -257.422)" fill="#f253a2"/>
  <g id="Group_44" data-name="Group 44" transform="translate(528.172 77.871)">
    <rect id="Rectangle_20" data-name="Rectangle 20" width="8.2" height="0.435" transform="translate(2.949 8.005) rotate(-77.487)" fill="#f253a2" stroke="#f253a2" stroke-width="0.5"/>
    <rect id="Rectangle_21" data-name="Rectangle 21" width="0.435" height="8.2" transform="translate(0 3.374) rotate(-77.487)" fill="#f253a2" stroke="#f253a2" stroke-width="0.5"/>
  </g>
  <path id="Path_290" data-name="Path 290" d="M284.358,319.579c.7.5.685.928.419,1.437a5.974,5.974,0,0,0,1.87,7.751,2.018,2.018,0,0,1,.7.862.775.775,0,0,1-.329.695,1.343,1.343,0,0,1-.989-.009,6.206,6.206,0,0,0-4.157-.641,5.879,5.879,0,0,0-3.735,2.489c-.322.458-.647.873-1.263.527s-.433-.833-.2-1.348a5.886,5.886,0,0,0-2.139-7.855c-.453-.322-.649-.7-.36-1.19.325-.544.812-.46,1.3-.2a5.713,5.713,0,0,0,6.33-.354,18.377,18.377,0,0,0,1.633-1.649A4.152,4.152,0,0,1,284.358,319.579Z" transform="translate(-274.04 -260.496)" fill="url(#radial-gradient-2)"/>
  <path id="Path_291" data-name="Path 291" d="M338.823,286.391c.169.85-.136,1.146-.68,1.334a5.973,5.973,0,0,0-3.956,6.92,2.028,2.028,0,0,1-.08,1.11.776.776,0,0,1-.716.28,1.337,1.337,0,0,1-.716-.687,6.2,6.2,0,0,0-2.586-3.316,5.874,5.874,0,0,0-4.425-.751c-.549.112-1.07.191-1.28-.483s.255-.9.776-1.119a5.884,5.884,0,0,0,3.831-7.184c-.109-.544.01-.957.554-1.112.61-.173.906.222,1.083.741a5.717,5.717,0,0,0,4.849,4.083,18.527,18.527,0,0,0,2.32-.082A4.1,4.1,0,0,1,338.823,286.391Z" transform="translate(-287.938 -249.929)" fill="none" stroke="#707070" stroke-width="1"/>
  <g id="Group_45" data-name="Group 45" transform="translate(8.547 25.997)">
    <rect id="Rectangle_22" data-name="Rectangle 22" width="0.488" height="9.197" transform="translate(2.998 0.133) rotate(-15.871)" fill="#f253a2" stroke="#f253a2" stroke-width="0.5"/>
    <rect id="Rectangle_23" data-name="Rectangle 23" width="9.196" height="0.488" transform="translate(0 5.509) rotate(-15.833)" fill="#f253a2" stroke="#f253a2" stroke-width="0.5"/>
  </g>
  <g id="Group_82" data-name="Group 82" transform="translate(86.405)">
    <g id="Group_81" data-name="Group 81">
      <path id="Path_577" data-name="Path 577" d="M437.475,262.459q.107,1.8.214,3.6.561,9.432-5.012,15.4t-14.609,6.594a22.839,22.839,0,0,1-16.82-5.119,21.757,21.757,0,0,1-2.414-31.013,21.978,21.978,0,0,1,15.555-7.521,23.165,23.165,0,0,1,11.224,1.905,20.017,20.017,0,0,1,8.208,6.48q-4.029,2.6-8.041,5.207a10.3,10.3,0,0,0-4.427-3.268,13.932,13.932,0,0,0-6.379-.955,12.169,12.169,0,0,0-11.694,13.506,11.777,11.777,0,0,0,4.309,8.642q3.9,3.187,9.958,2.764,8.431-.577,10.447-7.2-5.69.364-11.379.755-.289-4.2-.578-8.4Q426.753,263.1,437.475,262.459Z" transform="translate(-393.443 -239.705)" fill="#0074ff"/>
      <path id="Path_578" data-name="Path 578" d="M488.118,284.133a16.508,16.508,0,0,1-22.783,1.161,15.271,15.271,0,0,1-5.317-11,15.108,15.108,0,0,1,4.057-11.531,16.64,16.64,0,0,1,23.007-1.172,15.109,15.109,0,0,1,5.208,11.06A15.271,15.271,0,0,1,488.118,284.133Zm-16.688-5.348a7.506,7.506,0,1,0-2.281-5A6.825,6.825,0,0,0,471.43,278.785Z" transform="translate(-411.832 -243.348)" fill="#0074ff"/>
      <path id="Path_579" data-name="Path 579" d="M537.609,282.176a16.5,16.5,0,0,1-22.795.806A15.27,15.27,0,0,1,509.67,271.9a15.1,15.1,0,0,1,4.235-11.467,16.633,16.633,0,0,1,23.018-.814,15.113,15.113,0,0,1,5.034,11.139A15.272,15.272,0,0,1,537.609,282.176Zm-16.6-5.607a7.508,7.508,0,1,0-2.2-5.034A6.825,6.825,0,0,0,521.008,276.569Z" transform="translate(-425.558 -242.757)" fill="#0074ff"/>
      <path id="Path_580" data-name="Path 580" d="M582.541,238.324q4.624-.076,9.248-.135.266,21.057.53,42.115-4.542.056-9.082.132-.023-1.413-.046-2.827-3.154,3.723-8.958,3.837a13.5,13.5,0,0,1-10.342-4.369,16.075,16.075,0,0,1-4.547-11.168,15.894,15.894,0,0,1,3.984-11.389,13.583,13.583,0,0,1,10.255-4.836q5.891-.121,9.2,3.5Q582.664,245.754,582.541,238.324ZM570.613,270.99a7.9,7.9,0,0,0,10.458-.206,7.26,7.26,0,1,0-10.458.206Z" transform="translate(-439.289 -238.003)" fill="#0074ff"/>
      <path id="Path_581" data-name="Path 581" d="M652.551,237.955a20.04,20.04,0,0,1,14.888,6.16,20.391,20.391,0,0,1,5.795,15.083,20.688,20.688,0,0,1-6.12,14.94,19.889,19.889,0,0,1-14.749,5.935q-8.478-.037-16.955-.012-.063-21.059-.125-42.117Q643.918,237.917,652.551,237.955Zm-.145,32.851a10.957,10.957,0,0,0,8.2-3.168,13.254,13.254,0,0,0,.136-17.147,11.011,11.011,0,0,0-8.235-3.271q-3.686-.016-7.371-.021-.014,11.794-.029,23.586Q648.758,270.791,652.406,270.807Z" transform="translate(-460.277 -237.933)" fill="#0074ff"/>
      <path id="Path_582" data-name="Path 582" d="M702.289,273.528q1.5,4.243,7.208,4.362a7.6,7.6,0,0,0,5.887-2.148q3.6,2.165,7.179,4.343-4.666,6.07-13.366,5.864-7.625-.17-12.12-4.751a16.394,16.394,0,0,1,.323-22.712,15.841,15.841,0,0,1,11.828-4.314,14.847,14.847,0,0,1,11.015,4.812,15.536,15.536,0,0,1,4.114,11.461,16.961,16.961,0,0,1-.468,3.6Q713.09,273.735,702.289,273.528Zm-.054-6.741q6.561.125,13.12.287-1.224-4.784-6.364-4.9Q703.67,262.055,702.235,266.787Z" transform="translate(-476.135 -242.419)" fill="#0074ff"/>
      <path id="Path_583" data-name="Path 583" d="M749.885,264.922q-.03.9,1.506,1.527t3.713,1.276a33.812,33.812,0,0,1,4.337,1.638,8.838,8.838,0,0,1,3.631,3.123,9.369,9.369,0,0,1-2.592,12.483,15.568,15.568,0,0,1-9.051,2.163c-6.372-.224-10.631-2.737-12.8-7.577q4.011-2.109,8.037-4.2a4.957,4.957,0,0,0,5.044,3.723q3.278.116,3.347-1.746.033-.9-1.495-1.56a34.665,34.665,0,0,0-3.7-1.3,31.845,31.845,0,0,1-4.332-1.649,9.419,9.419,0,0,1-3.654-3.035,7.675,7.675,0,0,1-1.408-4.919,8.541,8.541,0,0,1,3.682-7.17,13.824,13.824,0,0,1,8.639-2.3,14.522,14.522,0,0,1,6.868,1.908,12.761,12.761,0,0,1,4.833,4.977q-4,1.916-7.983,3.845a4.509,4.509,0,0,0-4-2.793Q749.942,263.237,749.885,264.922Z" transform="translate(-488.837 -242.754)" fill="#0074ff"/>
      <path id="Path_584" data-name="Path 584" d="M789.992,248.551a5.584,5.584,0,0,1-7.8-.348,5.29,5.29,0,0,1,.328-7.635,5.6,5.6,0,0,1,7.825.349,5.291,5.291,0,0,1-.353,7.634Zm-9.967,33.916,1.281-30.057q4.6.2,9.2.41l-1.4,30.051Q784.564,282.66,780.025,282.467Z" transform="translate(-500.277 -238.266)" fill="#0074ff"/>
      <path id="Path_585" data-name="Path 585" d="M825.446,259.654q4.472.265,8.944.547-.9,14.261-1.8,28.523-.447,7.085-5.313,10.431a17.85,17.85,0,0,1-11.468,2.975c-6.775-.379-11.4-3.042-13.893-8.026q3.973-2.031,7.96-4.048,1.854,3.895,6.679,4.162a7.2,7.2,0,0,0,5.106-1.366,6.159,6.159,0,0,0,2.094-4.669q.081-1.381.164-2.762a10.778,10.778,0,0,1-9.063,3.4,14.188,14.188,0,0,1-10.391-5.039,15.123,15.123,0,0,1-3.748-11,14.966,14.966,0,0,1,4.841-10.573,14.266,14.266,0,0,1,10.986-3.906,10.864,10.864,0,0,1,8.718,4.416Q825.354,261.185,825.446,259.654ZM811.655,278.4a8.261,8.261,0,0,0,10.573.592,7.2,7.2,0,0,0,.588-10.091,8.289,8.289,0,0,0-10.62-.595,7.2,7.2,0,0,0-.542,10.094Z" transform="translate(-505.99 -243.554)" fill="#0074ff"/>
      <path id="Path_586" data-name="Path 586" d="M873.813,261.95a11.03,11.03,0,0,1,7.921,3.917q3.015,3.553,2.553,9.373-.724,9.207-1.449,18.415-4.532-.356-9.064-.695.639-8.55,1.278-17.1a5.015,5.015,0,0,0-4.9-5.851,5.536,5.536,0,0,0-4.26,1.263,6.366,6.366,0,0,0-1.848,4.514q-.573,8.193-1.146,16.386-4.533-.317-9.067-.616.99-15.01,1.981-30.02,4.594.3,9.186.625l-.2,2.822Q867.806,261.515,873.813,261.95Z" transform="translate(-520.673 -244.456)" fill="#0074ff"/>
    </g>
  </g>
  <g id="Group_84" data-name="Group 84" transform="translate(33.635 59.277)">
    <g id="Group_83" data-name="Group 83" transform="translate(0 0)">
      <path id="Path_587" data-name="Path 587" d="M335.808,374.412q-5.712.426-11.423.873-1.232-15.717-2.465-31.434,5.771-.454,11.545-.884Q334.636,358.69,335.808,374.412Zm-10.09-.682q4.268-.332,8.535-.653-1.07-14.278-2.142-28.556-4.309.324-8.619.659Zm1.9-31.342a6.413,6.413,0,0,1-4.768-1.564,6.24,6.24,0,0,1-2.306-4.406,6.122,6.122,0,0,1,1.6-4.687,6.637,6.637,0,0,1,9.262-.709,6.124,6.124,0,0,1,2.295,4.39,6.24,6.24,0,0,1-1.609,4.706h0A6.415,6.415,0,0,1,327.615,342.387Zm-.876-11.459a4.976,4.976,0,0,0-3.489,1.751,4.673,4.673,0,0,0-1.244,3.623,4.787,4.787,0,0,0,1.8,3.421,5.068,5.068,0,0,0,7.177-.549,4.784,4.784,0,0,0,1.255-3.654,4.682,4.682,0,0,0-1.781-3.392A4.977,4.977,0,0,0,326.738,330.928Z" transform="translate(-320.52 -322.505)" fill="url(#radial-gradient-3)"/>
      <path id="Path_588" data-name="Path 588" d="M358.573,378.439c-7,.484-11.935-1.709-14.674-6.548l-.347-.614q4.719-2.819,9.456-5.623l-2.454-.646a8.519,8.519,0,0,1-4.3-2.727,8.767,8.767,0,0,1-2.05-5.261,9.423,9.423,0,0,1,3.309-8.3,15.02,15.02,0,0,1,8.913-3.424c6.27-.432,10.869,1.758,13.652,6.485l.383.651q-4.512,2.368-9.01,4.751,1.882.462,3.764.928a8.151,8.151,0,0,1,4.392,2.875,9.834,9.834,0,0,1,2.051,5.73c.237,3.69-1,6.55-3.679,8.508A17.682,17.682,0,0,1,358.573,378.439Zm-13.044-6.655c2.525,3.94,6.763,5.638,12.945,5.211a16.264,16.264,0,0,0,8.645-2.942c2.282-1.669,3.293-4.039,3.085-7.247a8.438,8.438,0,0,0-1.731-4.91,6.64,6.64,0,0,0-3.615-2.384q-4.114-1.017-8.234-2.022c-1.416-.345-2.165-.954-2.225-1.812-.053-.759.245-2.061,2.83-2.239a4.626,4.626,0,0,1,4.225,2.1q3.475-1.84,6.958-3.672c-2.536-3.819-6.438-5.5-11.888-5.13a13.579,13.579,0,0,0-8.059,3.077,7.957,7.957,0,0,0-2.806,7.1,7.36,7.36,0,0,0,1.7,4.419,7.083,7.083,0,0,0,3.573,2.276q4.067,1.069,8.128,2.151c1.379.368,2.109,1.008,2.169,1.9.059.868-.289,2.354-3.28,2.56a5.26,5.26,0,0,1-5.288-2.673Q349.089,369.661,345.529,371.784Zm7.9-6.019.2.475a3.83,3.83,0,0,0,4.217,2.535c1.988-.137,1.943-.8,1.928-1.017-.01-.152-.357-.4-1.1-.6Q356.054,366.46,353.427,365.766Zm1.7-10.138.729-.05s.125.266,1.119.507q1.844.449,3.687.9l-.077-.127a3.418,3.418,0,0,0-3.256-1.976c-1,.069-1.5.3-1.473.694Z" transform="translate(-326.885 -326.864)" fill="url(#radial-gradient-4)"/>
      <path id="Path_589" data-name="Path 589" d="M426.871,369.572c-6.744.345-12.484-1.537-17.091-5.614a22.992,22.992,0,0,1-1.866-32.2,22.3,22.3,0,0,1,16.027-7.47,23.684,23.684,0,0,1,11.444,2.172,21.044,21.044,0,0,1,8.381,6.91l.436.619q-5.129,3.21-10.235,6.436l-.4-.564a8.314,8.314,0,0,0-3.589-2.756,11.823,11.823,0,0,0-5.3-.863,10.338,10.338,0,0,0-7.587,3.436,10.488,10.488,0,0,0-2.583,7.949,10.931,10.931,0,0,0,3.4,7.574c2.075,1.975,4.948,2.879,8.547,2.7,4.156-.212,6.9-1.687,8.358-4.508q-4.919.237-9.838.491l-.551-10.7q11.442-.591,22.888-1.092.11,2.5.219,4.991c.278,6.343-1.531,11.649-5.353,15.782S433.214,369.248,426.871,369.572Zm-2.855-43.834a20.872,20.872,0,0,0-15,6.982,21.554,21.554,0,0,0,1.732,30.155c4.309,3.815,9.7,5.576,16.053,5.251,5.952-.3,10.761-2.4,14.313-6.241s5.225-8.794,4.963-14.737q-.079-1.773-.157-3.545-9.981.443-19.959.952.2,3.9.4,7.808,5.329-.271,10.658-.525l-.381,1.025c-1.5,4.042-4.9,6.217-10.1,6.482-4.016.206-7.252-.833-9.628-3.1a12.332,12.332,0,0,1-3.853-8.539A11.779,11.779,0,0,1,424.6,334.8a13.293,13.293,0,0,1,5.956.98,10.016,10.016,0,0,1,3.775,2.7q3.883-2.451,7.778-4.892a19.785,19.785,0,0,0-7.365-5.821A22.207,22.207,0,0,0,424.015,325.738Z" transform="translate(-343.096 -321.066)" fill="url(#radial-gradient-5)"/>
      <path id="Path_590" data-name="Path 590" d="M484.968,371.656a16.543,16.543,0,0,1-12.081-4.335,16.553,16.553,0,0,1-.981-23.576,17.361,17.361,0,0,1,24.024-.9,16.626,16.626,0,0,1,.79,23.581A16.511,16.511,0,0,1,484.968,371.656Zm-1.193-31.746a15.19,15.19,0,0,0-10.8,4.825,15.112,15.112,0,0,0,.888,21.512,15.795,15.795,0,0,0,21.807-.817,15.185,15.185,0,0,0-.729-21.521A15.156,15.156,0,0,0,483.776,339.91Zm.831,22.126a6.566,6.566,0,0,1-4.912-1.774,7.478,7.478,0,0,1-.394-10.032,6.586,6.586,0,0,1,4.782-2.146,6.655,6.655,0,0,1,4.989,1.779,7.478,7.478,0,0,1,.36,10.033A6.636,6.636,0,0,1,484.607,362.036Zm-.47-12.506a5.1,5.1,0,0,0-3.756,1.673,6.046,6.046,0,0,0,.31,8,5.087,5.087,0,0,0,3.861,1.382,5.157,5.157,0,0,0,3.806-1.67,6.044,6.044,0,0,0-.29-8A5.166,5.166,0,0,0,484.138,349.53Z" transform="translate(-361.122 -324.988)" fill="url(#radial-gradient-6)"/>
      <path id="Path_591" data-name="Path 591" d="M533.539,370.123a16.541,16.541,0,0,1-12.028-4.479,16.554,16.554,0,0,1-.7-23.586,17.359,17.359,0,0,1,24.031-.614,16.627,16.627,0,0,1,.51,23.589A16.512,16.512,0,0,1,533.539,370.123Zm-.814-31.759a15.189,15.189,0,0,0-10.859,4.7,15.112,15.112,0,0,0,.631,21.521,15.793,15.793,0,0,0,21.814-.558,15.187,15.187,0,0,0-.473-21.528A15.158,15.158,0,0,0,532.725,338.364Zm.567,22.134a6.562,6.562,0,0,1-4.89-1.832,7.479,7.479,0,0,1-.273-10.036,6.58,6.58,0,0,1,4.806-2.088,6.654,6.654,0,0,1,4.967,1.838,7.479,7.479,0,0,1,.24,10.037A6.631,6.631,0,0,1,533.292,360.5Zm-.321-12.51a5.1,5.1,0,0,0-3.776,1.628,6.048,6.048,0,0,0,.216,8.008,5.088,5.088,0,0,0,3.844,1.428,5.157,5.157,0,0,0,3.825-1.625,6.045,6.045,0,0,0-.2-8.008A5.169,5.169,0,0,0,532.972,347.988Z" transform="translate(-374.601 -324.563)" fill="url(#radial-gradient-7)"/>
      <path id="Path_592" data-name="Path 592" d="M580.193,364.848a13.818,13.818,0,0,1-10.711-4.611,18.5,18.5,0,0,1-.425-23.644,13.89,13.89,0,0,1,10.659-4.957,11.925,11.925,0,0,1,7.944,2.489q-.08-6.892-.161-13.783,5.807-.068,11.616-.114.171,21.782.342,43.563-5.724.044-11.447.112-.011-.875-.02-1.75A11.823,11.823,0,0,1,580.193,364.848Zm-.457-31.765a12.322,12.322,0,0,0-9.573,4.455,17.061,17.061,0,0,0,.383,21.715,12.259,12.259,0,0,0,9.626,4.148,9.894,9.894,0,0,0,7.964-3.459l1.261-1.515q.023,2.006.046,4.013,4.277-.048,8.553-.084-.169-20.334-.339-40.669-4.335.037-8.671.085.09,8.023.18,16.045l-1.3-1.486C585.895,334.1,583.235,333.032,579.737,333.083Zm2.557,22.409a6.855,6.855,0,0,1-5.144-1.952,8.026,8.026,0,0,1-.161-10.512,7.511,7.511,0,0,1,10.269-.14,8.026,8.026,0,0,1,.125,10.512A6.86,6.86,0,0,1,582.294,355.492Zm-.179-13.116a5.39,5.39,0,0,0-4.063,1.643,6.6,6.6,0,0,0,.127,8.5h0a6.035,6.035,0,0,0,8.145-.111,6.6,6.6,0,0,0-.1-8.5A5.39,5.39,0,0,0,582.115,342.376Z" transform="translate(-388.082 -319.952)" fill="url(#radial-gradient-8)"/>
      <path id="Path_593" data-name="Path 593" d="M656.743,364.541a11.823,11.823,0,0,1-7.822-2.62l0,1.75q-5.724-.013-11.447,0-.038-21.783-.077-43.565,5.808-.01,11.616,0Q649,327,648.981,333.891a11.931,11.931,0,0,1,7.92-2.565,13.894,13.894,0,0,1,10.706,4.853,18.5,18.5,0,0,1-.2,23.649A13.819,13.819,0,0,1,656.743,364.541Zm-9.266-6.333q.638.751,1.276,1.5a9.894,9.894,0,0,0,8,3.382,12.258,12.258,0,0,0,9.585-4.24,17.063,17.063,0,0,0,.174-21.719,12.319,12.319,0,0,0-9.614-4.362c-3.5-.017-6.149,1.073-8.092,3.327l-1.291,1.5q.013-8.024.026-16.047-4.335-.007-8.671,0,.025,20.335.051,40.67,4.277-.005,8.553,0Q647.474,360.215,647.477,358.209Zm7.074-3a6.85,6.85,0,0,1-5.107-2.041h0a8.024,8.024,0,0,1,.024-10.513,7.508,7.508,0,0,1,10.269.041,8.028,8.028,0,0,1-.061,10.513A6.854,6.854,0,0,1,654.552,355.206Zm.053-13.117a5.387,5.387,0,0,0-4.089,1.57,6.6,6.6,0,0,0-.024,8.5h0a6.035,6.035,0,0,0,8.145.032,6.6,6.6,0,0,0,.046-8.5A5.394,5.394,0,0,0,654.6,342.089Z" transform="translate(-408.09 -319.917)" fill="url(#radial-gradient-9)"/>
      <path id="Path_594" data-name="Path 594" d="M700.034,369.486a11.192,11.192,0,0,1-8.467-3.683c-2.161-2.38-3.236-5.786-3.191-10.127q.1-9.356.2-18.712,5.784.062,11.57.146-.128,8.724-.255,17.448a4.074,4.074,0,0,0,.975,3.047,3.8,3.8,0,0,0,2.771,1.041,4,4,0,0,0,3.141-1.127,5.142,5.142,0,0,0,1.171-3.554l.289-16.726q5.784.1,11.568.222-.333,15.762-.667,31.524-5.723-.121-11.446-.22.016-.9.031-1.8A10.864,10.864,0,0,1,700.034,369.486Zm-10.009-31.058q-.1,8.633-.193,17.265c-.044,3.964.9,7.037,2.811,9.139a9.661,9.661,0,0,0,7.413,3.207c3.557.053,6.12-1.063,7.841-3.418l1.353-1.848q-.04,2.286-.081,4.572,4.276.076,8.552.164.3-14.315.592-28.631-4.317-.089-8.635-.166l-.271,15.279a6.506,6.506,0,0,1-1.572,4.523,5.444,5.444,0,0,1-4.218,1.58,5.257,5.257,0,0,1-3.78-1.467,5.44,5.44,0,0,1-1.4-4.089q.112-8,.225-16Q694.344,338.476,690.025,338.428Z" transform="translate(-422.179 -324.578)" fill="url(#radial-gradient-10)"/>
      <path id="Path_595" data-name="Path 595" d="M748.033,370.239c-7.016-.187-11.711-2.84-13.975-7.918l-.287-.644q4.964-2.355,9.944-4.694l-2.379-.878a8.514,8.514,0,0,1-4.021-3.125,8.776,8.776,0,0,1-1.537-5.432,9.421,9.421,0,0,1,4.083-7.95,15,15,0,0,1,9.194-2.559c6.28.168,10.648,2.787,12.965,7.758l.319.684q-4.716,1.928-9.419,3.87l3.657,1.282a8.148,8.148,0,0,1,4.1,3.281,9.842,9.842,0,0,1,1.494,5.9c-.116,3.7-1.623,6.425-4.472,8.119A17.669,17.669,0,0,1,748.033,370.239Zm-12.343-7.869c2.135,4.163,6.19,6.257,12.381,6.422a16.247,16.247,0,0,0,8.883-2.1c2.429-1.445,3.662-3.707,3.761-6.92a8.44,8.44,0,0,0-1.254-5.052A6.638,6.638,0,0,0,756.09,352q-4-1.4-8-2.8c-1.376-.478-2.064-1.156-2.041-2.016.02-.761.439-2.028,3.029-1.959a4.626,4.626,0,0,1,4,2.492q3.633-1.5,7.273-2.991c-2.158-4.044-5.88-6.094-11.339-6.241a13.566,13.566,0,0,0-8.311,2.295,7.954,7.954,0,0,0-3.468,6.8,7.358,7.358,0,0,0,1.266,4.56,7.073,7.073,0,0,0,3.337,2.607q3.945,1.452,7.881,2.916c1.338.5,2,1.2,1.978,2.1-.024.87-.512,2.316-3.507,2.235a5.258,5.258,0,0,1-5.007-3.166Q739.433,360.6,735.689,362.37Zm8.432-5.238.157.493a3.828,3.828,0,0,0,3.953,2.926c1.991.054,2.01-.611,2.015-.829,0-.152-.317-.436-1.033-.7Q746.669,358.074,744.121,357.132Zm2.658-9.93.729.02s.1.276,1.065.611q1.792.624,3.583,1.25l-.064-.135a3.419,3.419,0,0,0-3.052-2.277c-1.005-.027-1.52.158-1.53.55Z" transform="translate(-434.724 -324.596)" fill="url(#radial-gradient-11)"/>
      <path id="Path_596" data-name="Path 596" d="M787.345,365.516q-5.721-.206-11.442-.391.507-15.758,1.015-31.515,5.782.186,11.565.4Q787.914,349.76,787.345,365.516Zm-9.947-1.79q4.276.14,8.551.292.509-14.31,1.019-28.619-4.316-.154-8.633-.3Q777.867,349.415,777.4,363.726Zm5.338-30.943a6.4,6.4,0,0,1-4.563-2.08,6.241,6.241,0,0,1-1.806-4.633,6.126,6.126,0,0,1,2.107-4.482,6.63,6.63,0,0,1,9.278.316,6.125,6.125,0,0,1,1.8,4.615,6.242,6.242,0,0,1-2.117,4.5h0A6.406,6.406,0,0,1,782.736,332.783Zm.392-11.485a4.974,4.974,0,0,0-3.658,1.355,4.682,4.682,0,0,0-1.635,3.463,4.786,4.786,0,0,0,1.408,3.6,5.061,5.061,0,0,0,7.189.245,4.787,4.787,0,0,0,1.648-3.493,4.681,4.681,0,0,0-1.394-3.568A4.976,4.976,0,0,0,783.128,321.3Z" transform="translate(-446.368 -319.847)" fill="url(#radial-gradient-12)"/>
      <path id="Path_597" data-name="Path 597" d="M828.581,372.44q-5.718-.275-11.438-.528.385-8.716.77-17.433a4.062,4.062,0,0,0-.889-3.075,3.812,3.812,0,0,0-2.75-1.118,4.014,4.014,0,0,0-3.18,1.045,5.124,5.124,0,0,0-1.26,3.523q-.347,8.357-.693,16.715-5.72-.238-11.441-.452.593-15.754,1.185-31.51,5.781.218,11.562.457-.037.9-.075,1.8a10.981,10.981,0,0,1,7.836-2.312,11.285,11.285,0,0,1,8.43,3.958c2.1,2.457,3.05,5.9,2.841,10.237Zm-9.925-1.909q4.273.191,8.547.394.41-8.624.821-17.247c.188-3.959-.651-7.066-2.5-9.234A9.742,9.742,0,0,0,818.145,341c-3.591-.158-6.211.892-8,3.2l-1.405,1.813q.094-2.284.187-4.567-4.316-.177-8.632-.342-.545,14.309-1.089,28.616,4.275.163,8.548.338.313-7.634.625-15.269a6.479,6.479,0,0,1,1.682-4.484,5.457,5.457,0,0,1,4.277-1.47,5.278,5.278,0,0,1,3.753,1.574,5.426,5.426,0,0,1,1.282,4.129Z" transform="translate(-452.392 -325.289)" fill="url(#radial-gradient-13)"/>
      <path id="Path_598" data-name="Path 598" d="M861.59,374.9c-5.264-.289-9.467-2.086-12.509-5.354a15.939,15.939,0,0,1-4.25-12.086,16.187,16.187,0,0,1,5.347-11.629,16.428,16.428,0,0,1,12.381-4.144,15.834,15.834,0,0,1,11.5,5.39,16.2,16.2,0,0,1,3.93,12.07,16.6,16.6,0,0,1-.677,3.866l-.167.545q-4.543-.272-9.086-.53,3.954,3.1,7.892,6.213l-.515.572C872.1,373.513,867.447,375.219,861.59,374.9Zm.89-31.767a15.011,15.011,0,0,0-11.313,3.767,14.8,14.8,0,0,0-4.88,10.633,14.53,14.53,0,0,0,3.858,11.03c2.775,2.984,6.649,4.626,11.525,4.893,5.088.279,9.167-1.078,12.153-4.049q-2.932-2.313-5.873-4.621a8.516,8.516,0,0,1-5.649,1.6c-3.806-.209-6.231-1.724-7.213-4.513q-.178-.509-.358-1.018,10.673.558,21.345,1.194a15.611,15.611,0,0,0,.459-2.985,14.815,14.815,0,0,0-3.581-11.036A14.414,14.414,0,0,0,862.48,343.13Zm-5.529,19.285c.973,1.548,2.76,2.373,5.428,2.52a6.977,6.977,0,0,0,5.1-1.627l.352-.3Q862.392,362.7,856.951,362.415Zm11.617-6.291q-6.783-.386-13.568-.741l.33-.915c1.111-3.083,3.431-4.555,6.89-4.366a6.124,6.124,0,0,1,6.135,5.085Zm-11.461-2.08q4.772.253,9.543.522a4.612,4.612,0,0,0-4.508-3.019C859.738,351.416,858.081,352.236,857.107,354.045Z" transform="translate(-465.41 -325.873)" fill="url(#radial-gradient-14)"/>
      <path id="Path_599" data-name="Path 599" d="M903.055,377.34c-7.006-.454-11.6-3.284-13.67-8.444q-.13-.327-.262-.654,5.052-2.165,10.119-4.313l-2.345-.968a8.516,8.516,0,0,1-3.9-3.276,8.775,8.775,0,0,1-1.33-5.487,9.418,9.418,0,0,1,4.385-7.789,15,15,0,0,1,9.288-2.207c6.272.407,10.539,3.191,12.667,8.246l.293.7q-4.788,1.747-9.563,3.508,1.8.71,3.606,1.421a8.151,8.151,0,0,1,3.971,3.434,9.836,9.836,0,0,1,1.269,5.952c-.257,3.688-1.868,6.358-4.78,7.942A17.687,17.687,0,0,1,903.055,377.34Zm-12.04-8.333c1.977,4.242,5.95,6.489,12.134,6.889a16.254,16.254,0,0,0,8.959-1.765c2.484-1.351,3.8-3.564,4.023-6.771a8.441,8.441,0,0,0-1.062-5.1,6.645,6.645,0,0,0-3.266-2.844q-3.942-1.556-7.891-3.1c-1.357-.53-2.019-1.234-1.964-2.092.048-.759.517-2.01,3.1-1.842a4.629,4.629,0,0,1,3.908,2.643q3.69-1.36,7.386-2.711c-2-4.123-5.647-6.314-11.1-6.668a13.565,13.565,0,0,0-8.4,1.976,7.955,7.955,0,0,0-3.726,6.663,7.364,7.364,0,0,0,1.092,4.606,7.073,7.073,0,0,0,3.238,2.732q3.888,1.6,7.768,3.214c1.319.548,1.957,1.28,1.9,2.173-.057.868-.6,2.294-3.591,2.1a5.26,5.26,0,0,1-4.885-3.354Q894.825,367.376,891.015,369.007Zm8.629-4.912q.068.249.138.5a3.829,3.829,0,0,0,3.84,3.074c1.989.129,2.032-.533,2.046-.751.01-.152-.3-.449-1.006-.742Q902.154,365.132,899.643,364.095Zm3.034-9.822.729.047s.089.28,1.041.652l3.534,1.385-.06-.137a3.419,3.419,0,0,0-2.964-2.392c-1-.065-1.526.1-1.552.492Z" transform="translate(-477.657 -326.567)" fill="url(#radial-gradient-15)"/>
      <path id="Path_600" data-name="Path 600" d="M940.049,379.91c-7-.517-11.571-3.389-13.594-8.568l-.256-.657q5.071-2.119,10.159-4.22l-2.337-.989a8.51,8.51,0,0,1-3.871-3.311,8.769,8.769,0,0,1-1.281-5.5,9.42,9.42,0,0,1,4.456-7.749,15.016,15.016,0,0,1,9.309-2.122c6.269.465,10.512,3.286,12.593,8.361l.287.7q-4.8,1.7-9.6,3.421l3.594,1.453a8.164,8.164,0,0,1,3.94,3.471,9.831,9.831,0,0,1,1.216,5.964c-.29,3.686-1.925,6.341-4.852,7.9A17.693,17.693,0,0,1,940.049,379.91Zm-11.966-8.443c1.939,4.259,5.892,6.542,12.073,7a16.27,16.27,0,0,0,8.978-1.682c2.5-1.329,3.835-3.53,4.085-6.735a8.439,8.439,0,0,0-1.015-5.106,6.647,6.647,0,0,0-3.24-2.874q-3.928-1.591-7.865-3.172c-1.352-.543-2.007-1.252-1.944-2.109.055-.759.534-2.005,3.12-1.814a4.626,4.626,0,0,1,3.884,2.678q3.7-1.328,7.411-2.644c-1.967-4.141-5.591-6.365-11.041-6.769a13.572,13.572,0,0,0-8.415,1.9,7.955,7.955,0,0,0-3.786,6.63,7.358,7.358,0,0,0,1.05,4.615,7.07,7.07,0,0,0,3.213,2.761q3.874,1.638,7.739,3.285c1.315.561,1.945,1.3,1.879,2.19-.066.868-.622,2.29-3.611,2.067a5.261,5.261,0,0,1-4.855-3.4Q931.908,369.873,928.082,371.467Zm8.674-4.833.133.5a3.831,3.831,0,0,0,3.814,3.109c1.987.147,2.037-.515,2.053-.733.012-.151-.3-.451-1-.75Q939.259,367.694,936.757,366.634Zm3.124-9.794.729.054s.085.281,1.035.661q1.762.707,3.522,1.417l-.058-.137a3.422,3.422,0,0,0-2.943-2.42c-1-.075-1.527.087-1.556.478Z" transform="translate(-487.903 -327.28)" fill="url(#radial-gradient-16)"/>
    </g>
  </g>
</svg>
