<svg xmlns="http://www.w3.org/2000/svg" width="245.507" height="33.453" viewBox="0 0 245.507 33.453"><defs><style>.a{fill:#e958d1;}.b{fill:#272fbe;}.c{fill:#00066a;}</style></defs><g transform="translate(-48 -52)"><path class="a" d="M262.163,90.8l11.818-11.819a16.765,16.765,0,0,1,2.407-1.992,16.725,16.725,0,1,0,.006,27.626,16.8,16.8,0,0,1-2.414-2Z" transform="translate(-201.958 -22.07)"/><path class="b" d="M303.633,78.981h0a16.717,16.717,0,0,0-21.23-1.992,16.62,16.62,0,0,1,.006,27.626,16.717,16.717,0,0,0,21.224-2h0A16.714,16.714,0,0,0,303.633,78.981Z" transform="translate(-207.973 -22.073)"/><path class="c" d="M286.541,91.866a16.665,16.665,0,0,0-7.375-14.217,16.769,16.769,0,0,0-2.407,1.992L264.94,91.46l11.818,11.818a16.8,16.8,0,0,0,2.414,2A16.646,16.646,0,0,0,286.541,91.866Z" transform="translate(-204.736 -22.733)"/><g transform="translate(109.206 58.055)"><path class="c" d="M335.263,87.419a5.609,5.609,0,0,0-4.386-2.054c-4.079,0-6.772,3.22-6.772,7.3,0,3.777,2.54,7,6.772,7a5.613,5.613,0,0,0,4.745-2.408L337.7,98.8a8.478,8.478,0,0,1-6.875,3.143,9.294,9.294,0,0,1-9.338-9.278c0-5.575,3.874-9.581,9.466-9.581a8.01,8.01,0,0,1,6.361,2.788Z" transform="translate(-321.488 -83.084)"/><path class="c" d="M340.189,89.5H342.5v1.85h.052a4.114,4.114,0,0,1,3.642-2.155,3.349,3.349,0,0,1,1.027.152l-.1,2.459a4.542,4.542,0,0,0-1.129-.178c-2.257,0-3.489,1.217-3.489,3.854v6.032h-2.309Z" transform="translate(-321.586 -83.116)"/><path class="c" d="M351.009,96.348c0,2.1,1.976,3.5,4.1,3.5a4.2,4.2,0,0,0,3.334-1.8l1.745,1.318a6.392,6.392,0,0,1-5.387,2.459,6,6,0,0,1-6.259-6.312,6.124,6.124,0,0,1,6.285-6.312c4.283,0,5.925,3.244,5.925,6.337v.811Zm7.285-1.825a3.272,3.272,0,0,0-3.514-3.5,3.732,3.732,0,0,0-3.771,3.5Z" transform="translate(-321.63 -83.116)"/><path class="c" d="M369.482,89.2a6.313,6.313,0,1,1-6.464,6.312A6.352,6.352,0,0,1,369.482,89.2Zm0,10.493a4.186,4.186,0,1,0-4-4.182A3.875,3.875,0,0,0,369.482,99.693Z" transform="translate(-321.707 -83.116)"/><path class="c" d="M385.437,91.465h-3.308v5.45c0,1.344,0,2.762,1.745,2.762a3.318,3.318,0,0,0,1.642-.354V101.4a5.321,5.321,0,0,1-2.078.4c-3.566,0-3.618-2.155-3.618-4.081V91.465h-2.668V89.488h2.668V86.117h2.309v3.371h3.308Z" transform="translate(-321.781 -83.1)"/><path class="c" d="M389.808,83.492a1.673,1.673,0,1,1-1.693,1.673A1.7,1.7,0,0,1,389.808,83.492Zm-1.155,5.982h2.31v12.014h-2.31Z" transform="translate(-321.839 -83.086)"/><path class="c" d="M393.2,89.506h2.669l3.642,9.2,3.49-9.2h2.462l-4.771,12.014h-2.54Z" transform="translate(-321.865 -83.118)"/><path class="c" d="M409.3,96.348c0,2.1,1.977,3.5,4.1,3.5a4.2,4.2,0,0,0,3.335-1.8l1.745,1.318a6.4,6.4,0,0,1-5.388,2.459,6,6,0,0,1-6.259-6.312,6.124,6.124,0,0,1,6.285-6.312c4.284,0,5.926,3.244,5.926,6.337v.811Zm7.286-1.825a3.273,3.273,0,0,0-3.515-3.5,3.732,3.732,0,0,0-3.771,3.5Z" transform="translate(-321.937 -83.116)"/><path class="c" d="M429.256,83.543h6.336c7.669,0,9.542,5.653,9.542,8.974,0,4.588-3.464,8.973-9.953,8.973h-5.926Zm2.462,15.665h3.106c4.154,0,7.694-2.256,7.694-6.692,0-2.282-1.206-6.693-7.105-6.693h-3.694Z" transform="translate(-322.055 -83.086)"/><path class="c" d="M449.929,96.348c0,2.1,1.977,3.5,4.1,3.5a4.2,4.2,0,0,0,3.335-1.8l1.745,1.318a6.4,6.4,0,0,1-5.388,2.459,6,6,0,0,1-6.259-6.312,6.124,6.124,0,0,1,6.285-6.312c4.284,0,5.926,3.244,5.926,6.337v.811Zm7.286-1.825a3.273,3.273,0,0,0-3.515-3.5,3.732,3.732,0,0,0-3.771,3.5Z" transform="translate(-322.151 -83.116)"/><path class="c" d="M468.989,92.52a3.1,3.1,0,0,0-2.488-1.192c-1.077,0-2.027.482-2.027,1.344,0,1.445,2.078,1.647,3.1,1.875,2,.482,3.54,1.242,3.54,3.5,0,2.713-2.514,3.777-4.925,3.777a5.244,5.244,0,0,1-4.7-2.13l1.745-1.418a4.055,4.055,0,0,0,2.95,1.418c1.179,0,2.462-.481,2.462-1.52,0-1.369-1.924-1.622-2.924-1.85-1.975-.482-3.718-1.115-3.718-3.423,0-2.509,2.333-3.7,4.617-3.7a4.707,4.707,0,0,1,4.155,1.978Z" transform="translate(-322.225 -83.116)"/><path class="c" d="M475.315,83.492a1.673,1.673,0,1,1-1.693,1.673A1.7,1.7,0,0,1,475.315,83.492Zm-1.155,5.982h2.309v12.014H474.16Z" transform="translate(-322.289 -83.086)"/><path class="c" d="M492.355,101.418c0,3.624-2.669,6.184-6.645,6.184a8.268,8.268,0,0,1-5.95-2.155l1.565-1.927a5.692,5.692,0,0,0,4.335,1.953c3.437,0,4.387-2.13,4.387-4.158V99.542h-.078a4.805,4.805,0,0,1-4.207,2.13,6.236,6.236,0,0,1,0-12.472,5.215,5.215,0,0,1,4.233,2.028h.052V89.5h2.309Zm-10.312-5.907a4,4,0,1,0,8,0,4.006,4.006,0,1,0-8,0Z" transform="translate(-322.32 -83.116)"/><path class="c" d="M495.934,89.5h2.308v1.85h.052a4.29,4.29,0,0,1,4-2.155c2.36,0,4.413,1.395,4.413,4.588v7.731H504.4v-7.1c0-2.257-1.308-3.094-2.77-3.094-1.924,0-3.386,1.218-3.386,4.006v6.184h-2.308Z" transform="translate(-322.406 -83.116)"/></g></g></svg>